Vogue.ufo
<glyph name="exclam" format="2">
  <advance width="231"/>
  <unicode hex="0021"/>
  <outline>
    <contour>
      <point x="101" y="159" type="line"/>
      <point x="94" y="290"/>
      <point x="69" y="508"/>
      <point x="54" y="587" type="qcurve"/>
      <point x="68" y="605"/>
      <point x="82" y="627"/>
      <point x="91" y="646" type="qcurve"/>
      <point x="103" y="668" type="line"/>
      <point x="108" y="674"/>
      <point x="113" y="674" type="qcurve"/>
      <point x="115" y="674"/>
      <point x="125" y="671"/>
      <point x="130" y="663" type="qcurve" smooth="yes"/>
      <point x="136" y="653"/>
      <point x="139" y="647" type="qcurve" smooth="yes"/>
      <point x="149" y="629"/>
      <point x="164" y="602"/>
      <point x="178" y="590" type="qcurve"/>
      <point x="168" y="531"/>
      <point x="153" y="432"/>
      <point x="141" y="333"/>
      <point x="132" y="225"/>
      <point x="129" y="159" type="qcurve"/>
    </contour>
    <contour>
      <point x="117" y="92" type="qcurve" smooth="yes"/>
      <point x="134" y="92"/>
      <point x="159" y="62"/>
      <point x="159" y="41" type="qcurve" smooth="yes"/>
      <point x="159" y="18"/>
      <point x="134" y="-11"/>
      <point x="116" y="-11" type="qcurve" smooth="yes"/>
      <point x="99" y="-11"/>
      <point x="74" y="19"/>
      <point x="74" y="41" type="qcurve" smooth="yes"/>
      <point x="74" y="62"/>
      <point x="100" y="92"/>
    </contour>
  </outline>
</glyph>
<glyph name="quotedbl" format="2">
  <advance width="276"/>
  <unicode hex="0022"/>
  <outline>
    <contour>
      <point x="33" y="637" type="line"/>
      <point x="37" y="645"/>
      <point x="48" y="666"/>
      <point x="62" y="683"/>
      <point x="75" y="689"/>
      <point x="79" y="689" type="qcurve" smooth="yes"/>
      <point x="85" y="689"/>
      <point x="91" y="686" type="qcurve" smooth="yes"/>
      <point x="119" y="669"/>
      <point x="126" y="651"/>
      <point x="126" y="644" type="qcurve" smooth="yes"/>
      <point x="126" y="634"/>
      <point x="121" y="619" type="qcurve" smooth="yes"/>
      <point x="116" y="605"/>
      <point x="101" y="544"/>
      <point x="94" y="512" type="qcurve" smooth="yes"/>
      <point x="86" y="475"/>
      <point x="77" y="433" type="qcurve"/>
      <point x="57" y="433" type="line"/>
    </contour>
    <contour>
      <point x="159" y="637" type="line"/>
      <point x="163" y="645"/>
      <point x="174" y="666"/>
      <point x="188" y="683"/>
      <point x="201" y="689"/>
      <point x="205" y="689" type="qcurve" smooth="yes"/>
      <point x="211" y="689"/>
      <point x="217" y="686" type="qcurve" smooth="yes"/>
      <point x="245" y="669"/>
      <point x="252" y="651"/>
      <point x="252" y="644" type="qcurve" smooth="yes"/>
      <point x="252" y="634"/>
      <point x="247" y="619" type="qcurve" smooth="yes"/>
      <point x="242" y="605"/>
      <point x="227" y="544"/>
      <point x="220" y="512" type="qcurve" smooth="yes"/>
      <point x="212" y="475"/>
      <point x="203" y="433" type="qcurve"/>
      <point x="183" y="433" type="line"/>
    </contour>
  </outline>
</glyph>
<glyph name="dollar" format="2">
  <advance width="470"/>
  <unicode hex="0024"/>
  <outline>
    <contour>
      <point x="51" y="238" type="line"/>
      <point x="66" y="238" type="line"/>
      <point x="70" y="187"/>
      <point x="94" y="104"/>
      <point x="139" y="44"/>
      <point x="173" y="28" type="qcurve"/>
      <point x="175" y="26"/>
      <point x="178" y="25" type="qcurve"/>
      <point x="178" y="257" type="line"/>
      <point x="145" y="275"/>
      <point x="116" y="302" type="qcurve" smooth="yes"/>
      <point x="85" y="330"/>
      <point x="46" y="410"/>
      <point x="46" y="468" type="qcurve" smooth="yes"/>
      <point x="46" y="477"/>
      <point x="47" y="499"/>
      <point x="49" y="510" type="qcurve" smooth="yes"/>
      <point x="60" y="591"/>
      <point x="104" y="631" type="qcurve" smooth="yes"/>
      <point x="134" y="657"/>
      <point x="178" y="668" type="qcurve"/>
      <point x="178" y="712" type="line"/>
      <point x="198" y="712" type="line"/>
      <point x="198" y="672" type="line"/>
      <point x="210" y="673"/>
      <point x="223" y="674" type="qcurve"/>
      <point x="241" y="674"/>
      <point x="257" y="672" type="qcurve"/>
      <point x="257" y="712" type="line"/>
      <point x="277" y="712" type="line"/>
      <point x="277" y="667" type="line"/>
      <point x="286" y="665"/>
      <point x="293" y="661" type="qcurve" smooth="yes"/>
      <point x="321" y="647"/>
      <point x="339" y="634" type="qcurve"/>
      <point x="356" y="620"/>
      <point x="367" y="620" type="qcurve" smooth="yes"/>
      <point x="381" y="620"/>
      <point x="387" y="647"/>
      <point x="387" y="659" type="qcurve"/>
      <point x="403" y="659" type="line"/>
      <point x="403" y="458" type="line"/>
      <point x="386" y="458" type="line"/>
      <point x="379" y="502"/>
      <point x="355" y="575"/>
      <point x="316" y="626"/>
      <point x="288" y="640" type="qcurve" smooth="yes"/>
      <point x="283" y="643"/>
      <point x="277" y="645" type="qcurve"/>
      <point x="277" y="387" type="line"/>
      <point x="288" y="382"/>
      <point x="300" y="377" type="qcurve"/>
      <point x="333" y="360"/>
      <point x="390" y="311"/>
      <point x="429" y="241"/>
      <point x="434" y="191" type="qcurve"/>
      <point x="434" y="185"/>
      <point x="434" y="179" type="qcurve" smooth="yes"/>
      <point x="434" y="140"/>
      <point x="409" y="70"/>
      <point x="360" y="16"/>
      <point x="326" y="2" type="qcurve" smooth="yes"/>
      <point x="302" y="-8"/>
      <point x="277" y="-11" type="qcurve"/>
      <point x="277" y="-64" type="line"/>
      <point x="257" y="-64" type="line"/>
      <point x="257" y="-13" type="line"/>
      <point x="254" y="-13"/>
      <point x="251" y="-13" type="qcurve" smooth="yes"/>
      <point x="222" y="-13"/>
      <point x="198" y="-7" type="qcurve"/>
      <point x="198" y="-64" type="line"/>
      <point x="178" y="-64" type="line"/>
      <point x="178" y="0" type="line"/>
      <point x="151" y="11"/>
      <point x="130" y="21" type="qcurve"/>
      <point x="118" y="28"/>
      <point x="97" y="37"/>
      <point x="87" y="37" type="qcurve" smooth="yes"/>
      <point x="76" y="37"/>
      <point x="67" y="5"/>
      <point x="66" y="-7" type="qcurve"/>
      <point x="51" y="-7" type="line"/>
    </contour>
    <contour>
      <point x="198" y="420" type="line"/>
      <point x="215" y="413"/>
      <point x="233" y="406" type="qcurve" smooth="yes"/>
      <point x="245" y="401"/>
      <point x="257" y="396" type="qcurve"/>
      <point x="257" y="651" type="line"/>
      <point x="240" y="654"/>
      <point x="221" y="654" type="qcurve" smooth="yes"/>
      <point x="209" y="654"/>
      <point x="198" y="653" type="qcurve"/>
    </contour>
    <contour>
      <point x="178" y="649" type="line"/>
      <point x="174" y="648"/>
      <point x="171" y="647" type="qcurve" smooth="yes"/>
      <point x="147" y="640"/>
      <point x="112" y="611"/>
      <point x="95" y="569"/>
      <point x="95" y="544" type="qcurve" smooth="yes"/>
      <point x="95" y="539"/>
      <point x="95" y="533" type="qcurve"/>
      <point x="97" y="506"/>
      <point x="121" y="467"/>
      <point x="140" y="453" type="qcurve" smooth="yes"/>
      <point x="157" y="440"/>
      <point x="178" y="429" type="qcurve"/>
    </contour>
    <contour>
      <point x="198" y="18" type="line"/>
      <point x="223" y="11"/>
      <point x="254" y="11" type="qcurve"/>
      <point x="256" y="11"/>
      <point x="257" y="11" type="qcurve"/>
      <point x="257" y="218" type="line"/>
      <point x="256" y="219"/>
      <point x="255" y="219" type="qcurve"/>
      <point x="227" y="232"/>
      <point x="198" y="247" type="qcurve"/>
    </contour>
    <contour>
      <point x="277" y="13" type="line"/>
      <point x="293" y="15"/>
      <point x="307" y="20" type="qcurve" smooth="yes"/>
      <point x="330" y="29"/>
      <point x="361" y="62"/>
      <point x="369" y="95"/>
      <point x="369" y="106" type="qcurve" smooth="yes"/>
      <point x="369" y="120"/>
      <point x="365" y="135" type="qcurve" smooth="yes"/>
      <point x="357" y="164"/>
      <point x="327" y="182" type="qcurve" smooth="yes"/>
      <point x="305" y="195"/>
      <point x="277" y="209" type="qcurve"/>
    </contour>
  </outline>
</glyph>
<glyph name="ampersand" format="2">
  <advance width="666"/>
  <unicode hex="0026"/>
  <outline>
    <contour>
      <point x="410" y="20" type="line"/>
      <point x="440" y="20" type="line"/>
      <point x="417" y="47" type="line"/>
      <point x="380" y="25"/>
      <point x="302" y="-9"/>
      <point x="258" y="-9" type="qcurve" smooth="yes"/>
      <point x="218" y="-9"/>
      <point x="132" y="18"/>
      <point x="60" y="67"/>
      <point x="13" y="138"/>
      <point x="13" y="183" type="qcurve" smooth="yes"/>
      <point x="13" y="211"/>
      <point x="37" y="266"/>
      <point x="76" y="312"/>
      <point x="125" y="348"/>
      <point x="151" y="358" type="qcurve"/>
      <point x="124" y="386"/>
      <point x="92" y="433"/>
      <point x="76" y="470"/>
      <point x="71" y="499"/>
      <point x="71" y="510" type="qcurve" smooth="yes"/>
      <point x="71" y="557"/>
      <point x="109" y="622"/>
      <point x="171" y="662"/>
      <point x="250" y="680"/>
      <point x="291" y="680" type="qcurve" smooth="yes"/>
      <point x="322" y="680"/>
      <point x="384" y="660"/>
      <point x="434" y="623"/>
      <point x="465" y="569"/>
      <point x="465" y="535" type="qcurve" smooth="yes"/>
      <point x="465" y="499"/>
      <point x="427" y="452"/>
      <point x="369" y="423"/>
      <point x="301" y="405"/>
      <point x="272" y="397" type="qcurve"/>
      <point x="494" y="129" type="line"/>
      <point x="529" y="165"/>
      <point x="583" y="272"/>
      <point x="593" y="323" type="qcurve"/>
      <point x="530" y="323" type="line"/>
      <point x="530" y="343" type="line"/>
      <point x="672" y="343" type="line"/>
      <point x="672" y="323" type="line"/>
      <point x="608" y="323" type="line"/>
      <point x="600" y="265"/>
      <point x="546" y="157"/>
      <point x="505" y="115" type="qcurve"/>
      <point x="587" y="20" type="line"/>
      <point x="635" y="20" type="line"/>
      <point x="635" y="0" type="line"/>
      <point x="410" y="0" type="line"/>
    </contour>
    <contour>
      <point x="279" y="663" type="qcurve" smooth="yes"/>
      <point x="231" y="663"/>
      <point x="170" y="606"/>
      <point x="170" y="557" type="qcurve" smooth="yes"/>
      <point x="170" y="543"/>
      <point x="182" y="498"/>
      <point x="197" y="482" type="qcurve" smooth="yes"/>
      <point x="260" y="411" type="line"/>
      <point x="284" y="426"/>
      <point x="326" y="448"/>
      <point x="357" y="474"/>
      <point x="376" y="512"/>
      <point x="376" y="542" type="qcurve" smooth="yes"/>
      <point x="376" y="566"/>
      <point x="366" y="610"/>
      <point x="344" y="643"/>
      <point x="306" y="663"/>
    </contour>
    <contour>
      <point x="139" y="189" type="qcurve" smooth="yes"/>
      <point x="139" y="160"/>
      <point x="157" y="101"/>
      <point x="192" y="54"/>
      <point x="243" y="24"/>
      <point x="276" y="24" type="qcurve" smooth="yes"/>
      <point x="309" y="24"/>
      <point x="373" y="47"/>
      <point x="402" y="63" type="qcurve"/>
      <point x="176" y="329" type="line"/>
      <point x="168" y="315"/>
      <point x="155" y="280"/>
      <point x="145" y="242"/>
      <point x="139" y="204"/>
    </contour>
  </outline>
</glyph>
<glyph name="parenleft" format="2">
  <advance width="283"/>
  <unicode hex="0028"/>
  <outline>
    <contour>
      <point x="196" y="-115" type="qcurve" smooth="yes"/>
      <point x="145" y="-77"/>
      <point x="70" y="51"/>
      <point x="49" y="141" type="qcurve" smooth="yes"/>
      <point x="28" y="229"/>
      <point x="28" y="310" type="qcurve" smooth="yes"/>
      <point x="28" y="351"/>
      <point x="38" y="437"/>
      <point x="49" y="479" type="qcurve" smooth="yes"/>
      <point x="60" y="521"/>
      <point x="90" y="597"/>
      <point x="107" y="626" type="qcurve"/>
      <point x="125" y="654"/>
      <point x="175" y="711"/>
      <point x="196" y="728" type="qcurve"/>
      <point x="221" y="746"/>
      <point x="274" y="766"/>
      <point x="303" y="767" type="qcurve"/>
      <point x="303" y="746" type="line"/>
      <point x="265" y="745"/>
      <point x="241" y="724" type="qcurve"/>
      <point x="218" y="708"/>
      <point x="188" y="650"/>
      <point x="168" y="576"/>
      <point x="157" y="493"/>
      <point x="151" y="411"/>
      <point x="150" y="335"/>
      <point x="150" y="305" type="qcurve" smooth="yes"/>
      <point x="150" y="289"/>
      <point x="151" y="246"/>
      <point x="153" y="198"/>
      <point x="157" y="148"/>
      <point x="160" y="124" type="qcurve" smooth="yes"/>
      <point x="165" y="78"/>
      <point x="174" y="31" type="qcurve" smooth="yes"/>
      <point x="183" y="-12"/>
      <point x="219" y="-88"/>
      <point x="243" y="-111" type="qcurve" smooth="yes"/>
      <point x="254" y="-121"/>
      <point x="285" y="-133"/>
      <point x="303" y="-134" type="qcurve"/>
      <point x="303" y="-155" type="line"/>
      <point x="247" y="-154"/>
    </contour>
  </outline>
</glyph>
<glyph name="parenright" format="2">
  <advance width="283"/>
  <unicode hex="0029"/>
  <outline>
    <contour>
      <point x="76" y="727" type="qcurve" smooth="yes"/>
      <point x="127" y="689"/>
      <point x="202" y="561"/>
      <point x="223" y="471" type="qcurve" smooth="yes"/>
      <point x="244" y="382"/>
      <point x="244" y="302" type="qcurve" smooth="yes"/>
      <point x="244" y="261"/>
      <point x="234" y="175"/>
      <point x="223" y="133" type="qcurve" smooth="yes"/>
      <point x="212" y="91"/>
      <point x="182" y="15"/>
      <point x="165" y="-14" type="qcurve"/>
      <point x="147" y="-42"/>
      <point x="97" y="-99"/>
      <point x="76" y="-116" type="qcurve"/>
      <point x="51" y="-134"/>
      <point x="-2" y="-154"/>
      <point x="-31" y="-155" type="qcurve"/>
      <point x="-31" y="-134" type="line"/>
      <point x="7" y="-133"/>
      <point x="31" y="-112" type="qcurve"/>
      <point x="53" y="-96"/>
      <point x="84" y="-38"/>
      <point x="104" y="36"/>
      <point x="115" y="119"/>
      <point x="121" y="201"/>
      <point x="122" y="277"/>
      <point x="122" y="307" type="qcurve" smooth="yes"/>
      <point x="122" y="323"/>
      <point x="121" y="366"/>
      <point x="119" y="414"/>
      <point x="115" y="464"/>
      <point x="112" y="488" type="qcurve" smooth="yes"/>
      <point x="107" y="534"/>
      <point x="98" y="581" type="qcurve" smooth="yes"/>
      <point x="89" y="624"/>
      <point x="53" y="700"/>
      <point x="29" y="723" type="qcurve" smooth="yes"/>
      <point x="18" y="733"/>
      <point x="-13" y="745"/>
      <point x="-31" y="746" type="qcurve"/>
      <point x="-31" y="767" type="line"/>
      <point x="25" y="766"/>
    </contour>
  </outline>
</glyph>
<glyph name="asterisk" format="2">
  <advance width="343"/>
  <unicode hex="002A"/>
  <outline>
    <contour>
      <point x="263" y="439" type="line"/>
      <point x="283" y="428"/>
      <point x="291" y="407"/>
      <point x="291" y="403" type="qcurve" smooth="yes"/>
      <point x="291" y="393"/>
      <point x="281" y="385" type="qcurve" smooth="yes"/>
      <point x="261" y="371"/>
      <point x="241" y="371"/>
      <point x="227" y="382" type="qcurve" smooth="yes"/>
      <point x="218" y="389"/>
      <point x="193" y="416"/>
      <point x="179" y="430" type="qcurve"/>
      <point x="194" y="358" type="line"/>
      <point x="194" y="335"/>
      <point x="177" y="315"/>
      <point x="167" y="315" type="qcurve" smooth="yes"/>
      <point x="163" y="315"/>
      <point x="158" y="316" type="qcurve"/>
      <point x="135" y="325"/>
      <point x="126" y="339"/>
      <point x="126" y="346" type="qcurve" smooth="yes"/>
      <point x="126" y="353"/>
      <point x="128" y="361" type="qcurve"/>
      <point x="130" y="375"/>
      <point x="142" y="425"/>
      <point x="149" y="445" type="qcurve"/>
      <point x="89" y="385" type="line"/>
      <point x="72" y="374"/>
      <point x="56" y="374" type="qcurve"/>
      <point x="56" y="374"/>
      <point x="39" y="375"/>
      <point x="32" y="391" type="qcurve"/>
      <point x="31" y="399"/>
      <point x="31" y="406" type="qcurve" smooth="yes"/>
      <point x="31" y="419"/>
      <point x="38" y="435"/>
      <point x="56" y="442" type="qcurve" smooth="yes"/>
      <point x="67" y="447"/>
      <point x="107" y="459"/>
      <point x="125" y="466" type="qcurve"/>
      <point x="62" y="490" type="line"/>
      <point x="44" y="499"/>
      <point x="35" y="520"/>
      <point x="35" y="524" type="qcurve" smooth="yes"/>
      <point x="35" y="534"/>
      <point x="44" y="541" type="qcurve" smooth="yes"/>
      <point x="64" y="555"/>
      <point x="84" y="555"/>
      <point x="98" y="544" type="qcurve"/>
      <point x="149" y="493" type="line"/>
      <point x="131" y="577" type="line"/>
      <point x="131" y="600"/>
      <point x="148" y="620"/>
      <point x="158" y="620" type="qcurve" smooth="yes"/>
      <point x="162" y="620"/>
      <point x="167" y="619" type="qcurve"/>
      <point x="190" y="610"/>
      <point x="199" y="596"/>
      <point x="199" y="589" type="qcurve" smooth="yes"/>
      <point x="199" y="582"/>
      <point x="197" y="574" type="qcurve" smooth="yes"/>
      <point x="196" y="566"/>
      <point x="190" y="541"/>
      <point x="182" y="513"/>
      <point x="175" y="485"/>
      <point x="173" y="475" type="qcurve"/>
      <point x="233" y="538" type="line"/>
      <point x="250" y="548"/>
      <point x="265" y="548" type="qcurve"/>
      <point x="267" y="548"/>
      <point x="285" y="547"/>
      <point x="290" y="529" type="qcurve"/>
      <point x="291" y="521"/>
      <point x="291" y="514" type="qcurve" smooth="yes"/>
      <point x="291" y="501"/>
      <point x="284" y="488"/>
      <point x="266" y="481" type="qcurve"/>
      <point x="257" y="476"/>
      <point x="224" y="464"/>
      <point x="206" y="457" type="qcurve"/>
    </contour>
  </outline>
</glyph>
<glyph name="period" format="2">
  <advance width="208"/>
  <unicode hex="002E"/>
  <outline>
    <contour>
      <point x="107" y="92" type="qcurve" smooth="yes"/>
      <point x="124" y="92"/>
      <point x="149" y="62"/>
      <point x="149" y="41" type="qcurve" smooth="yes"/>
      <point x="149" y="18"/>
      <point x="124" y="-11"/>
      <point x="106" y="-11" type="qcurve" smooth="yes"/>
      <point x="89" y="-11"/>
      <point x="64" y="19"/>
      <point x="64" y="41" type="qcurve" smooth="yes"/>
      <point x="64" y="62"/>
      <point x="90" y="92"/>
    </contour>
  </outline>
</glyph>
<glyph name="zero" format="2">
  <advance width="454"/>
  <unicode hex="0030"/>
  <outline>
    <contour>
      <point x="231" y="670" type="qcurve" smooth="yes"/>
      <point x="270" y="670"/>
      <point x="332" y="627"/>
      <point x="356" y="592" type="qcurve" smooth="yes"/>
      <point x="393" y="539"/>
      <point x="420" y="403"/>
      <point x="420" y="337" type="qcurve" smooth="yes"/>
      <point x="420" y="299"/>
      <point x="412" y="221"/>
      <point x="392" y="148"/>
      <point x="361" y="81"/>
      <point x="337" y="54" type="qcurve" smooth="yes"/>
      <point x="314" y="28"/>
      <point x="259" y="-6"/>
      <point x="227" y="-6" type="qcurve" smooth="yes"/>
      <point x="189" y="-6"/>
      <point x="132" y="30"/>
      <point x="108" y="63" type="qcurve" smooth="yes"/>
      <point x="87" y="91"/>
      <point x="60" y="157"/>
      <point x="44" y="229"/>
      <point x="37" y="303"/>
      <point x="37" y="339" type="qcurve" smooth="yes"/>
      <point x="37" y="414"/>
      <point x="73" y="552"/>
      <point x="118" y="606" type="qcurve" smooth="yes"/>
      <point x="141" y="634"/>
      <point x="197" y="670"/>
    </contour>
    <contour>
      <point x="230" y="655" type="qcurve" smooth="yes"/>
      <point x="198" y="655"/>
      <point x="164" y="614"/>
      <point x="154" y="579" type="qcurve" smooth="yes"/>
      <point x="148" y="556"/>
      <point x="141" y="498"/>
      <point x="138" y="436"/>
      <point x="137" y="377"/>
      <point x="137" y="353" type="qcurve" smooth="yes"/>
      <point x="137" y="330" type="line" smooth="yes"/>
      <point x="137" y="303"/>
      <point x="138" y="233"/>
      <point x="141" y="161"/>
      <point x="148" y="97"/>
      <point x="154" y="78" type="qcurve" smooth="yes"/>
      <point x="164" y="49"/>
      <point x="197" y="9"/>
      <point x="224" y="9" type="qcurve" smooth="yes"/>
      <point x="259" y="9"/>
      <point x="291" y="53"/>
      <point x="300" y="91" type="qcurve" smooth="yes"/>
      <point x="306" y="117"/>
      <point x="312" y="180"/>
      <point x="315" y="245"/>
      <point x="315" y="278" type="qcurve"/>
      <point x="315" y="280" type="line"/>
      <point x="315" y="282"/>
      <point x="315" y="283" type="qcurve"/>
      <point x="315" y="285" type="line"/>
      <point x="315" y="287"/>
      <point x="315" y="288" type="qcurve"/>
      <point x="315" y="295" type="line"/>
      <point x="315" y="296"/>
      <point x="315" y="297" type="qcurve"/>
      <point x="315" y="303" type="line"/>
      <point x="315" y="304"/>
      <point x="315" y="305" type="qcurve"/>
      <point x="315" y="340" type="line"/>
      <point x="315" y="342"/>
      <point x="315" y="343" type="qcurve"/>
      <point x="315" y="344" type="line"/>
      <point x="315" y="346"/>
      <point x="315" y="347" type="qcurve"/>
      <point x="315" y="353" type="line"/>
      <point x="315" y="354"/>
      <point x="315" y="355" type="qcurve"/>
      <point x="315" y="360" type="line"/>
      <point x="315" y="361"/>
      <point x="315" y="361" type="qcurve"/>
      <point x="315" y="396" type="line" smooth="yes"/>
      <point x="315" y="427"/>
      <point x="312" y="491"/>
      <point x="306" y="553"/>
      <point x="301" y="577" type="qcurve" smooth="yes"/>
      <point x="293" y="614"/>
      <point x="262" y="655"/>
    </contour>
  </outline>
</glyph>
<glyph name="one" format="2">
  <advance width="454"/>
  <unicode hex="0031"/>
  <outline>
    <contour>
      <point x="305" y="667" type="line"/>
      <point x="305" y="17" type="line"/>
      <point x="377" y="17" type="line"/>
      <point x="377" y="0" type="line"/>
      <point x="138" y="0" type="line"/>
      <point x="138" y="5"/>
      <point x="137" y="13"/>
      <point x="137" y="17" type="qcurve"/>
      <point x="211" y="17" type="line"/>
      <point x="210" y="580" type="line"/>
      <point x="181" y="560"/>
      <point x="111" y="509"/>
      <point x="81" y="489" type="qcurve"/>
      <point x="81" y="511" type="line"/>
      <point x="129" y="546"/>
      <point x="221" y="625"/>
      <point x="263" y="667" type="qcurve"/>
    </contour>
  </outline>
</glyph>
<glyph name="two" format="2">
  <advance width="454"/>
  <unicode hex="0032"/>
  <outline>
    <contour>
      <point x="400" y="185" type="line"/>
      <point x="415" y="185" type="line"/>
      <point x="409" y="145"/>
      <point x="402" y="73"/>
      <point x="398" y="33" type="qcurve"/>
      <point x="398" y="25"/>
      <point x="395" y="8"/>
      <point x="394" y="0" type="qcurve"/>
      <point x="26" y="0" type="line"/>
      <point x="33" y="30"/>
      <point x="59" y="79"/>
      <point x="91" y="122"/>
      <point x="128" y="161"/>
      <point x="148" y="181" type="qcurve" smooth="yes"/>
      <point x="175" y="209"/>
      <point x="226" y="268"/>
      <point x="267" y="338"/>
      <point x="292" y="424"/>
      <point x="292" y="480" type="qcurve" smooth="yes"/>
      <point x="292" y="512"/>
      <point x="279" y="574"/>
      <point x="251" y="622"/>
      <point x="208" y="652"/>
      <point x="178" y="652" type="qcurve" smooth="yes"/>
      <point x="160" y="652"/>
      <point x="118" y="634"/>
      <point x="83" y="602"/>
      <point x="60" y="558"/>
      <point x="60" y="533" type="qcurve" smooth="yes"/>
      <point x="60" y="516"/>
      <point x="68" y="511"/>
      <point x="73" y="511" type="qcurve"/>
      <point x="75" y="511"/>
      <point x="77" y="511" type="qcurve"/>
      <point x="83" y="511" type="line" smooth="yes"/>
      <point x="103" y="511"/>
      <point x="127" y="489"/>
      <point x="127" y="463" type="qcurve" smooth="yes"/>
      <point x="127" y="442"/>
      <point x="104" y="414"/>
      <point x="87" y="414" type="qcurve" smooth="yes"/>
      <point x="73" y="414"/>
      <point x="54" y="429"/>
      <point x="41" y="453"/>
      <point x="35" y="482"/>
      <point x="35" y="496" type="qcurve" smooth="yes"/>
      <point x="35" y="539"/>
      <point x="64" y="605"/>
      <point x="112" y="649"/>
      <point x="174" y="671"/>
      <point x="207" y="671" type="qcurve" smooth="yes"/>
      <point x="243" y="671"/>
      <point x="312" y="648"/>
      <point x="366" y="601"/>
      <point x="399" y="531"/>
      <point x="399" y="484" type="qcurve" smooth="yes"/>
      <point x="399" y="436"/>
      <point x="367" y="359"/>
      <point x="315" y="295"/>
      <point x="250" y="239"/>
      <point x="217" y="212" type="qcurve" smooth="yes"/>
      <point x="186" y="187"/>
      <point x="127" y="136"/>
      <point x="98" y="101" type="qcurve"/>
      <point x="385" y="100" type="line"/>
    </contour>
  </outline>
</glyph>
<glyph name="three" format="2">
  <advance width="454"/>
  <unicode hex="0033"/>
  <outline>
    <contour>
      <point x="93" y="367" type="qcurve"/>
      <point x="94" y="372"/>
      <point x="94" y="382" type="qcurve"/>
      <point x="109" y="382" type="line" smooth="yes"/>
      <point x="145" y="382"/>
      <point x="212" y="386"/>
      <point x="264" y="414"/>
      <point x="295" y="474"/>
      <point x="295" y="530" type="qcurve" smooth="yes"/>
      <point x="295" y="585"/>
      <point x="247" y="654"/>
      <point x="199" y="654" type="qcurve" smooth="yes"/>
      <point x="188" y="654"/>
      <point x="155" y="646"/>
      <point x="123" y="630"/>
      <point x="98" y="606"/>
      <point x="97" y="591" type="qcurve"/>
      <point x="99" y="579" type="line"/>
      <point x="115" y="582" type="line"/>
      <point x="131" y="575"/>
      <point x="149" y="559"/>
      <point x="149" y="539" type="qcurve" smooth="yes"/>
      <point x="149" y="520"/>
      <point x="125" y="493"/>
      <point x="110" y="493" type="qcurve" smooth="yes"/>
      <point x="91" y="493"/>
      <point x="69" y="528"/>
      <point x="69" y="550" type="qcurve" smooth="yes"/>
      <point x="69" y="583"/>
      <point x="98" y="629"/>
      <point x="142" y="658"/>
      <point x="194" y="671"/>
      <point x="217" y="671" type="qcurve" smooth="yes"/>
      <point x="244" y="671"/>
      <point x="306" y="655"/>
      <point x="359" y="621"/>
      <point x="393" y="566"/>
      <point x="393" y="526" type="qcurve" smooth="yes"/>
      <point x="393" y="494"/>
      <point x="372" y="446"/>
      <point x="337" y="411"/>
      <point x="289" y="385"/>
      <point x="262" y="375" type="qcurve"/>
      <point x="293" y="364"/>
      <point x="350" y="333"/>
      <point x="392" y="290"/>
      <point x="417" y="233"/>
      <point x="417" y="194" type="qcurve" smooth="yes"/>
      <point x="417" y="144"/>
      <point x="374" y="69"/>
      <point x="308" y="19"/>
      <point x="229" y="-6"/>
      <point x="193" y="-6" type="qcurve" smooth="yes"/>
      <point x="169" y="-6"/>
      <point x="113" y="6"/>
      <point x="65" y="35"/>
      <point x="32" y="82"/>
      <point x="32" y="117" type="qcurve" smooth="yes"/>
      <point x="32" y="146"/>
      <point x="58" y="191"/>
      <point x="84" y="191" type="qcurve" smooth="yes"/>
      <point x="102" y="191"/>
      <point x="125" y="163"/>
      <point x="125" y="142" type="qcurve" smooth="yes"/>
      <point x="125" y="115"/>
      <point x="96" y="94"/>
      <point x="82" y="94" type="qcurve" smooth="yes"/>
      <point x="75" y="94"/>
      <point x="68" y="96" type="qcurve"/>
      <point x="60" y="86" type="line"/>
      <point x="61" y="63"/>
      <point x="92" y="35"/>
      <point x="134" y="19"/>
      <point x="176" y="13"/>
      <point x="188" y="13" type="qcurve" smooth="yes"/>
      <point x="215" y="13"/>
      <point x="260" y="43"/>
      <point x="291" y="91"/>
      <point x="308" y="151"/>
      <point x="308" y="181" type="qcurve" smooth="yes"/>
      <point x="308" y="247"/>
      <point x="273" y="322"/>
      <point x="214" y="359"/>
      <point x="136" y="367"/>
    </contour>
  </outline>
</glyph>
<glyph name="five" format="2">
  <advance width="454"/>
  <unicode hex="0035"/>
  <outline>
    <contour>
      <point x="68" y="357" type="line"/>
      <point x="83" y="421"/>
      <point x="83" y="490" type="qcurve" smooth="yes"/>
      <point x="83" y="511"/>
      <point x="78" y="554"/>
      <point x="76" y="575" type="qcurve"/>
      <point x="73" y="595"/>
      <point x="69" y="633"/>
      <point x="69" y="650" type="qcurve" smooth="yes"/>
      <point x="69" y="658"/>
      <point x="96" y="667"/>
      <point x="132" y="672"/>
      <point x="166" y="673"/>
      <point x="172" y="673" type="qcurve" smooth="yes"/>
      <point x="192" y="673"/>
      <point x="233" y="668"/>
      <point x="253" y="664" type="qcurve"/>
      <point x="274" y="661"/>
      <point x="314" y="655"/>
      <point x="335" y="655" type="qcurve" smooth="yes"/>
      <point x="344" y="655"/>
      <point x="349" y="675"/>
      <point x="349" y="683" type="qcurve"/>
      <point x="363" y="683" type="line"/>
      <point x="363" y="666" type="line" smooth="yes"/>
      <point x="363" y="617"/>
      <point x="313" y="555"/>
      <point x="271" y="555" type="qcurve" smooth="yes"/>
      <point x="257" y="555"/>
      <point x="227" y="559"/>
      <point x="212" y="562" type="qcurve" smooth="yes"/>
      <point x="197" y="565"/>
      <point x="166" y="570"/>
      <point x="150" y="570" type="qcurve" smooth="yes"/>
      <point x="138" y="570"/>
      <point x="112" y="563"/>
      <point x="97" y="555" type="qcurve"/>
      <point x="98" y="545"/>
      <point x="99" y="522"/>
      <point x="99" y="512" type="qcurve" smooth="yes"/>
      <point x="99" y="499"/>
      <point x="96" y="471"/>
      <point x="95" y="457" type="qcurve" smooth="yes"/>
      <point x="93" y="443"/>
      <point x="91" y="415"/>
      <point x="91" y="400" type="qcurve" smooth="yes"/>
      <point x="91" y="385" type="line"/>
      <point x="147" y="413"/>
      <point x="200" y="413" type="qcurve" smooth="yes"/>
      <point x="239" y="413"/>
      <point x="318" y="389"/>
      <point x="381" y="338"/>
      <point x="421" y="261"/>
      <point x="421" y="208" type="qcurve" smooth="yes"/>
      <point x="421" y="148"/>
      <point x="380" y="66"/>
      <point x="313" y="16"/>
      <point x="229" y="-6"/>
      <point x="187" y="-6" type="qcurve" smooth="yes"/>
      <point x="161" y="-6"/>
      <point x="106" y="8"/>
      <point x="61" y="40"/>
      <point x="32" y="90"/>
      <point x="32" y="126" type="qcurve" smooth="yes"/>
      <point x="32" y="152"/>
      <point x="58" y="192"/>
      <point x="81" y="192" type="qcurve" smooth="yes"/>
      <point x="98" y="192"/>
      <point x="122" y="166"/>
      <point x="122" y="146" type="qcurve" smooth="yes"/>
      <point x="122" y="118"/>
      <point x="91" y="104"/>
      <point x="72" y="104" type="qcurve" smooth="yes"/>
      <point x="64" y="104"/>
      <point x="60" y="92"/>
      <point x="60" y="84" type="qcurve" smooth="yes"/>
      <point x="60" y="63"/>
      <point x="89" y="34"/>
      <point x="128" y="17"/>
      <point x="170" y="10"/>
      <point x="182" y="10" type="qcurve" smooth="yes"/>
      <point x="215" y="10"/>
      <point x="264" y="42"/>
      <point x="297" y="95"/>
      <point x="313" y="163"/>
      <point x="313" y="200" type="qcurve" smooth="yes"/>
      <point x="313" y="237"/>
      <point x="300" y="307"/>
      <point x="270" y="361"/>
      <point x="221" y="394"/>
      <point x="185" y="394" type="qcurve" smooth="yes"/>
      <point x="155" y="394"/>
      <point x="101" y="374"/>
      <point x="77" y="351" type="qcurve"/>
    </contour>
  </outline>
</glyph>
<glyph name="six" format="2">
  <advance width="454"/>
  <unicode hex="0036"/>
  <outline>
    <contour>
      <point x="380" y="670" type="line"/>
      <point x="326" y="655"/>
      <point x="246" y="607"/>
      <point x="220" y="575" type="qcurve" smooth="yes"/>
      <point x="166" y="508"/>
      <point x="150" y="390" type="qcurve"/>
      <point x="204" y="423"/>
      <point x="247" y="423" type="qcurve" smooth="yes"/>
      <point x="323" y="423"/>
      <point x="373" y="367" type="qcurve"/>
      <point x="422" y="309"/>
      <point x="422" y="222" type="qcurve" smooth="yes"/>
      <point x="422" y="129"/>
      <point x="365" y="62" type="qcurve"/>
      <point x="311" y="-5"/>
      <point x="232" y="-5" type="qcurve" smooth="yes"/>
      <point x="147" y="-5"/>
      <point x="94" y="70" type="qcurve"/>
      <point x="37" y="143"/>
      <point x="37" y="259" type="qcurve" smooth="yes"/>
      <point x="37" y="338"/>
      <point x="68" y="420" type="qcurve"/>
      <point x="82" y="462"/>
      <point x="131" y="536"/>
      <point x="165" y="573" type="qcurve"/>
      <point x="228" y="645"/>
      <point x="378" y="684" type="qcurve"/>
    </contour>
    <contour>
      <point x="235" y="10" type="qcurve" smooth="yes"/>
      <point x="274" y="10"/>
      <point x="329" y="107"/>
      <point x="332" y="215" type="qcurve"/>
      <point x="326" y="399"/>
      <point x="237" y="404" type="qcurve"/>
      <point x="175" y="404"/>
      <point x="154" y="345" type="qcurve"/>
      <point x="146" y="318"/>
      <point x="134" y="252"/>
      <point x="134" y="217" type="qcurve"/>
      <point x="138" y="107"/>
      <point x="183" y="10"/>
    </contour>
  </outline>
</glyph>
<glyph name="seven" format="2">
  <advance width="454"/>
  <unicode hex="0037"/>
  <outline>
    <contour>
      <point x="32" y="506" type="line"/>
      <point x="36" y="538"/>
      <point x="41" y="597"/>
      <point x="44" y="629" type="qcurve" smooth="yes"/>
      <point x="45" y="639"/>
      <point x="48" y="658"/>
      <point x="49" y="667" type="qcurve"/>
      <point x="436" y="667" type="line"/>
      <point x="326" y="396" type="line"/>
      <point x="327" y="396" type="line"/>
      <point x="321" y="382"/>
      <point x="302" y="333"/>
      <point x="279" y="273"/>
      <point x="256" y="208"/>
      <point x="237" y="148"/>
      <point x="225" y="99"/>
      <point x="225" y="86" type="qcurve" smooth="yes"/>
      <point x="225" y="76"/>
      <point x="232" y="76" type="qcurve"/>
      <point x="234" y="76"/>
      <point x="240" y="78" type="qcurve"/>
      <point x="245" y="82"/>
      <point x="252" y="82" type="qcurve" smooth="yes"/>
      <point x="268" y="82"/>
      <point x="289" y="56"/>
      <point x="289" y="38" type="qcurve" smooth="yes"/>
      <point x="289" y="-6"/>
      <point x="251" y="-6" type="qcurve" smooth="yes"/>
      <point x="225" y="-6"/>
      <point x="203" y="40"/>
      <point x="203" y="68" type="qcurve" smooth="yes"/>
      <point x="203" y="89"/>
      <point x="220" y="167"/>
      <point x="248" y="263"/>
      <point x="281" y="368"/>
      <point x="314" y="464"/>
      <point x="341" y="542"/>
      <point x="349" y="563" type="qcurve"/>
      <point x="66" y="563" type="line"/>
      <point x="58" y="553"/>
      <point x="50" y="521"/>
      <point x="47" y="508" type="qcurve"/>
      <point x="47" y="506" type="line"/>
    </contour>
  </outline>
</glyph>
<glyph name="eight" format="2">
  <advance width="454"/>
  <unicode hex="0038"/>
  <outline>
    <contour>
      <point x="188" y="364" type="line"/>
      <point x="165" y="372"/>
      <point x="120" y="397"/>
      <point x="83" y="432"/>
      <point x="60" y="479"/>
      <point x="60" y="511" type="qcurve" smooth="yes"/>
      <point x="60" y="551"/>
      <point x="91" y="611"/>
      <point x="141" y="650"/>
      <point x="202" y="670"/>
      <point x="232" y="670" type="qcurve" smooth="yes"/>
      <point x="261" y="670"/>
      <point x="320" y="651"/>
      <point x="367" y="613"/>
      <point x="397" y="555"/>
      <point x="397" y="515" type="qcurve" smooth="yes"/>
      <point x="397" y="483"/>
      <point x="371" y="434"/>
      <point x="329" y="396"/>
      <point x="278" y="368"/>
      <point x="253" y="358" type="qcurve"/>
      <point x="282" y="346"/>
      <point x="343" y="313"/>
      <point x="392" y="268"/>
      <point x="424" y="210"/>
      <point x="424" y="172" type="qcurve" smooth="yes"/>
      <point x="424" y="126"/>
      <point x="387" y="59"/>
      <point x="330" y="15"/>
      <point x="259" y="-6"/>
      <point x="226" y="-6" type="qcurve" smooth="yes"/>
      <point x="193" y="-6"/>
      <point x="124" y="13"/>
      <point x="69" y="53"/>
      <point x="33" y="118"/>
      <point x="33" y="164" type="qcurve" smooth="yes"/>
      <point x="33" y="203"/>
      <point x="61" y="262"/>
      <point x="106" y="307"/>
      <point x="162" y="339"/>
      <point x="189" y="351" type="qcurve"/>
    </contour>
    <contour>
      <point x="232" y="365" type="qcurve" smooth="yes"/>
      <point x="257" y="365"/>
      <point x="285" y="396"/>
      <point x="299" y="442"/>
      <point x="302" y="495"/>
      <point x="302" y="517" type="qcurve" smooth="yes"/>
      <point x="302" y="538"/>
      <point x="297" y="586"/>
      <point x="282" y="627"/>
      <point x="254" y="655"/>
      <point x="232" y="655" type="qcurve" smooth="yes"/>
      <point x="208" y="655"/>
      <point x="176" y="630"/>
      <point x="158" y="590"/>
      <point x="151" y="541"/>
      <point x="151" y="517" type="qcurve" smooth="yes"/>
      <point x="151" y="491"/>
      <point x="155" y="438"/>
      <point x="171" y="393"/>
      <point x="203" y="365"/>
    </contour>
    <contour>
      <point x="230" y="349" type="qcurve" smooth="yes"/>
      <point x="197" y="349"/>
      <point x="158" y="317"/>
      <point x="137" y="266"/>
      <point x="131" y="203"/>
      <point x="131" y="173" type="qcurve" smooth="yes"/>
      <point x="131" y="140"/>
      <point x="138" y="81"/>
      <point x="159" y="36"/>
      <point x="199" y="9"/>
      <point x="232" y="9" type="qcurve" smooth="yes"/>
      <point x="262" y="9"/>
      <point x="299" y="35"/>
      <point x="321" y="78"/>
      <point x="329" y="135"/>
      <point x="329" y="165" type="qcurve" smooth="yes"/>
      <point x="329" y="195"/>
      <point x="323" y="260"/>
      <point x="303" y="314"/>
      <point x="264" y="349"/>
    </contour>
  </outline>
</glyph>
<glyph name="nine" format="2">
  <advance width="454"/>
  <unicode hex="0039"/>
  <outline>
    <contour>
      <point x="77" y="-5" type="line"/>
      <point x="132" y="10"/>
      <point x="211" y="58"/>
      <point x="237" y="90" type="qcurve" smooth="yes"/>
      <point x="263" y="122"/>
      <point x="298" y="214"/>
      <point x="306" y="274" type="qcurve"/>
      <point x="253" y="242"/>
      <point x="210" y="242" type="qcurve" smooth="yes"/>
      <point x="134" y="242"/>
      <point x="83" y="298" type="qcurve"/>
      <point x="59" y="327"/>
      <point x="34" y="398"/>
      <point x="34" y="443" type="qcurve" smooth="yes"/>
      <point x="34" y="534"/>
      <point x="91" y="603" type="qcurve" smooth="yes"/>
      <point x="146" y="670"/>
      <point x="224" y="670" type="qcurve" smooth="yes"/>
      <point x="309" y="670"/>
      <point x="363" y="595" type="qcurve" smooth="yes"/>
      <point x="419" y="519"/>
      <point x="419" y="406" type="qcurve" smooth="yes"/>
      <point x="419" y="322"/>
      <point x="358" y="166"/>
      <point x="291" y="92" type="qcurve" smooth="yes"/>
      <point x="224" y="20"/>
      <point x="80" y="-19" type="qcurve"/>
    </contour>
    <contour>
      <point x="222" y="655" type="qcurve" smooth="yes"/>
      <point x="182" y="655"/>
      <point x="128" y="558"/>
      <point x="124" y="450" type="qcurve"/>
      <point x="131" y="266"/>
      <point x="219" y="261" type="qcurve"/>
      <point x="282" y="261"/>
      <point x="302" y="320" type="qcurve"/>
      <point x="312" y="346"/>
      <point x="322" y="407"/>
      <point x="322" y="437" type="qcurve" smooth="yes"/>
      <point x="322" y="442"/>
      <point x="322" y="448" type="qcurve"/>
      <point x="318" y="558"/>
      <point x="273" y="655"/>
    </contour>
  </outline>
</glyph>
<glyph name="colon" format="2">
  <advance width="208"/>
  <unicode hex="003A"/>
  <outline>
    <contour>
      <point x="104" y="359" type="qcurve" smooth="yes"/>
      <point x="121" y="359"/>
      <point x="146" y="330"/>
      <point x="146" y="309" type="qcurve" smooth="yes"/>
      <point x="146" y="286"/>
      <point x="121" y="257"/>
      <point x="103" y="257" type="qcurve" smooth="yes"/>
      <point x="86" y="257"/>
      <point x="61" y="287"/>
      <point x="61" y="309" type="qcurve" smooth="yes"/>
      <point x="61" y="330"/>
      <point x="87" y="359"/>
    </contour>
    <contour>
      <point x="105" y="94" type="qcurve" smooth="yes"/>
      <point x="122" y="94"/>
      <point x="148" y="64"/>
      <point x="148" y="43" type="qcurve" smooth="yes"/>
      <point x="148" y="20"/>
      <point x="123" y="-9"/>
      <point x="105" y="-9" type="qcurve" smooth="yes"/>
      <point x="87" y="-9"/>
      <point x="62" y="21"/>
      <point x="62" y="43" type="qcurve" smooth="yes"/>
      <point x="62" y="64"/>
      <point x="88" y="94"/>
    </contour>
  </outline>
</glyph>
<glyph name="semicolon" format="2">
  <advance width="209"/>
  <unicode hex="003B"/>
  <outline>
    <contour>
      <point x="98" y="359" type="qcurve" smooth="yes"/>
      <point x="115" y="359"/>
      <point x="140" y="330"/>
      <point x="140" y="309" type="qcurve" smooth="yes"/>
      <point x="140" y="286"/>
      <point x="115" y="257"/>
      <point x="97" y="257" type="qcurve" smooth="yes"/>
      <point x="79" y="257"/>
      <point x="55" y="287"/>
      <point x="55" y="309" type="qcurve" smooth="yes"/>
      <point x="55" y="330"/>
      <point x="81" y="359"/>
    </contour>
    <contour>
      <point x="90" y="-155" type="line"/>
      <point x="98" y="-145"/>
      <point x="117" y="-116"/>
      <point x="133" y="-83"/>
      <point x="143" y="-46"/>
      <point x="143" y="-26" type="qcurve" smooth="yes"/>
      <point x="143" y="-9"/>
      <point x="133" y="29"/>
      <point x="121" y="49" type="qcurve"/>
      <point x="114" y="43" type="line"/>
      <point x="118" y="32"/>
      <point x="118" y="24" type="qcurve" smooth="yes"/>
      <point x="118" y="13"/>
      <point x="102" y="-9"/>
      <point x="80" y="-9" type="qcurve" smooth="yes"/>
      <point x="63" y="-9"/>
      <point x="41" y="18"/>
      <point x="41" y="38" type="qcurve" smooth="yes"/>
      <point x="41" y="62"/>
      <point x="72" y="91"/>
      <point x="91" y="91" type="qcurve" smooth="yes"/>
      <point x="109" y="91"/>
      <point x="136" y="72"/>
      <point x="155" y="42"/>
      <point x="164" y="4"/>
      <point x="164" y="-15" type="qcurve" smooth="yes"/>
      <point x="164" y="-43"/>
      <point x="157" y="-85"/>
      <point x="141" y="-120"/>
      <point x="117" y="-152"/>
      <point x="100" y="-169" type="qcurve"/>
    </contour>
  </outline>
</glyph>
<glyph name="question" format="2">
  <advance width="330"/>
  <unicode hex="003F"/>
  <outline>
    <contour>
      <point x="112" y="194" type="qcurve" smooth="yes"/>
      <point x="112" y="184"/>
      <point x="114" y="166"/>
      <point x="116" y="156" type="qcurve"/>
      <point x="101" y="153" type="line"/>
      <point x="89" y="184"/>
      <point x="75" y="245"/>
      <point x="75" y="268" type="qcurve" smooth="yes"/>
      <point x="75" y="300"/>
      <point x="96" y="353"/>
      <point x="128" y="397"/>
      <point x="168" y="433"/>
      <point x="188" y="450" type="qcurve" smooth="yes"/>
      <point x="204" y="463"/>
      <point x="233" y="489"/>
      <point x="256" y="517"/>
      <point x="270" y="547"/>
      <point x="270" y="564" type="qcurve" smooth="yes"/>
      <point x="270" y="590"/>
      <point x="250" y="629"/>
      <point x="218" y="654"/>
      <point x="179" y="667"/>
      <point x="161" y="667" type="qcurve" smooth="yes"/>
      <point x="152" y="667"/>
      <point x="124" y="660"/>
      <point x="96" y="647"/>
      <point x="76" y="625"/>
      <point x="76" y="610" type="qcurve" smooth="yes"/>
      <point x="76" y="603"/>
      <point x="90" y="597"/>
      <point x="94" y="597" type="qcurve"/>
      <point x="129" y="590"/>
      <point x="129" y="550" type="qcurve" smooth="yes"/>
      <point x="129" y="530"/>
      <point x="107" y="505"/>
      <point x="90" y="505" type="qcurve" smooth="yes"/>
      <point x="79" y="505"/>
      <point x="63" y="517"/>
      <point x="52" y="537"/>
      <point x="46" y="560"/>
      <point x="46" y="572" type="qcurve" smooth="yes"/>
      <point x="46" y="598"/>
      <point x="67" y="640"/>
      <point x="100" y="669"/>
      <point x="141" y="684"/>
      <point x="161" y="684" type="qcurve" smooth="yes"/>
      <point x="222" y="684"/>
      <point x="297" y="594"/>
      <point x="297" y="520" type="qcurve" smooth="yes"/>
      <point x="297" y="502"/>
      <point x="294" y="464"/>
      <point x="288" y="446" type="qcurve" smooth="yes"/>
      <point x="273" y="400"/>
      <point x="213" y="336"/>
      <point x="186" y="313" type="qcurve" smooth="yes"/>
      <point x="171" y="301"/>
      <point x="145" y="276"/>
      <point x="124" y="248"/>
      <point x="112" y="215"/>
    </contour>
    <contour>
      <point x="127" y="159" type="line"/>
      <point x="119" y="149" type="line"/>
      <point x="116" y="156" type="line"/>
    </contour>
    <contour>
      <point x="117" y="92" type="qcurve" smooth="yes"/>
      <point x="134" y="92"/>
      <point x="159" y="62"/>
      <point x="159" y="41" type="qcurve" smooth="yes"/>
      <point x="159" y="18"/>
      <point x="133" y="-11"/>
      <point x="116" y="-11" type="qcurve" smooth="yes"/>
      <point x="98" y="-11"/>
      <point x="74" y="19"/>
      <point x="74" y="41" type="qcurve" smooth="yes"/>
      <point x="74" y="62"/>
      <point x="99" y="92"/>
    </contour>
  </outline>
</glyph>
<glyph name="at" format="2">
  <advance width="796"/>
  <unicode hex="0040"/>
  <outline>
    <contour>
      <point x="775" y="273" type="qcurve" smooth="yes"/>
      <point x="775" y="240"/>
      <point x="768" y="209" type="qcurve" smooth="yes"/>
      <point x="765" y="194"/>
      <point x="753" y="155"/>
      <point x="740" y="135" type="qcurve"/>
      <point x="731" y="117"/>
      <point x="714" y="103" type="qcurve" smooth="yes"/>
      <point x="700" y="90"/>
      <point x="654" y="68"/>
      <point x="621" y="64" type="qcurve" smooth="yes"/>
      <point x="597" y="61"/>
      <point x="565" y="60"/>
      <point x="562" y="60" type="qcurve" smooth="yes"/>
      <point x="536" y="60"/>
      <point x="487" y="70"/>
      <point x="449" y="96"/>
      <point x="446" y="122" type="qcurve"/>
      <point x="446" y="123" type="line"/>
      <point x="429" y="114"/>
      <point x="384" y="95"/>
      <point x="330" y="83"/>
      <point x="296" y="82"/>
      <point x="291" y="82" type="qcurve" smooth="yes"/>
      <point x="265" y="82"/>
      <point x="237" y="87" type="qcurve" smooth="yes"/>
      <point x="202" y="94"/>
      <point x="163" y="144"/>
      <point x="156" y="194"/>
      <point x="156" y="210" type="qcurve" smooth="yes"/>
      <point x="156" y="232"/>
      <point x="167" y="296"/>
      <point x="200" y="371"/>
      <point x="250" y="433"/>
      <point x="281" y="448" type="qcurve" smooth="yes"/>
      <point x="322" y="469"/>
      <point x="368" y="471"/>
      <point x="375" y="471" type="qcurve" smooth="yes"/>
      <point x="406" y="471"/>
      <point x="463" y="458"/>
      <point x="506" y="436"/>
      <point x="514" y="431" type="qcurve"/>
      <point x="514" y="433" type="line"/>
      <point x="515" y="434" type="line"/>
      <point x="612" y="441" type="line"/>
      <point x="548" y="171" type="line" smooth="yes"/>
      <point x="544" y="155"/>
      <point x="544" y="141" type="qcurve"/>
      <point x="544" y="139"/>
      <point x="544" y="136" type="qcurve"/>
      <point x="545" y="122"/>
      <point x="559" y="98"/>
      <point x="579" y="95" type="qcurve" smooth="yes"/>
      <point x="593" y="93"/>
      <point x="608" y="93" type="qcurve" smooth="yes"/>
      <point x="613" y="93"/>
      <point x="637" y="94"/>
      <point x="674" y="108"/>
      <point x="707" y="135"/>
      <point x="719" y="157" type="qcurve" smooth="yes"/>
      <point x="733" y="181"/>
      <point x="748" y="242"/>
      <point x="748" y="273" type="qcurve" smooth="yes"/>
      <point x="748" y="341"/>
      <point x="693" y="461"/>
      <point x="598" y="550"/>
      <point x="470" y="602"/>
      <point x="398" y="602" type="qcurve" smooth="yes"/>
      <point x="326" y="602"/>
      <point x="198" y="550"/>
      <point x="103" y="461"/>
      <point x="48" y="341"/>
      <point x="48" y="273" type="qcurve" smooth="yes"/>
      <point x="48" y="205"/>
      <point x="103" y="85"/>
      <point x="198" y="-4"/>
      <point x="326" y="-56"/>
      <point x="398" y="-56" type="qcurve" smooth="yes"/>
      <point x="480" y="-56"/>
      <point x="555" y="-21" type="qcurve"/>
      <point x="559" y="-19" type="line"/>
      <point x="563" y="-21" type="line"/>
      <point x="565" y="-23"/>
      <point x="571" y="-26"/>
      <point x="573" y="-28" type="qcurve"/>
      <point x="585" y="-35" type="line"/>
      <point x="573" y="-41" type="line"/>
      <point x="565" y="-44"/>
      <point x="552" y="-51"/>
      <point x="545" y="-53" type="qcurve"/>
      <point x="476" y="-81"/>
      <point x="398" y="-81" type="qcurve" smooth="yes"/>
      <point x="320" y="-81"/>
      <point x="251" y="-53" type="qcurve" smooth="yes"/>
      <point x="183" y="-26"/>
      <point x="131" y="23" type="qcurve" smooth="yes"/>
      <point x="80" y="71"/>
      <point x="51" y="135" type="qcurve" smooth="yes"/>
      <point x="21" y="201"/>
      <point x="21" y="273" type="qcurve" smooth="yes"/>
      <point x="21" y="345"/>
      <point x="51" y="411" type="qcurve" smooth="yes"/>
      <point x="80" y="475"/>
      <point x="131" y="523" type="qcurve" smooth="yes"/>
      <point x="183" y="572"/>
      <point x="251" y="599" type="qcurve" smooth="yes"/>
      <point x="320" y="627"/>
      <point x="398" y="627" type="qcurve" smooth="yes"/>
      <point x="476" y="627"/>
      <point x="545" y="599" type="qcurve" smooth="yes"/>
      <point x="613" y="572"/>
      <point x="665" y="523" type="qcurve" smooth="yes"/>
      <point x="718" y="473"/>
      <point x="746" y="411" type="qcurve" smooth="yes"/>
      <point x="775" y="344"/>
    </contour>
    <contour>
      <point x="308" y="114" type="qcurve" smooth="yes"/>
      <point x="317" y="112"/>
      <point x="327" y="112" type="qcurve" smooth="yes"/>
      <point x="334" y="112"/>
      <point x="363" y="116"/>
      <point x="403" y="130"/>
      <point x="437" y="145"/>
      <point x="446" y="150" type="qcurve"/>
      <point x="448" y="176"/>
      <point x="463" y="248"/>
      <point x="481" y="321"/>
      <point x="501" y="387"/>
      <point x="507" y="408" type="qcurve"/>
      <point x="450" y="433"/>
      <point x="410" y="434"/>
      <point x="409" y="434" type="qcurve"/>
      <point x="372" y="434"/>
      <point x="322" y="404"/>
      <point x="292" y="351"/>
      <point x="282" y="322" type="qcurve" smooth="yes"/>
      <point x="272" y="292"/>
      <point x="265" y="236"/>
      <point x="265" y="216" type="qcurve" smooth="yes"/>
      <point x="265" y="204"/>
      <point x="268" y="163"/>
      <point x="289" y="119"/>
    </contour>
  </outline>
</glyph>
<glyph name="B" format="2">
  <advance width="535"/>
  <unicode hex="0042"/>
  <outline>
    <contour>
      <point x="27" y="667" type="line"/>
      <point x="228" y="667" type="line" smooth="yes"/>
      <point x="265" y="667"/>
      <point x="353" y="661"/>
      <point x="429" y="630"/>
      <point x="480" y="565"/>
      <point x="480" y="506" type="qcurve" smooth="yes"/>
      <point x="480" y="447"/>
      <point x="419" y="370"/>
      <point x="371" y="357" type="qcurve"/>
      <point x="371" y="347" type="line"/>
      <point x="398" y="339"/>
      <point x="446" y="313"/>
      <point x="482" y="273"/>
      <point x="502" y="218"/>
      <point x="502" y="181" type="qcurve" smooth="yes"/>
      <point x="502" y="121"/>
      <point x="460" y="49"/>
      <point x="394" y="11"/>
      <point x="312" y="0"/>
      <point x="273" y="0" type="qcurve" smooth="yes"/>
      <point x="27" y="0" type="line"/>
      <point x="27" y="17" type="line"/>
      <point x="81" y="17" type="line"/>
      <point x="81" y="650" type="line"/>
      <point x="27" y="650" type="line"/>
    </contour>
    <contour>
      <point x="192" y="363" type="line"/>
      <point x="206" y="363" type="line" smooth="yes"/>
      <point x="234" y="363"/>
      <point x="292" y="372"/>
      <point x="340" y="402"/>
      <point x="370" y="456"/>
      <point x="370" y="501" type="qcurve" smooth="yes"/>
      <point x="370" y="536"/>
      <point x="345" y="593"/>
      <point x="305" y="633"/>
      <point x="254" y="654"/>
      <point x="227" y="654" type="qcurve" smooth="yes"/>
      <point x="219" y="654"/>
      <point x="202" y="651"/>
      <point x="192" y="649" type="qcurve"/>
    </contour>
    <contour>
      <point x="192" y="17" type="line"/>
      <point x="247" y="17" type="line" smooth="yes"/>
      <point x="308" y="17"/>
      <point x="384" y="100"/>
      <point x="384" y="174" type="qcurve" smooth="yes"/>
      <point x="384" y="229"/>
      <point x="356" y="297"/>
      <point x="305" y="334"/>
      <point x="235" y="347"/>
      <point x="192" y="347" type="qcurve"/>
    </contour>
  </outline>
</glyph>
<glyph name="D" format="2">
  <advance width="616"/>
  <unicode hex="0044"/>
  <outline>
    <contour>
      <point x="27" y="667" type="line"/>
      <point x="234" y="667" type="line" smooth="yes"/>
      <point x="304" y="667"/>
      <point x="430" y="635"/>
      <point x="525" y="558"/>
      <point x="581" y="428"/>
      <point x="581" y="331" type="qcurve" smooth="yes"/>
      <point x="581" y="236"/>
      <point x="528" y="109"/>
      <point x="437" y="33"/>
      <point x="316" y="0"/>
      <point x="247" y="0" type="qcurve" smooth="yes"/>
      <point x="27" y="0" type="line"/>
      <point x="27" y="17" type="line"/>
      <point x="84" y="17" type="line"/>
      <point x="84" y="649" type="line"/>
      <point x="27" y="649" type="line"/>
    </contour>
    <contour>
      <point x="202" y="649" type="line"/>
      <point x="202" y="17" type="line"/>
      <point x="274" y="17"/>
      <point x="372" y="56"/>
      <point x="432" y="136"/>
      <point x="458" y="257"/>
      <point x="458" y="339" type="qcurve" smooth="yes"/>
      <point x="458" y="406"/>
      <point x="430" y="520"/>
      <point x="373" y="603"/>
      <point x="286" y="650"/>
      <point x="227" y="650" type="qcurve"/>
    </contour>
  </outline>
</glyph>
<glyph name="E" format="2">
  <advance width="558"/>
  <unicode hex="0045"/>
  <outline>
    <contour>
      <point x="198" y="20" type="line"/>
      <point x="295" y="20" type="line" smooth="yes"/>
      <point x="341" y="20"/>
      <point x="420" y="25"/>
      <point x="478" y="58"/>
      <point x="512" y="130"/>
      <point x="512" y="197" type="qcurve"/>
      <point x="529" y="197" type="line"/>
      <point x="529" y="0" type="line"/>
      <point x="27" y="0" type="line"/>
      <point x="27" y="17" type="line"/>
      <point x="77" y="17" type="line"/>
      <point x="77" y="650" type="line"/>
      <point x="27" y="650" type="line"/>
      <point x="27" y="667" type="line"/>
      <point x="528" y="667" type="line"/>
      <point x="529" y="503" type="line"/>
      <point x="512" y="503" type="line"/>
      <point x="504" y="558"/>
      <point x="463" y="617"/>
      <point x="404" y="644"/>
      <point x="329" y="647"/>
      <point x="286" y="647" type="qcurve" smooth="yes"/>
      <point x="198" y="647" type="line"/>
      <point x="198" y="352" type="line"/>
      <point x="224" y="352" type="line" smooth="yes"/>
      <point x="255" y="352"/>
      <point x="302" y="356"/>
      <point x="334" y="378"/>
      <point x="350" y="425"/>
      <point x="351" y="467" type="qcurve"/>
      <point x="367" y="467" type="line"/>
      <point x="367" y="215" type="line"/>
      <point x="351" y="215" type="line"/>
      <point x="350" y="253"/>
      <point x="337" y="298"/>
      <point x="313" y="321"/>
      <point x="279" y="328"/>
      <point x="257" y="328" type="qcurve" smooth="yes"/>
      <point x="198" y="328" type="line"/>
    </contour>
  </outline>
</glyph>
<glyph name="G" format="2">
  <advance width="605"/>
  <unicode hex="0047"/>
  <outline>
    <contour>
      <point x="502" y="453" type="line"/>
      <point x="482" y="453" type="line"/>
      <point x="477" y="490"/>
      <point x="454" y="560"/>
      <point x="418" y="614"/>
      <point x="366" y="646"/>
      <point x="332" y="646" type="qcurve" smooth="yes"/>
      <point x="277" y="646"/>
      <point x="213" y="581"/>
      <point x="180" y="485"/>
      <point x="170" y="376"/>
      <point x="169" y="332" type="qcurve"/>
      <point x="169" y="323"/>
      <point x="169" y="313" type="qcurve" smooth="yes"/>
      <point x="169" y="293"/>
      <point x="172" y="236"/>
      <point x="184" y="167"/>
      <point x="205" y="101"/>
      <point x="239" y="50"/>
      <point x="287" y="19"/>
      <point x="319" y="19" type="qcurve" smooth="yes"/>
      <point x="364" y="19"/>
      <point x="428" y="73"/>
      <point x="428" y="133" type="qcurve" smooth="yes"/>
      <point x="428" y="299" type="line"/>
      <point x="369" y="299" type="line"/>
      <point x="369" y="316" type="line"/>
      <point x="603" y="316" type="line"/>
      <point x="603" y="299" type="line"/>
      <point x="545" y="299" type="line"/>
      <point x="543" y="5" type="line"/>
      <point x="531" y="31"/>
      <point x="512" y="45"/>
      <point x="502" y="45" type="qcurve" smooth="yes"/>
      <point x="499" y="45"/>
      <point x="484" y="42"/>
      <point x="455" y="26"/>
      <point x="437" y="20" type="qcurve"/>
      <point x="408" y="8"/>
      <point x="347" y="-9"/>
      <point x="314" y="-9" type="qcurve" smooth="yes"/>
      <point x="252" y="-9"/>
      <point x="152" y="39"/>
      <point x="80" y="127"/>
      <point x="41" y="248"/>
      <point x="41" y="322" type="qcurve" smooth="yes"/>
      <point x="41" y="391"/>
      <point x="80" y="519"/>
      <point x="152" y="616"/>
      <point x="251" y="674"/>
      <point x="311" y="674" type="qcurve" smooth="yes"/>
      <point x="335" y="674"/>
      <point x="375" y="658"/>
      <point x="411" y="639"/>
      <point x="443" y="623"/>
      <point x="460" y="623" type="qcurve" smooth="yes"/>
      <point x="474" y="623"/>
      <point x="482" y="642"/>
      <point x="483" y="656" type="qcurve"/>
      <point x="502" y="656" type="line"/>
    </contour>
  </outline>
</glyph>
<glyph name="S" format="2">
  <advance width="470"/>
  <unicode hex="0053"/>
  <outline>
    <contour>
      <point x="51" y="238" type="line"/>
      <point x="66" y="238" type="line"/>
      <point x="70" y="187"/>
      <point x="94" y="104"/>
      <point x="139" y="44"/>
      <point x="207" y="11"/>
      <point x="254" y="11" type="qcurve" smooth="yes"/>
      <point x="283" y="11"/>
      <point x="330" y="29"/>
      <point x="361" y="62"/>
      <point x="369" y="95"/>
      <point x="369" y="106" type="qcurve" smooth="yes"/>
      <point x="369" y="120"/>
      <point x="365" y="135" type="qcurve" smooth="yes"/>
      <point x="357" y="164"/>
      <point x="296" y="200"/>
      <point x="255" y="219" type="qcurve" smooth="yes"/>
      <point x="220" y="235"/>
      <point x="147" y="273"/>
      <point x="85" y="330"/>
      <point x="46" y="410"/>
      <point x="46" y="468" type="qcurve" smooth="yes"/>
      <point x="46" y="477"/>
      <point x="47" y="499"/>
      <point x="49" y="510" type="qcurve" smooth="yes"/>
      <point x="60" y="591"/>
      <point x="148" y="670"/>
      <point x="223" y="674" type="qcurve"/>
      <point x="226" y="674"/>
      <point x="229" y="674" type="qcurve" smooth="yes"/>
      <point x="267" y="674"/>
      <point x="321" y="647"/>
      <point x="339" y="634" type="qcurve"/>
      <point x="356" y="620"/>
      <point x="367" y="620" type="qcurve" smooth="yes"/>
      <point x="381" y="620"/>
      <point x="387" y="647"/>
      <point x="387" y="659" type="qcurve"/>
      <point x="403" y="659" type="line"/>
      <point x="403" y="458" type="line"/>
      <point x="386" y="458" type="line"/>
      <point x="379" y="502"/>
      <point x="355" y="575"/>
      <point x="316" y="626"/>
      <point x="260" y="654"/>
      <point x="221" y="654" type="qcurve" smooth="yes"/>
      <point x="195" y="654"/>
      <point x="147" y="640"/>
      <point x="112" y="611"/>
      <point x="95" y="569"/>
      <point x="95" y="544" type="qcurve" smooth="yes"/>
      <point x="95" y="539"/>
      <point x="95" y="533" type="qcurve"/>
      <point x="97" y="506"/>
      <point x="121" y="467"/>
      <point x="159" y="438"/>
      <point x="207" y="416"/>
      <point x="233" y="406" type="qcurve" smooth="yes"/>
      <point x="266" y="393"/>
      <point x="333" y="360"/>
      <point x="390" y="311"/>
      <point x="429" y="241"/>
      <point x="434" y="191" type="qcurve"/>
      <point x="434" y="185"/>
      <point x="434" y="179" type="qcurve" smooth="yes"/>
      <point x="434" y="140"/>
      <point x="409" y="70"/>
      <point x="360" y="16"/>
      <point x="291" y="-13"/>
      <point x="251" y="-13" type="qcurve" smooth="yes"/>
      <point x="212" y="-13"/>
      <point x="152" y="10"/>
      <point x="130" y="21" type="qcurve"/>
      <point x="118" y="28"/>
      <point x="97" y="37"/>
      <point x="87" y="37" type="qcurve" smooth="yes"/>
      <point x="76" y="37"/>
      <point x="67" y="5"/>
      <point x="66" y="-7" type="qcurve"/>
      <point x="51" y="-7" type="line"/>
    </contour>
  </outline>
</glyph>
<glyph name="W" format="2">
  <advance width="735"/>
  <unicode hex="0057"/>
  <outline>
    <contour>
      <point x="-13" y="667" type="line"/>
      <point x="547" y="667" type="line"/>
      <point x="547" y="650" type="line"/>
      <point x="516" y="650"/>
      <point x="479" y="640"/>
      <point x="457" y="617"/>
      <point x="443" y="579"/>
      <point x="436" y="551" type="qcurve" smooth="yes"/>
      <point x="420" y="491" type="line"/>
      <point x="511" y="168" type="line"/>
      <point x="518" y="188"/>
      <point x="537" y="244"/>
      <point x="544" y="265" type="qcurve" smooth="yes"/>
      <point x="554" y="295"/>
      <point x="578" y="368"/>
      <point x="603" y="442"/>
      <point x="625" y="513"/>
      <point x="643" y="572"/>
      <point x="653" y="613"/>
      <point x="653" y="620" type="qcurve" smooth="yes"/>
      <point x="653" y="632"/>
      <point x="638" y="645"/>
      <point x="617" y="650"/>
      <point x="607" y="650" type="qcurve" smooth="yes"/>
      <point x="604" y="650" type="line"/>
      <point x="604" y="650"/>
      <point x="603" y="650" type="qcurve"/>
      <point x="601" y="650" type="line"/>
      <point x="600" y="650"/>
      <point x="599" y="650" type="qcurve"/>
      <point x="588" y="650" type="line"/>
      <point x="588" y="667" type="line"/>
      <point x="766" y="667" type="line"/>
      <point x="766" y="650" type="line"/>
      <point x="736" y="650"/>
      <point x="704" y="647"/>
      <point x="685" y="632"/>
      <point x="672" y="599"/>
      <point x="662" y="570" type="qcurve" smooth="yes"/>
      <point x="471" y="-23" type="line"/>
      <point x="455" y="-23" type="line"/>
      <point x="361" y="305" type="line"/>
      <point x="268" y="-23" type="line"/>
      <point x="262" y="-23"/>
      <point x="249" y="-24"/>
      <point x="244" y="-24" type="qcurve"/>
      <point x="37" y="650" type="line"/>
      <point x="-13" y="650" type="line"/>
    </contour>
    <contour>
      <point x="349" y="332" type="line"/>
      <point x="251" y="650" type="line"/>
      <point x="149" y="650" type="line"/>
      <point x="297" y="157" type="line"/>
    </contour>
    <contour>
      <point x="411" y="516" type="line"/>
      <point x="412" y="518"/>
      <point x="421" y="550"/>
      <point x="432" y="588"/>
      <point x="441" y="622"/>
      <point x="441" y="626" type="qcurve" smooth="yes"/>
      <point x="441" y="635"/>
      <point x="432" y="644"/>
      <point x="419" y="649"/>
      <point x="406" y="650"/>
      <point x="402" y="650" type="qcurve" smooth="yes"/>
      <point x="373" y="650" type="line"/>
    </contour>
  </outline>
</glyph>
<glyph name="grave" format="2">
  <advance width="225"/>
  <unicode hex="0060"/>
  <outline>
    <contour>
      <point x="204" y="461" type="line"/>
      <point x="188" y="450" type="line"/>
      <point x="156" y="478"/>
      <point x="128" y="504" type="qcurve" smooth="yes"/>
      <point x="104" y="526"/>
      <point x="55" y="567"/>
      <point x="43" y="576" type="qcurve" smooth="yes"/>
      <point x="23" y="590"/>
      <point x="19" y="607"/>
      <point x="19" y="610" type="qcurve" smooth="yes"/>
      <point x="19" y="624"/>
      <point x="28" y="647" type="qcurve"/>
      <point x="34" y="657"/>
      <point x="48" y="660"/>
      <point x="53" y="660" type="qcurve" smooth="yes"/>
      <point x="59" y="660"/>
      <point x="76" y="656"/>
      <point x="97" y="645"/>
      <point x="105" y="641" type="qcurve"/>
    </contour>
  </outline>
</glyph>
<glyph name="a" format="2">
  <advance width="536"/>
  <unicode hex="0061"/>
  <outline>
    <contour>
      <point x="-5" y="17" type="line"/>
      <point x="17" y="17"/>
      <point x="45" y="23"/>
      <point x="63" y="39"/>
      <point x="75" y="70"/>
      <point x="83" y="94" type="qcurve"/>
      <point x="126" y="240"/>
      <point x="214" y="531"/>
      <point x="258" y="677" type="qcurve"/>
      <point x="292" y="677" type="line"/>
      <point x="505" y="17" type="line"/>
      <point x="549" y="17" type="line"/>
      <point x="549" y="0" type="line"/>
      <point x="310" y="0" type="line"/>
      <point x="310" y="17" type="line"/>
      <point x="377" y="17" type="line"/>
      <point x="313" y="218" type="line"/>
      <point x="139" y="218" type="line"/>
      <point x="132" y="198" type="line" smooth="yes"/>
      <point x="127" y="183"/>
      <point x="113" y="137"/>
      <point x="100" y="91"/>
      <point x="90" y="53"/>
      <point x="90" y="46" type="qcurve" smooth="yes"/>
      <point x="90" y="34"/>
      <point x="109" y="22"/>
      <point x="135" y="17"/>
      <point x="162" y="17"/>
      <point x="170" y="17" type="qcurve"/>
      <point x="172" y="17" type="line"/>
      <point x="172" y="0" type="line"/>
      <point x="-5" y="0" type="line"/>
    </contour>
    <contour>
      <point x="144" y="235" type="line"/>
      <point x="308" y="235" type="line"/>
      <point x="224" y="497" type="line"/>
    </contour>
  </outline>
</glyph>
<glyph name="j" format="2">
  <advance width="318"/>
  <unicode hex="006A"/>
  <outline>
    <contour>
      <point x="301" y="650" type="line"/>
      <point x="238" y="650" type="line"/>
      <point x="238" y="111" type="line" smooth="yes"/>
      <point x="238" y="72"/>
      <point x="224" y="6"/>
      <point x="193" y="-42"/>
      <point x="144" y="-70"/>
      <point x="110" y="-70" type="qcurve" smooth="yes"/>
      <point x="94" y="-70"/>
      <point x="62" y="-60"/>
      <point x="37" y="-40"/>
      <point x="22" y="-9"/>
      <point x="22" y="12" type="qcurve" smooth="yes"/>
      <point x="22" y="35"/>
      <point x="45" y="70"/>
      <point x="66" y="70" type="qcurve" smooth="yes"/>
      <point x="81" y="70"/>
      <point x="98" y="44"/>
      <point x="98" y="24" type="qcurve" smooth="yes"/>
      <point x="98" y="4"/>
      <point x="75" y="-13"/>
      <point x="55" y="-22" type="qcurve"/>
      <point x="82" y="-51"/>
      <point x="105" y="-51" type="qcurve" smooth="yes"/>
      <point x="123" y="-51"/>
      <point x="148" y="-21"/>
      <point x="148" y="11" type="qcurve" smooth="yes"/>
      <point x="148" y="22"/>
      <point x="142" y="44"/>
      <point x="137" y="56" type="qcurve" smooth="yes"/>
      <point x="131" y="71"/>
      <point x="122" y="107"/>
      <point x="122" y="124" type="qcurve" smooth="yes"/>
      <point x="122" y="650" type="line"/>
      <point x="54" y="650" type="line"/>
      <point x="54" y="667" type="line"/>
      <point x="301" y="667" type="line"/>
    </contour>
  </outline>
</glyph>
<glyph name="m" format="2">
  <advance width="714"/>
  <unicode hex="006D"/>
  <outline>
    <contour>
      <point x="21" y="0" type="line"/>
      <point x="21" y="18" type="line"/>
      <point x="33" y="18" type="line" smooth="yes"/>
      <point x="38" y="18"/>
      <point x="43" y="18" type="qcurve" smooth="yes"/>
      <point x="62" y="18"/>
      <point x="97" y="25"/>
      <point x="100" y="52" type="qcurve" smooth="yes"/>
      <point x="101" y="61"/>
      <point x="103" y="118"/>
      <point x="104" y="199"/>
      <point x="104" y="249" type="qcurve" smooth="yes"/>
      <point x="104" y="252"/>
      <point x="104" y="255" type="qcurve" smooth="yes"/>
      <point x="104" y="270" type="line" smooth="yes"/>
      <point x="104" y="274"/>
      <point x="104" y="279" type="qcurve" smooth="yes"/>
      <point x="104" y="295" type="line"/>
      <point x="104" y="296"/>
      <point x="104" y="298" type="qcurve"/>
      <point x="104" y="333" type="line"/>
      <point x="104" y="335"/>
      <point x="104" y="336" type="qcurve"/>
      <point x="104" y="349" type="line" smooth="yes"/>
      <point x="104" y="404"/>
      <point x="103" y="511"/>
      <point x="102" y="595"/>
      <point x="99" y="648"/>
      <point x="97" y="650" type="qcurve"/>
      <point x="24" y="650" type="line"/>
      <point x="24" y="667" type="line"/>
      <point x="217" y="667" type="line"/>
      <point x="374" y="216" type="line"/>
      <point x="530" y="667" type="line"/>
      <point x="694" y="667" type="line"/>
      <point x="694" y="650" type="line"/>
      <point x="640" y="650" type="line"/>
      <point x="640" y="17" type="line"/>
      <point x="694" y="17" type="line"/>
      <point x="694" y="0" type="line"/>
      <point x="463" y="0" type="line"/>
      <point x="463" y="18" type="line"/>
      <point x="519" y="18" type="line"/>
      <point x="520" y="552" type="line"/>
      <point x="512" y="554" type="line"/>
      <point x="466" y="418"/>
      <point x="373" y="147"/>
      <point x="325" y="11" type="qcurve"/>
      <point x="129" y="566" type="line"/>
      <point x="121" y="564" type="line"/>
      <point x="121" y="107" type="line" smooth="yes"/>
      <point x="121" y="103"/>
      <point x="121" y="100" type="qcurve" smooth="yes"/>
      <point x="121" y="97" type="line"/>
      <point x="121" y="95"/>
      <point x="121" y="93" type="qcurve"/>
      <point x="121" y="89" type="line"/>
      <point x="121" y="88"/>
      <point x="121" y="87" type="qcurve"/>
      <point x="121" y="86" type="line"/>
      <point x="121" y="85"/>
      <point x="121" y="85" type="qcurve"/>
      <point x="121" y="72" type="line"/>
      <point x="121" y="71"/>
      <point x="121" y="71" type="qcurve"/>
      <point x="121" y="68" type="line" smooth="yes"/>
      <point x="121" y="56"/>
      <point x="123" y="48" type="qcurve"/>
      <point x="124" y="36"/>
      <point x="140" y="23"/>
      <point x="163" y="17"/>
      <point x="176" y="17" type="qcurve" smooth="yes"/>
      <point x="181" y="17" type="line"/>
      <point x="182" y="17"/>
      <point x="183" y="17" type="qcurve"/>
      <point x="184" y="17" type="line"/>
      <point x="184" y="17"/>
      <point x="185" y="17" type="qcurve"/>
      <point x="186" y="17"/>
      <point x="186" y="17" type="qcurve"/>
      <point x="187" y="17" type="line"/>
      <point x="187" y="17"/>
      <point x="188" y="17" type="qcurve"/>
      <point x="207" y="17" type="line"/>
      <point x="207" y="0" type="line"/>
    </contour>
    <contour>
      <point x="17" y="18" type="line"/>
      <point x="21" y="24" type="line"/>
      <point x="21" y="18" type="line"/>
    </contour>
  </outline>
</glyph>
<glyph name="p" format="2">
  <advance width="515"/>
  <unicode hex="0070"/>
  <outline>
    <contour>
      <point x="201" y="17" type="line"/>
      <point x="265" y="17" type="line"/>
      <point x="265" y="0" type="line"/>
      <point x="27" y="0" type="line"/>
      <point x="27" y="17" type="line"/>
      <point x="87" y="17" type="line"/>
      <point x="87" y="650" type="line"/>
      <point x="27" y="650" type="line"/>
      <point x="27" y="667" type="line"/>
      <point x="261" y="667" type="line" smooth="yes"/>
      <point x="299" y="667"/>
      <point x="383" y="653"/>
      <point x="453" y="613"/>
      <point x="499" y="541"/>
      <point x="499" y="484" type="qcurve" smooth="yes"/>
      <point x="499" y="432"/>
      <point x="458" y="359"/>
      <point x="395" y="314"/>
      <point x="318" y="293"/>
      <point x="281" y="293" type="qcurve" smooth="yes"/>
      <point x="261" y="293"/>
      <point x="222" y="299"/>
      <point x="202" y="313" type="qcurve"/>
    </contour>
    <contour>
      <point x="202" y="332" type="line"/>
      <point x="229" y="312"/>
      <point x="263" y="312" type="qcurve" smooth="yes"/>
      <point x="292" y="312"/>
      <point x="340" y="336"/>
      <point x="374" y="380"/>
      <point x="392" y="438"/>
      <point x="392" y="473" type="qcurve" smooth="yes"/>
      <point x="392" y="521"/>
      <point x="369" y="589"/>
      <point x="325" y="632"/>
      <point x="264" y="652"/>
      <point x="227" y="652" type="qcurve" smooth="yes"/>
      <point x="224" y="652"/>
      <point x="211" y="650"/>
      <point x="203" y="649" type="qcurve"/>
    </contour>
  </outline>
</glyph>
<glyph name="q" format="2">
  <advance width="595"/>
  <unicode hex="0071"/>
  <outline>
    <contour>
      <point x="355" y="-103" type="line"/>
      <point x="355" y="-128"/>
      <point x="369" y="-159"/>
      <point x="393" y="-176"/>
      <point x="424" y="-182"/>
      <point x="441" y="-182" type="qcurve" smooth="yes"/>
      <point x="453" y="-182"/>
      <point x="474" y="-180"/>
      <point x="485" y="-179" type="qcurve"/>
      <point x="485" y="-198" type="line"/>
      <point x="471" y="-199"/>
      <point x="450" y="-200"/>
      <point x="436" y="-200" type="qcurve" smooth="yes"/>
      <point x="423" y="-200"/>
      <point x="379" y="-194"/>
      <point x="332" y="-184"/>
      <point x="290" y="-170"/>
      <point x="281" y="-161" type="qcurve" smooth="yes"/>
      <point x="269" y="-151"/>
      <point x="257" y="-118"/>
      <point x="252" y="-80"/>
      <point x="251" y="-41"/>
      <point x="251" y="-25" type="qcurve" smooth="yes"/>
      <point x="251" y="-8" type="line"/>
      <point x="203" y="8"/>
      <point x="125" y="77"/>
      <point x="70" y="169"/>
      <point x="41" y="279"/>
      <point x="41" y="337" type="qcurve" smooth="yes"/>
      <point x="41" y="399"/>
      <point x="81" y="522"/>
      <point x="151" y="619"/>
      <point x="245" y="680"/>
      <point x="300" y="680" type="qcurve" smooth="yes"/>
      <point x="357" y="680"/>
      <point x="452" y="619"/>
      <point x="521" y="520"/>
      <point x="560" y="396"/>
      <point x="560" y="332" type="qcurve" smooth="yes"/>
      <point x="560" y="275"/>
      <point x="531" y="168"/>
      <point x="478" y="78"/>
      <point x="403" y="10"/>
      <point x="356" y="-8" type="qcurve"/>
    </contour>
    <contour>
      <point x="303" y="664" type="qcurve" smooth="yes"/>
      <point x="270" y="664"/>
      <point x="223" y="631"/>
      <point x="190" y="578"/>
      <point x="170" y="508"/>
      <point x="159" y="435"/>
      <point x="156" y="364"/>
      <point x="156" y="335" type="qcurve" smooth="yes"/>
      <point x="156" y="306"/>
      <point x="160" y="234"/>
      <point x="171" y="161"/>
      <point x="192" y="91"/>
      <point x="225" y="37"/>
      <point x="273" y="4"/>
      <point x="306" y="4" type="qcurve" smooth="yes"/>
      <point x="336" y="4"/>
      <point x="379" y="39"/>
      <point x="409" y="96"/>
      <point x="426" y="168"/>
      <point x="435" y="242"/>
      <point x="438" y="310"/>
      <point x="438" y="335" type="qcurve" smooth="yes"/>
      <point x="438" y="361"/>
      <point x="434" y="430"/>
      <point x="423" y="503"/>
      <point x="405" y="574"/>
      <point x="375" y="630"/>
      <point x="332" y="664"/>
    </contour>
  </outline>
</glyph>
<glyph name="t" format="2">
  <advance width="526"/>
  <unicode hex="0074"/>
  <outline>
    <contour>
      <point x="207" y="650" type="line"/>
      <point x="193" y="650" type="line" smooth="yes"/>
      <point x="145" y="650"/>
      <point x="83" y="635"/>
      <point x="46" y="594"/>
      <point x="31" y="523"/>
      <point x="31" y="466" type="qcurve"/>
      <point x="13" y="466" type="line"/>
      <point x="15" y="518"/>
      <point x="16" y="616"/>
      <point x="18" y="667" type="qcurve"/>
      <point x="513" y="667" type="line"/>
      <point x="514" y="616"/>
      <point x="515" y="518"/>
      <point x="516" y="466" type="qcurve"/>
      <point x="500" y="466" type="line"/>
      <point x="500" y="527"/>
      <point x="484" y="600"/>
      <point x="445" y="639"/>
      <point x="378" y="650"/>
      <point x="325" y="650" type="qcurve"/>
      <point x="325" y="17" type="line"/>
      <point x="393" y="17" type="line"/>
      <point x="393" y="0" type="line"/>
      <point x="136" y="0" type="line"/>
      <point x="136" y="17" type="line"/>
      <point x="207" y="17" type="line"/>
    </contour>
  </outline>
</glyph>
<glyph name="v" format="2">
  <advance width="523"/>
  <unicode hex="0076"/>
  <outline>
    <contour>
      <point x="-12" y="667" type="line"/>
      <point x="234" y="667" type="line"/>
      <point x="234" y="650" type="line"/>
      <point x="170" y="650" type="line"/>
      <point x="309" y="190" type="line"/>
      <point x="341" y="285"/>
      <point x="385" y="419"/>
      <point x="415" y="511"/>
      <point x="432" y="566"/>
      <point x="440" y="598"/>
      <point x="442" y="613"/>
      <point x="442" y="618" type="qcurve" smooth="yes"/>
      <point x="442" y="631"/>
      <point x="427" y="644"/>
      <point x="404" y="650"/>
      <point x="392" y="650" type="qcurve" smooth="yes"/>
      <point x="389" y="650" type="line"/>
      <point x="388" y="650"/>
      <point x="387" y="650" type="qcurve"/>
      <point x="385" y="650" type="line"/>
      <point x="384" y="650"/>
      <point x="383" y="650" type="qcurve"/>
      <point x="367" y="650" type="line"/>
      <point x="367" y="667" type="line"/>
      <point x="551" y="667" type="line"/>
      <point x="551" y="650" type="line"/>
      <point x="543" y="650" type="line" smooth="yes"/>
      <point x="519" y="650"/>
      <point x="493" y="647"/>
      <point x="477" y="632"/>
      <point x="465" y="600"/>
      <point x="456" y="572" type="qcurve" smooth="yes"/>
      <point x="260" y="-26" type="line"/>
      <point x="41" y="650" type="line"/>
      <point x="-12" y="650" type="line"/>
    </contour>
  </outline>
</glyph>
<glyph name="x" format="2">
  <advance width="558"/>
  <unicode hex="0078"/>
  <outline>
    <contour>
      <point x="-15" y="17" type="line"/>
      <point x="-5" y="17" type="line" smooth="yes"/>
      <point x="2" y="17"/>
      <point x="9" y="17" type="qcurve" smooth="yes"/>
      <point x="23" y="17"/>
      <point x="63" y="20"/>
      <point x="82" y="36" type="qcurve" smooth="yes"/>
      <point x="89" y="42"/>
      <point x="109" y="71"/>
      <point x="144" y="132"/>
      <point x="198" y="234"/>
      <point x="239" y="313" type="qcurve"/>
      <point x="79" y="650" type="line"/>
      <point x="26" y="650" type="line"/>
      <point x="26" y="667" type="line"/>
      <point x="268" y="667" type="line"/>
      <point x="268" y="650" type="line"/>
      <point x="207" y="650" type="line"/>
      <point x="315" y="427" type="line"/>
      <point x="350" y="490"/>
      <point x="390" y="564"/>
      <point x="411" y="605"/>
      <point x="417" y="623"/>
      <point x="417" y="629" type="qcurve" smooth="yes"/>
      <point x="417" y="644"/>
      <point x="397" y="650"/>
      <point x="389" y="650" type="qcurve" smooth="yes"/>
      <point x="343" y="650" type="line"/>
      <point x="343" y="667" type="line"/>
      <point x="535" y="667" type="line"/>
      <point x="535" y="650" type="line"/>
      <point x="530" y="650" type="line" smooth="yes"/>
      <point x="513" y="650"/>
      <point x="472" y="645"/>
      <point x="458" y="633" type="qcurve" smooth="yes"/>
      <point x="452" y="627"/>
      <point x="436" y="607"/>
      <point x="408" y="560"/>
      <point x="362" y="476"/>
      <point x="325" y="407" type="qcurve"/>
      <point x="515" y="17" type="line"/>
      <point x="579" y="17" type="line"/>
      <point x="579" y="0" type="line"/>
      <point x="318" y="0" type="line"/>
      <point x="318" y="17" type="line"/>
      <point x="385" y="17" type="line"/>
      <point x="249" y="293" type="line"/>
      <point x="169" y="140" type="line" smooth="yes"/>
      <point x="154" y="112"/>
      <point x="136" y="77"/>
      <point x="125" y="54"/>
      <point x="121" y="43"/>
      <point x="121" y="39" type="qcurve" smooth="yes"/>
      <point x="121" y="30"/>
      <point x="131" y="21"/>
      <point x="145" y="17"/>
      <point x="152" y="17" type="qcurve"/>
      <point x="154" y="17" type="line"/>
      <point x="155" y="17"/>
      <point x="155" y="17" type="qcurve"/>
      <point x="156" y="17"/>
      <point x="156" y="17" type="qcurve"/>
      <point x="156" y="17"/>
      <point x="157" y="17" type="qcurve"/>
      <point x="157" y="17"/>
      <point x="157" y="17" type="qcurve"/>
      <point x="201" y="17" type="line"/>
      <point x="201" y="0" type="line"/>
      <point x="-15" y="0" type="line"/>
    </contour>
  </outline>
</glyph>
<glyph name="z" format="2">
  <advance width="519"/>
  <unicode hex="007A"/>
  <outline>
    <contour>
      <point x="32" y="0" type="line"/>
      <point x="353" y="647" type="line"/>
      <point x="310" y="647" type="line" smooth="yes"/>
      <point x="242" y="647"/>
      <point x="153" y="636"/>
      <point x="130" y="623" type="qcurve"/>
      <point x="130" y="624" type="line"/>
      <point x="81" y="599"/>
      <point x="81" y="521" type="qcurve" smooth="yes"/>
      <point x="81" y="482" type="line"/>
      <point x="65" y="482" type="line"/>
      <point x="65" y="667" type="line"/>
      <point x="496" y="667" type="line"/>
      <point x="167" y="17" type="line"/>
      <point x="240" y="17" type="line" smooth="yes"/>
      <point x="305" y="17"/>
      <point x="396" y="31"/>
      <point x="454" y="63"/>
      <point x="481" y="113"/>
      <point x="481" y="148" type="qcurve" smooth="yes"/>
      <point x="481" y="193" type="line"/>
      <point x="498" y="193" type="line"/>
      <point x="498" y="0" type="line"/>
    </contour>
  </outline>
</glyph>
<glyph name="braceleft" format="2">
  <advance width="212"/>
  <unicode hex="007B"/>
  <outline>
    <contour>
      <point x="138" y="-6" type="qcurve"/>
      <point x="140" y="-26"/>
      <point x="175" y="-57"/>
      <point x="192" y="-65" type="qcurve"/>
      <point x="188" y="-65" type="line"/>
      <point x="186" y="-84" type="line"/>
      <point x="166" y="-79"/>
      <point x="117" y="-60"/>
      <point x="72" y="-29"/>
      <point x="39" y="14"/>
      <point x="35" y="43" type="qcurve"/>
      <point x="35" y="45"/>
      <point x="35" y="49" type="qcurve" smooth="yes"/>
      <point x="35" y="55"/>
      <point x="38" y="80"/>
      <point x="47" y="119"/>
      <point x="59" y="164"/>
      <point x="65" y="187" type="qcurve"/>
      <point x="66" y="194"/>
      <point x="71" y="218"/>
      <point x="76" y="243"/>
      <point x="78" y="261"/>
      <point x="78" y="265" type="qcurve" smooth="yes"/>
      <point x="78" y="268"/>
      <point x="78" y="270" type="qcurve"/>
      <point x="75" y="290"/>
      <point x="42" y="319"/>
      <point x="26" y="327" type="qcurve"/>
      <point x="26" y="350" type="line"/>
      <point x="42" y="358"/>
      <point x="75" y="387"/>
      <point x="78" y="407" type="qcurve"/>
      <point x="78" y="409"/>
      <point x="78" y="412" type="qcurve" smooth="yes"/>
      <point x="78" y="416"/>
      <point x="76" y="434"/>
      <point x="71" y="459"/>
      <point x="66" y="482"/>
      <point x="65" y="490" type="qcurve"/>
      <point x="59" y="513"/>
      <point x="47" y="558"/>
      <point x="38" y="597"/>
      <point x="35" y="621"/>
      <point x="35" y="628" type="qcurve" smooth="yes"/>
      <point x="35" y="631"/>
      <point x="35" y="634" type="qcurve"/>
      <point x="39" y="663"/>
      <point x="72" y="706"/>
      <point x="117" y="737"/>
      <point x="166" y="756"/>
      <point x="186" y="761" type="qcurve"/>
      <point x="188" y="742" type="line"/>
      <point x="192" y="742" type="line"/>
      <point x="175" y="734"/>
      <point x="140" y="703"/>
      <point x="138" y="683" type="qcurve"/>
      <point x="138" y="680"/>
      <point x="138" y="675" type="qcurve" smooth="yes"/>
      <point x="138" y="662"/>
      <point x="149" y="606"/>
      <point x="157" y="572" type="qcurve"/>
      <point x="166" y="539"/>
      <point x="178" y="484"/>
      <point x="178" y="467" type="qcurve" smooth="yes"/>
      <point x="178" y="462"/>
      <point x="178" y="458" type="qcurve"/>
      <point x="175" y="432"/>
      <point x="150" y="393"/>
      <point x="115" y="364"/>
      <point x="75" y="344"/>
      <point x="56" y="338" type="qcurve"/>
      <point x="75" y="332"/>
      <point x="115" y="312"/>
      <point x="150" y="283"/>
      <point x="175" y="244"/>
      <point x="178" y="219" type="qcurve"/>
      <point x="178" y="215"/>
      <point x="178" y="210" type="qcurve" smooth="yes"/>
      <point x="178" y="193"/>
      <point x="166" y="138"/>
      <point x="157" y="105" type="qcurve"/>
      <point x="149" y="71"/>
      <point x="138" y="15"/>
      <point x="138" y="2" type="qcurve" smooth="yes"/>
      <point x="138" y="-3"/>
    </contour>
  </outline>
</glyph>
<glyph name="braceright" format="2">
  <advance width="212"/>
  <unicode hex="007D"/>
  <outline>
    <contour>
      <point x="80" y="-6" type="qcurve"/>
      <point x="80" y="-3"/>
      <point x="80" y="2" type="qcurve" smooth="yes"/>
      <point x="80" y="15"/>
      <point x="69" y="71"/>
      <point x="61" y="105" type="qcurve"/>
      <point x="52" y="138"/>
      <point x="40" y="193"/>
      <point x="40" y="210" type="qcurve" smooth="yes"/>
      <point x="40" y="215"/>
      <point x="40" y="219" type="qcurve"/>
      <point x="43" y="244"/>
      <point x="68" y="283"/>
      <point x="103" y="312"/>
      <point x="143" y="332"/>
      <point x="162" y="338" type="qcurve"/>
      <point x="143" y="344"/>
      <point x="103" y="364"/>
      <point x="68" y="393"/>
      <point x="43" y="432"/>
      <point x="40" y="458" type="qcurve"/>
      <point x="40" y="462"/>
      <point x="40" y="467" type="qcurve" smooth="yes"/>
      <point x="40" y="484"/>
      <point x="52" y="539"/>
      <point x="61" y="572" type="qcurve"/>
      <point x="69" y="606"/>
      <point x="80" y="662"/>
      <point x="80" y="675" type="qcurve" smooth="yes"/>
      <point x="80" y="680"/>
      <point x="80" y="683" type="qcurve"/>
      <point x="78" y="703"/>
      <point x="43" y="734"/>
      <point x="26" y="742" type="qcurve"/>
      <point x="30" y="742" type="line"/>
      <point x="32" y="761" type="line"/>
      <point x="52" y="756"/>
      <point x="101" y="737"/>
      <point x="146" y="706"/>
      <point x="179" y="663"/>
      <point x="183" y="634" type="qcurve"/>
      <point x="183" y="631"/>
      <point x="183" y="628" type="qcurve" smooth="yes"/>
      <point x="183" y="621"/>
      <point x="180" y="597"/>
      <point x="171" y="558"/>
      <point x="159" y="513"/>
      <point x="153" y="490" type="qcurve"/>
      <point x="152" y="482"/>
      <point x="147" y="459"/>
      <point x="142" y="434"/>
      <point x="140" y="416"/>
      <point x="140" y="412" type="qcurve" smooth="yes"/>
      <point x="140" y="409"/>
      <point x="140" y="407" type="qcurve"/>
      <point x="143" y="387"/>
      <point x="176" y="358"/>
      <point x="192" y="350" type="qcurve"/>
      <point x="192" y="327" type="line"/>
      <point x="176" y="319"/>
      <point x="143" y="290"/>
      <point x="140" y="270" type="qcurve"/>
      <point x="140" y="268"/>
      <point x="140" y="265" type="qcurve" smooth="yes"/>
      <point x="140" y="261"/>
      <point x="142" y="243"/>
      <point x="147" y="218"/>
      <point x="152" y="194"/>
      <point x="153" y="187" type="qcurve"/>
      <point x="159" y="164"/>
      <point x="171" y="119"/>
      <point x="180" y="80"/>
      <point x="183" y="55"/>
      <point x="183" y="49" type="qcurve" smooth="yes"/>
      <point x="183" y="45"/>
      <point x="183" y="43" type="qcurve"/>
      <point x="179" y="14"/>
      <point x="146" y="-29"/>
      <point x="101" y="-60"/>
      <point x="52" y="-79"/>
      <point x="32" y="-84" type="qcurve"/>
      <point x="30" y="-65" type="line"/>
      <point x="26" y="-65" type="line"/>
      <point x="43" y="-57"/>
      <point x="78" y="-26"/>
    </contour>
  </outline>
</glyph>
<glyph name="asciitilde" format="2">
  <advance width="467"/>
  <unicode hex="007E"/>
  <outline>
    <contour>
      <point x="375" y="380" type="qcurve"/>
      <point x="396" y="382"/>
      <point x="427" y="416"/>
      <point x="436" y="433" type="qcurve"/>
      <point x="436" y="429" type="line"/>
      <point x="454" y="428" type="line"/>
      <point x="449" y="408"/>
      <point x="429" y="359"/>
      <point x="399" y="314"/>
      <point x="355" y="281"/>
      <point x="326" y="278" type="qcurve"/>
      <point x="323" y="278"/>
      <point x="320" y="278" type="qcurve" smooth="yes"/>
      <point x="304" y="278"/>
      <point x="229" y="297"/>
      <point x="182" y="309" type="qcurve"/>
      <point x="174" y="310"/>
      <point x="151" y="316"/>
      <point x="126" y="321"/>
      <point x="108" y="323"/>
      <point x="104" y="323" type="qcurve" smooth="yes"/>
      <point x="101" y="323"/>
      <point x="99" y="323" type="qcurve"/>
      <point x="79" y="320"/>
      <point x="49" y="288"/>
      <point x="41" y="272" type="qcurve"/>
      <point x="22" y="275" type="line"/>
      <point x="27" y="294"/>
      <point x="46" y="342"/>
      <point x="77" y="386"/>
      <point x="121" y="419"/>
      <point x="151" y="423" type="qcurve"/>
      <point x="155" y="423"/>
      <point x="160" y="423" type="qcurve" smooth="yes"/>
      <point x="177" y="423"/>
      <point x="232" y="410"/>
      <point x="265" y="401" type="qcurve"/>
      <point x="299" y="393"/>
      <point x="354" y="380"/>
      <point x="368" y="380" type="qcurve" smooth="yes"/>
      <point x="372" y="380"/>
    </contour>
  </outline>
</glyph>
<glyph name="exclamdown" format="2">
  <advance width="231"/>
  <unicode hex="00A1"/>
  <outline>
    <contour>
      <point x="117" y="573" type="qcurve" smooth="yes"/>
      <point x="100" y="573"/>
      <point x="74" y="603"/>
      <point x="74" y="624" type="qcurve" smooth="yes"/>
      <point x="74" y="646"/>
      <point x="99" y="676"/>
      <point x="116" y="676" type="qcurve" smooth="yes"/>
      <point x="134" y="676"/>
      <point x="159" y="647"/>
      <point x="159" y="624" type="qcurve" smooth="yes"/>
      <point x="159" y="603"/>
      <point x="134" y="573"/>
    </contour>
    <contour>
      <point x="129" y="506" type="line"/>
      <point x="132" y="440"/>
      <point x="141" y="332"/>
      <point x="153" y="233"/>
      <point x="168" y="134"/>
      <point x="178" y="75" type="qcurve"/>
      <point x="164" y="63"/>
      <point x="149" y="36"/>
      <point x="139" y="18" type="qcurve" smooth="yes"/>
      <point x="136" y="12"/>
      <point x="130" y="2" type="qcurve" smooth="yes"/>
      <point x="125" y="-6"/>
      <point x="115" y="-9"/>
      <point x="113" y="-9" type="qcurve"/>
      <point x="108" y="-9"/>
      <point x="103" y="-3" type="qcurve"/>
      <point x="91" y="19" type="line"/>
      <point x="82" y="38"/>
      <point x="68" y="60"/>
      <point x="54" y="78" type="qcurve"/>
      <point x="69" y="157"/>
      <point x="94" y="375"/>
      <point x="101" y="506" type="qcurve"/>
    </contour>
  </outline>
</glyph>
<glyph name="cent" format="2">
  <advance width="446"/>
  <unicode hex="00A2"/>
  <outline>
    <contour>
      <point x="264" y="85" type="qcurve" smooth="yes"/>
      <point x="280" y="85"/>
      <point x="317" y="90"/>
      <point x="354" y="101"/>
      <point x="390" y="117"/>
      <point x="405" y="129" type="qcurve"/>
      <point x="411" y="121" type="line"/>
      <point x="341" y="66"/>
      <point x="258" y="66" type="qcurve" smooth="yes"/>
      <point x="253" y="66"/>
      <point x="249" y="66" type="qcurve" smooth="yes"/>
      <point x="214" y="66"/>
      <point x="181" y="75" type="qcurve"/>
      <point x="145" y="-30" type="line"/>
      <point x="124" y="-24" type="line"/>
      <point x="160" y="81" type="line"/>
      <point x="131" y="91"/>
      <point x="78" y="124"/>
      <point x="39" y="171"/>
      <point x="16" y="232"/>
      <point x="16" y="271" type="qcurve" smooth="yes"/>
      <point x="16" y="331"/>
      <point x="59" y="413"/>
      <point x="129" y="464"/>
      <point x="217" y="486"/>
      <point x="262" y="486" type="qcurve" smooth="yes"/>
      <point x="278" y="486"/>
      <point x="298" y="483" type="qcurve"/>
      <point x="333" y="585" type="line"/>
      <point x="354" y="579" type="line"/>
      <point x="319" y="478" type="line"/>
      <point x="340" y="473"/>
      <point x="378" y="453"/>
      <point x="408" y="422"/>
      <point x="425" y="380"/>
      <point x="425" y="353" type="qcurve" smooth="yes"/>
      <point x="425" y="327"/>
      <point x="398" y="287"/>
      <point x="374" y="287" type="qcurve" smooth="yes"/>
      <point x="356" y="287"/>
      <point x="331" y="313"/>
      <point x="331" y="333" type="qcurve" smooth="yes"/>
      <point x="331" y="361"/>
      <point x="363" y="375"/>
      <point x="383" y="375" type="qcurve" smooth="yes"/>
      <point x="392" y="375"/>
      <point x="396" y="387"/>
      <point x="396" y="395" type="qcurve" smooth="yes"/>
      <point x="396" y="416"/>
      <point x="366" y="445"/>
      <point x="324" y="462"/>
      <point x="281" y="469"/>
      <point x="268" y="469" type="qcurve" smooth="yes"/>
      <point x="233" y="469"/>
      <point x="181" y="437"/>
      <point x="147" y="384"/>
      <point x="130" y="316"/>
      <point x="130" y="279" type="qcurve" smooth="yes"/>
      <point x="130" y="242"/>
      <point x="143" y="172"/>
      <point x="175" y="118"/>
      <point x="226" y="85"/>
    </contour>
  </outline>
</glyph>
<glyph name="sterling" format="2">
  <advance width="507"/>
  <unicode hex="00A3"/>
  <outline>
    <contour>
      <point x="476" y="116" type="line"/>
      <point x="472" y="99"/>
      <point x="456" y="58"/>
      <point x="430" y="21"/>
      <point x="394" y="-7"/>
      <point x="370" y="-10" type="qcurve"/>
      <point x="368" y="-10"/>
      <point x="365" y="-10" type="qcurve" smooth="yes"/>
      <point x="351" y="-10"/>
      <point x="300" y="7"/>
      <point x="253" y="31" type="qcurve" smooth="yes"/>
      <point x="245" y="35"/>
      <point x="208" y="53"/>
      <point x="193" y="58" type="qcurve"/>
      <point x="192" y="41"/>
      <point x="173" y="9"/>
      <point x="156" y="-1" type="qcurve" smooth="yes"/>
      <point x="139" y="-11"/>
      <point x="121" y="-11" type="qcurve" smooth="yes"/>
      <point x="114" y="-11"/>
      <point x="82" y="-4"/>
      <point x="71" y="19" type="qcurve" smooth="yes"/>
      <point x="65" y="31"/>
      <point x="65" y="45" type="qcurve" smooth="yes"/>
      <point x="65" y="56"/>
      <point x="79" y="94"/>
      <point x="103" y="108" type="qcurve" smooth="yes"/>
      <point x="114" y="115"/>
      <point x="133" y="118"/>
      <point x="139" y="118" type="qcurve" smooth="yes"/>
      <point x="145" y="118"/>
      <point x="150" y="117" type="qcurve"/>
      <point x="152" y="129"/>
      <point x="152" y="140" type="qcurve" smooth="yes"/>
      <point x="152" y="167"/>
      <point x="128" y="229"/>
      <point x="109" y="266" type="qcurve" smooth="yes"/>
      <point x="107" y="270"/>
      <point x="105" y="274" type="qcurve"/>
      <point x="23" y="274" type="line"/>
      <point x="23" y="303" type="line"/>
      <point x="90" y="303" type="line"/>
      <point x="81" y="321"/>
      <point x="73" y="340" type="qcurve" smooth="yes"/>
      <point x="56" y="378"/>
      <point x="56" y="421" type="qcurve" smooth="yes"/>
      <point x="56" y="493"/>
      <point x="99" y="592"/>
      <point x="169" y="653"/>
      <point x="257" y="679"/>
      <point x="301" y="679" type="qcurve" smooth="yes"/>
      <point x="328" y="679"/>
      <point x="385" y="662"/>
      <point x="432" y="623"/>
      <point x="463" y="562"/>
      <point x="463" y="519" type="qcurve" smooth="yes"/>
      <point x="463" y="487"/>
      <point x="435" y="441"/>
      <point x="411" y="441" type="qcurve" smooth="yes"/>
      <point x="393" y="441"/>
      <point x="368" y="472"/>
      <point x="368" y="496" type="qcurve" smooth="yes"/>
      <point x="368" y="528"/>
      <point x="401" y="547"/>
      <point x="421" y="547" type="qcurve" smooth="yes"/>
      <point x="429" y="547"/>
      <point x="433" y="559"/>
      <point x="433" y="570" type="qcurve" smooth="yes"/>
      <point x="433" y="596"/>
      <point x="403" y="630"/>
      <point x="362" y="651"/>
      <point x="319" y="660"/>
      <point x="307" y="660" type="qcurve" smooth="yes"/>
      <point x="272" y="660"/>
      <point x="220" y="622"/>
      <point x="186" y="558"/>
      <point x="170" y="475"/>
      <point x="170" y="431" type="qcurve" smooth="yes"/>
      <point x="170" y="303" type="line"/>
      <point x="311" y="303" type="line"/>
      <point x="311" y="274" type="line"/>
      <point x="170" y="274" type="line"/>
      <point x="170" y="160" type="line" smooth="yes"/>
      <point x="170" y="154"/>
      <point x="168" y="130"/>
      <point x="166" y="111" type="qcurve"/>
      <point x="169" y="109"/>
      <point x="173" y="107"/>
      <point x="174" y="105" type="qcurve"/>
      <point x="187" y="112"/>
      <point x="214" y="122"/>
      <point x="232" y="124" type="qcurve"/>
      <point x="235" y="124"/>
      <point x="238" y="124" type="qcurve" smooth="yes"/>
      <point x="252" y="124"/>
      <point x="290" y="109"/>
      <point x="316" y="95" type="qcurve" smooth="yes"/>
      <point x="359" y="72"/>
      <point x="392" y="70"/>
      <point x="400" y="70" type="qcurve" smooth="yes"/>
      <point x="411" y="70"/>
      <point x="418" y="71" type="qcurve" smooth="yes"/>
      <point x="435" y="73"/>
      <point x="454" y="106"/>
      <point x="461" y="120" type="qcurve"/>
      <point x="461" y="118" type="line"/>
    </contour>
  </outline>
</glyph>
<glyph name="currency" format="2">
  <advance width="429"/>
  <unicode hex="00A4"/>
  <outline>
    <contour>
      <point x="403" y="104" type="line"/>
      <point x="325" y="186" type="line"/>
      <point x="304" y="170"/>
      <point x="254" y="151"/>
      <point x="227" y="151" type="qcurve" smooth="yes"/>
      <point x="174" y="151"/>
      <point x="131" y="185" type="qcurve"/>
      <point x="41" y="104" type="line"/>
      <point x="26" y="116" type="line"/>
      <point x="96" y="221" type="line"/>
      <point x="79" y="244"/>
      <point x="61" y="301"/>
      <point x="61" y="333" type="qcurve" smooth="yes"/>
      <point x="61" y="364"/>
      <point x="79" y="420"/>
      <point x="96" y="443" type="qcurve"/>
      <point x="25" y="544" type="line"/>
      <point x="38" y="555" type="line"/>
      <point x="130" y="480" type="line"/>
      <point x="151" y="496"/>
      <point x="201" y="514"/>
      <point x="227" y="514" type="qcurve" smooth="yes"/>
      <point x="254" y="514"/>
      <point x="303" y="496"/>
      <point x="324" y="480" type="qcurve"/>
      <point x="400" y="555" type="line"/>
      <point x="413" y="544" type="line"/>
      <point x="355" y="448" type="line"/>
      <point x="373" y="425"/>
      <point x="394" y="366"/>
      <point x="394" y="333" type="qcurve" smooth="yes"/>
      <point x="394" y="301"/>
      <point x="374" y="243"/>
      <point x="357" y="220" type="qcurve"/>
      <point x="415" y="116" type="line"/>
    </contour>
    <contour>
      <point x="227" y="191" type="qcurve" smooth="yes"/>
      <point x="253" y="191"/>
      <point x="299" y="213"/>
      <point x="334" y="252"/>
      <point x="354" y="304"/>
      <point x="354" y="333" type="qcurve" smooth="yes"/>
      <point x="354" y="362"/>
      <point x="334" y="414"/>
      <point x="299" y="452"/>
      <point x="253" y="474"/>
      <point x="227" y="474" type="qcurve" smooth="yes"/>
      <point x="201" y="474"/>
      <point x="155" y="452"/>
      <point x="121" y="414"/>
      <point x="101" y="362"/>
      <point x="101" y="333" type="qcurve" smooth="yes"/>
      <point x="101" y="304"/>
      <point x="121" y="252"/>
      <point x="155" y="213"/>
      <point x="201" y="191"/>
    </contour>
  </outline>
</glyph>
<glyph name="yen" format="2">
  <advance width="483"/>
  <unicode hex="00A5"/>
  <outline>
    <contour>
      <point x="333" y="667" type="line"/>
      <point x="510" y="667" type="line"/>
      <point x="510" y="651" type="line"/>
      <point x="489" y="651" type="line" smooth="yes"/>
      <point x="475" y="651"/>
      <point x="457" y="646"/>
      <point x="442" y="631"/>
      <point x="429" y="603"/>
      <point x="420" y="581" type="qcurve" smooth="yes"/>
      <point x="308" y="300" type="line"/>
      <point x="396" y="300" type="line"/>
      <point x="396" y="270" type="line"/>
      <point x="297" y="270" type="line"/>
      <point x="295" y="266" type="line"/>
      <point x="295" y="227" type="line"/>
      <point x="396" y="227" type="line"/>
      <point x="396" y="197" type="line"/>
      <point x="295" y="197" type="line"/>
      <point x="295" y="17" type="line"/>
      <point x="359" y="17" type="line"/>
      <point x="359" y="0" type="line"/>
      <point x="124" y="0" type="line"/>
      <point x="124" y="17" type="line"/>
      <point x="187" y="17" type="line"/>
      <point x="187" y="197" type="line"/>
      <point x="93" y="197" type="line"/>
      <point x="93" y="227" type="line"/>
      <point x="187" y="227" type="line"/>
      <point x="187" y="243" type="line"/>
      <point x="177" y="270" type="line"/>
      <point x="93" y="270" type="line"/>
      <point x="93" y="300" type="line"/>
      <point x="165" y="300" type="line"/>
      <point x="30" y="650" type="line"/>
      <point x="-23" y="650" type="line"/>
      <point x="-23" y="667" type="line"/>
      <point x="216" y="667" type="line"/>
      <point x="216" y="650" type="line"/>
      <point x="153" y="650" type="line"/>
      <point x="286" y="304" type="line"/>
      <point x="383" y="541" type="line" smooth="yes"/>
      <point x="386" y="547"/>
      <point x="394" y="570"/>
      <point x="402" y="595"/>
      <point x="408" y="618"/>
      <point x="408" y="625" type="qcurve" smooth="yes"/>
      <point x="408" y="642"/>
      <point x="377" y="651"/>
      <point x="359" y="651" type="qcurve" smooth="yes"/>
      <point x="352" y="651"/>
      <point x="340" y="650"/>
      <point x="335" y="650" type="qcurve"/>
      <point x="333" y="650" type="line"/>
    </contour>
  </outline>
</glyph>
<glyph name="brokenbar" format="2">
  <advance width="89"/>
  <unicode hex="00A6"/>
  <outline>
    <contour>
      <point x="23" y="240" type="line"/>
      <point x="65" y="240" type="line"/>
      <point x="65" y="-96" type="line"/>
      <point x="23" y="-96" type="line"/>
    </contour>
    <contour>
      <point x="23" y="448" type="line"/>
      <point x="23" y="757" type="line"/>
      <point x="65" y="757" type="line"/>
      <point x="65" y="448" type="line"/>
    </contour>
  </outline>
</glyph>
<glyph name="section" format="2">
  <advance width="513"/>
  <unicode hex="00A7"/>
  <outline>
    <contour>
      <point x="289" y="192" type="qcurve" smooth="yes"/>
      <point x="239" y="206"/>
      <point x="147" y="249"/>
      <point x="72" y="315"/>
      <point x="46" y="368" type="qcurve" smooth="yes"/>
      <point x="21" y="418"/>
      <point x="20" y="466"/>
      <point x="20" y="468" type="qcurve"/>
      <point x="20" y="513"/>
      <point x="54" y="591"/>
      <point x="117" y="653"/>
      <point x="156" y="673" type="qcurve"/>
      <point x="193" y="690"/>
      <point x="244" y="696"/>
      <point x="256" y="696" type="qcurve" smooth="yes"/>
      <point x="284" y="696"/>
      <point x="349" y="678"/>
      <point x="415" y="620"/>
      <point x="439" y="574" type="qcurve" smooth="yes"/>
      <point x="446" y="559"/>
      <point x="454" y="525"/>
      <point x="454" y="510" type="qcurve"/>
      <point x="454" y="508"/>
      <point x="453" y="490"/>
      <point x="440" y="464"/>
      <point x="425" y="456" type="qcurve" smooth="yes"/>
      <point x="417" y="452"/>
      <point x="408" y="452" type="qcurve" smooth="yes"/>
      <point x="398" y="452"/>
      <point x="367" y="467"/>
      <point x="355" y="488" type="qcurve"/>
      <point x="347" y="507"/>
      <point x="347" y="521" type="qcurve" smooth="yes"/>
      <point x="347" y="529"/>
      <point x="356" y="554"/>
      <point x="378" y="565" type="qcurve" smooth="yes"/>
      <point x="384" y="568" type="line"/>
      <point x="394" y="571"/>
      <point x="397" y="578"/>
      <point x="397" y="580" type="qcurve"/>
      <point x="397" y="587"/>
      <point x="391" y="600" type="qcurve" smooth="yes"/>
      <point x="378" y="628"/>
      <point x="328" y="664"/>
      <point x="276" y="679"/>
      <point x="252" y="679" type="qcurve" smooth="yes"/>
      <point x="249" y="679"/>
      <point x="219" y="678"/>
      <point x="198" y="667" type="qcurve"/>
      <point x="166" y="652"/>
      <point x="135" y="595"/>
      <point x="133" y="562" type="qcurve"/>
      <point x="133" y="555"/>
      <point x="133" y="548" type="qcurve" smooth="yes"/>
      <point x="133" y="528"/>
      <point x="137" y="505" type="qcurve"/>
      <point x="143" y="504" type="line"/>
      <point x="144" y="503"/>
      <point x="144" y="503" type="qcurve"/>
      <point x="149" y="502" type="line"/>
      <point x="150" y="502"/>
      <point x="150" y="502" type="qcurve"/>
      <point x="155" y="501" type="line"/>
      <point x="155" y="500"/>
      <point x="156" y="500" type="qcurve"/>
      <point x="162" y="499" type="line"/>
      <point x="163" y="499"/>
      <point x="164" y="498" type="qcurve"/>
      <point x="168" y="497" type="line"/>
      <point x="169" y="497"/>
      <point x="169" y="497" type="qcurve"/>
      <point x="174" y="496" type="line"/>
      <point x="175" y="496"/>
      <point x="175" y="495" type="qcurve"/>
      <point x="181" y="494" type="line"/>
      <point x="182" y="494"/>
      <point x="183" y="494" type="qcurve"/>
      <point x="187" y="492" type="line"/>
      <point x="188" y="492"/>
      <point x="189" y="492" type="qcurve"/>
      <point x="193" y="491" type="line"/>
      <point x="194" y="491"/>
      <point x="195" y="491" type="qcurve"/>
      <point x="201" y="489" type="line"/>
      <point x="201" y="489"/>
      <point x="202" y="489" type="qcurve"/>
      <point x="206" y="488" type="line"/>
      <point x="207" y="487"/>
      <point x="208" y="487" type="qcurve"/>
      <point x="212" y="486" type="line"/>
      <point x="214" y="486"/>
      <point x="215" y="485" type="qcurve"/>
      <point x="220" y="484" type="line"/>
      <point x="220" y="484"/>
      <point x="221" y="484" type="qcurve"/>
      <point x="226" y="483" type="line"/>
      <point x="226" y="483"/>
      <point x="227" y="482" type="qcurve"/>
      <point x="232" y="481" type="line"/>
      <point x="232" y="481"/>
      <point x="233" y="481" type="qcurve"/>
      <point x="284" y="468"/>
      <point x="376" y="425"/>
      <point x="450" y="358"/>
      <point x="477" y="306" type="qcurve" smooth="yes"/>
      <point x="502" y="256"/>
      <point x="503" y="208"/>
      <point x="503" y="207" type="qcurve"/>
      <point x="503" y="162"/>
      <point x="469" y="82"/>
      <point x="406" y="21"/>
      <point x="367" y="1" type="qcurve" smooth="yes"/>
      <point x="329" y="-18"/>
      <point x="280" y="-23"/>
      <point x="269" y="-23" type="qcurve" smooth="yes"/>
      <point x="241" y="-23"/>
      <point x="175" y="-4"/>
      <point x="108" y="53"/>
      <point x="85" y="99" type="qcurve"/>
      <point x="76" y="115"/>
      <point x="69" y="147"/>
      <point x="69" y="161" type="qcurve" smooth="yes"/>
      <point x="69" y="164"/>
      <point x="70" y="183"/>
      <point x="84" y="210"/>
      <point x="98" y="217" type="qcurve" smooth="yes"/>
      <point x="107" y="221"/>
      <point x="116" y="221" type="qcurve" smooth="yes"/>
      <point x="126" y="221"/>
      <point x="156" y="207"/>
      <point x="168" y="185" type="qcurve"/>
      <point x="176" y="167"/>
      <point x="176" y="153" type="qcurve" smooth="yes"/>
      <point x="176" y="145"/>
      <point x="167" y="120"/>
      <point x="145" y="109" type="qcurve"/>
      <point x="140" y="106" type="line"/>
      <point x="129" y="104"/>
      <point x="126" y="96"/>
      <point x="126" y="94" type="qcurve"/>
      <point x="126" y="87"/>
      <point x="132" y="73" type="qcurve" smooth="yes"/>
      <point x="145" y="46"/>
      <point x="194" y="10"/>
      <point x="247" y="-5"/>
      <point x="271" y="-5" type="qcurve" smooth="yes"/>
      <point x="274" y="-5"/>
      <point x="305" y="-4"/>
      <point x="324" y="6" type="qcurve"/>
      <point x="358" y="22"/>
      <point x="388" y="77"/>
      <point x="390" y="111" type="qcurve"/>
      <point x="390" y="116"/>
      <point x="390" y="122" type="qcurve" smooth="yes"/>
      <point x="390" y="144"/>
      <point x="387" y="168" type="qcurve"/>
      <point x="338" y="179"/>
    </contour>
    <contour>
      <point x="166" y="420" type="qcurve"/>
      <point x="195" y="358"/>
      <point x="269" y="279"/>
      <point x="309" y="251" type="qcurve"/>
      <point x="341" y="230"/>
      <point x="373" y="214" type="qcurve"/>
      <point x="367" y="235"/>
      <point x="358" y="255" type="qcurve"/>
      <point x="327" y="315"/>
      <point x="254" y="395"/>
      <point x="213" y="422" type="qcurve" smooth="yes"/>
      <point x="181" y="442"/>
      <point x="149" y="457" type="qcurve"/>
      <point x="156" y="438"/>
    </contour>
  </outline>
</glyph>
<glyph name="dieresis" format="2">
  <advance width="329"/>
  <unicode hex="00A8"/>
  <outline>
    <contour>
      <point x="31" y="578" type="qcurve" smooth="yes"/>
      <point x="31" y="602"/>
      <point x="65" y="636"/>
      <point x="89" y="636" type="qcurve" smooth="yes"/>
      <point x="113" y="636"/>
      <point x="147" y="602"/>
      <point x="147" y="578" type="qcurve" smooth="yes"/>
      <point x="147" y="554"/>
      <point x="113" y="520"/>
      <point x="89" y="520" type="qcurve" smooth="yes"/>
      <point x="65" y="520"/>
      <point x="31" y="554"/>
    </contour>
    <contour>
      <point x="186" y="578" type="qcurve" smooth="yes"/>
      <point x="186" y="602"/>
      <point x="220" y="636"/>
      <point x="244" y="636" type="qcurve" smooth="yes"/>
      <point x="268" y="636"/>
      <point x="302" y="602"/>
      <point x="302" y="578" type="qcurve" smooth="yes"/>
      <point x="302" y="554"/>
      <point x="268" y="520"/>
      <point x="244" y="520" type="qcurve" smooth="yes"/>
      <point x="220" y="520"/>
      <point x="186" y="554"/>
    </contour>
  </outline>
</glyph>
<glyph name="copyright" format="2">
  <advance width="445"/>
  <unicode hex="00A9"/>
  <outline>
    <contour>
      <point x="223" y="242" type="qcurve" smooth="yes"/>
      <point x="180" y="242"/>
      <point x="104" y="275"/>
      <point x="47" y="332"/>
      <point x="14" y="407"/>
      <point x="14" y="450" type="qcurve" smooth="yes"/>
      <point x="14" y="494"/>
      <point x="47" y="570"/>
      <point x="104" y="627"/>
      <point x="180" y="659"/>
      <point x="223" y="659" type="qcurve" smooth="yes"/>
      <point x="266" y="659"/>
      <point x="342" y="627"/>
      <point x="399" y="570"/>
      <point x="431" y="494"/>
      <point x="431" y="450" type="qcurve" smooth="yes"/>
      <point x="431" y="407"/>
      <point x="399" y="332"/>
      <point x="342" y="275"/>
      <point x="266" y="242"/>
    </contour>
    <contour>
      <point x="223" y="631" type="qcurve" smooth="yes"/>
      <point x="186" y="631"/>
      <point x="120" y="603"/>
      <point x="71" y="554"/>
      <point x="42" y="488"/>
      <point x="42" y="450" type="qcurve" smooth="yes"/>
      <point x="42" y="413"/>
      <point x="71" y="347"/>
      <point x="120" y="298"/>
      <point x="186" y="270"/>
      <point x="223" y="270" type="qcurve" smooth="yes"/>
      <point x="261" y="270"/>
      <point x="327" y="298"/>
      <point x="375" y="347"/>
      <point x="403" y="413"/>
      <point x="403" y="450" type="qcurve" smooth="yes"/>
      <point x="403" y="488"/>
      <point x="375" y="554"/>
      <point x="327" y="603"/>
      <point x="261" y="631"/>
    </contour>
    <contour>
      <point x="301" y="310" type="line"/>
      <point x="301" y="314"/>
      <point x="300" y="322"/>
      <point x="298" y="329"/>
      <point x="293" y="334"/>
      <point x="289" y="334" type="qcurve"/>
      <point x="287" y="334"/>
      <point x="280" y="330"/>
      <point x="276" y="327" type="qcurve" smooth="yes"/>
      <point x="267" y="320"/>
      <point x="241" y="306"/>
      <point x="223" y="306" type="qcurve" smooth="yes"/>
      <point x="199" y="306"/>
      <point x="159" y="328"/>
      <point x="132" y="365"/>
      <point x="117" y="416"/>
      <point x="117" y="444" type="qcurve" smooth="yes"/>
      <point x="117" y="472"/>
      <point x="131" y="526"/>
      <point x="159" y="567"/>
      <point x="199" y="592"/>
      <point x="224" y="592" type="qcurve" smooth="yes"/>
      <point x="236" y="592"/>
      <point x="253" y="585"/>
      <point x="268" y="577"/>
      <point x="281" y="569"/>
      <point x="289" y="569" type="qcurve" smooth="yes"/>
      <point x="294" y="569"/>
      <point x="299" y="575"/>
      <point x="300" y="581" type="qcurve"/>
      <point x="307" y="581" type="line"/>
      <point x="307" y="497" type="line"/>
      <point x="299" y="497" type="line"/>
      <point x="298" y="512"/>
      <point x="287" y="542"/>
      <point x="269" y="567"/>
      <point x="246" y="582"/>
      <point x="232" y="582" type="qcurve" smooth="yes"/>
      <point x="219" y="582"/>
      <point x="200" y="568"/>
      <point x="187" y="545"/>
      <point x="179" y="515"/>
      <point x="174" y="485"/>
      <point x="173" y="455"/>
      <point x="173" y="444" type="qcurve" smooth="yes"/>
      <point x="173" y="423"/>
      <point x="178" y="379"/>
      <point x="193" y="343"/>
      <point x="220" y="320"/>
      <point x="243" y="320" type="qcurve" smooth="yes"/>
      <point x="255" y="320"/>
      <point x="275" y="338"/>
      <point x="290" y="365"/>
      <point x="299" y="396"/>
      <point x="301" y="409" type="qcurve"/>
      <point x="307" y="409" type="line"/>
      <point x="307" y="310" type="line"/>
    </contour>
  </outline>
</glyph>
<glyph name="ordfeminine" format="2">
  <advance width="289"/>
  <unicode hex="00AA"/>
  <outline>
    <contour>
      <point x="14" y="440" type="qcurve" smooth="yes"/>
      <point x="14" y="474"/>
      <point x="45" y="512"/>
      <point x="94" y="529"/>
      <point x="154" y="531"/>
      <point x="184" y="531" type="qcurve" smooth="yes"/>
      <point x="199" y="531" type="line"/>
      <point x="199" y="535"/>
      <point x="199" y="539" type="qcurve" smooth="yes"/>
      <point x="199" y="553"/>
      <point x="193" y="587"/>
      <point x="175" y="618"/>
      <point x="144" y="639"/>
      <point x="121" y="639" type="qcurve" smooth="yes"/>
      <point x="112" y="639"/>
      <point x="87" y="635"/>
      <point x="64" y="626"/>
      <point x="49" y="612"/>
      <point x="49" y="603" type="qcurve" smooth="yes"/>
      <point x="49" y="598"/>
      <point x="57" y="596"/>
      <point x="62" y="595" type="qcurve" smooth="yes"/>
      <point x="70" y="594"/>
      <point x="87" y="587"/>
      <point x="87" y="570" type="qcurve" smooth="yes"/>
      <point x="87" y="559"/>
      <point x="72" y="541"/>
      <point x="59" y="541" type="qcurve" smooth="yes"/>
      <point x="42" y="541"/>
      <point x="26" y="567"/>
      <point x="26" y="580" type="qcurve" smooth="yes"/>
      <point x="26" y="599"/>
      <point x="42" y="627"/>
      <point x="69" y="646"/>
      <point x="105" y="655"/>
      <point x="124" y="655" type="qcurve" smooth="yes"/>
      <point x="188" y="655"/>
      <point x="271" y="596"/>
      <point x="271" y="536" type="qcurve" smooth="yes"/>
      <point x="271" y="327" type="line"/>
      <point x="257" y="332"/>
      <point x="224" y="342"/>
      <point x="213" y="342" type="qcurve" smooth="yes"/>
      <point x="207" y="342"/>
      <point x="194" y="340"/>
      <point x="186" y="338" type="qcurve" smooth="yes"/>
      <point x="178" y="336"/>
      <point x="161" y="334"/>
      <point x="151" y="334" type="qcurve"/>
      <point x="134" y="335" type="line" smooth="yes"/>
      <point x="83" y="337"/>
      <point x="14" y="394"/>
    </contour>
    <contour>
      <point x="199" y="514" type="line"/>
      <point x="193" y="514" type="line"/>
      <point x="191" y="514"/>
      <point x="186" y="515"/>
      <point x="184" y="515" type="qcurve"/>
      <point x="133" y="515"/>
      <point x="86" y="477"/>
      <point x="86" y="434" type="qcurve" smooth="yes"/>
      <point x="86" y="421"/>
      <point x="94" y="392"/>
      <point x="111" y="368"/>
      <point x="137" y="352"/>
      <point x="155" y="352" type="qcurve" smooth="yes"/>
      <point x="167" y="352"/>
      <point x="187" y="353"/>
      <point x="199" y="358" type="qcurve"/>
    </contour>
  </outline>
</glyph>
<glyph name="guillemotleft" format="2">
  <advance width="365"/>
  <unicode hex="00AB"/>
  <outline>
    <contour>
      <point x="189" y="494" type="line"/>
      <point x="198" y="488" type="line"/>
      <point x="177" y="451"/>
      <point x="159" y="418" type="qcurve" smooth="yes"/>
      <point x="143" y="390"/>
      <point x="111" y="333"/>
      <point x="103" y="318" type="qcurve"/>
      <point x="111" y="302"/>
      <point x="127" y="274" type="qcurve" smooth="yes"/>
      <point x="130" y="269"/>
      <point x="132" y="265" type="qcurve" smooth="yes"/>
      <point x="133" y="263" type="line" smooth="yes"/>
      <point x="136" y="258"/>
      <point x="139" y="253" type="qcurve"/>
      <point x="140" y="252" type="line"/>
      <point x="146" y="241"/>
      <point x="152" y="231" type="qcurve"/>
      <point x="153" y="229" type="line" smooth="yes"/>
      <point x="155" y="224"/>
      <point x="158" y="220" type="qcurve"/>
      <point x="159" y="218" type="line"/>
      <point x="177" y="185"/>
      <point x="198" y="148" type="qcurve"/>
      <point x="189" y="142" type="line"/>
      <point x="27" y="274" type="line"/>
      <point x="16" y="296"/>
      <point x="16" y="342"/>
      <point x="27" y="362" type="qcurve"/>
    </contour>
    <contour>
      <point x="334" y="494" type="line"/>
      <point x="343" y="488" type="line"/>
      <point x="322" y="451"/>
      <point x="304" y="418" type="qcurve" smooth="yes"/>
      <point x="288" y="390"/>
      <point x="256" y="333"/>
      <point x="248" y="318" type="qcurve"/>
      <point x="256" y="302"/>
      <point x="272" y="274" type="qcurve" smooth="yes"/>
      <point x="275" y="269"/>
      <point x="277" y="265" type="qcurve" smooth="yes"/>
      <point x="278" y="263" type="line" smooth="yes"/>
      <point x="281" y="258"/>
      <point x="284" y="253" type="qcurve"/>
      <point x="285" y="252" type="line"/>
      <point x="291" y="241"/>
      <point x="297" y="231" type="qcurve"/>
      <point x="298" y="229" type="line" smooth="yes"/>
      <point x="300" y="224"/>
      <point x="303" y="220" type="qcurve"/>
      <point x="304" y="218" type="line"/>
      <point x="322" y="185"/>
      <point x="343" y="148" type="qcurve"/>
      <point x="334" y="142" type="line"/>
      <point x="172" y="274" type="line"/>
      <point x="161" y="296"/>
      <point x="161" y="342"/>
      <point x="172" y="362" type="qcurve"/>
    </contour>
  </outline>
</glyph>
<glyph name="uni00AD" format="2">
  <advance width="394"/>
  <unicode hex="00AD"/>
  <outline>
    <contour>
      <point x="45" y="359" type="line"/>
      <point x="348" y="359" type="line"/>
      <point x="348" y="317" type="line"/>
      <point x="45" y="317" type="line"/>
    </contour>
  </outline>
</glyph>
<glyph name="registered" format="2">
  <advance width="440"/>
  <unicode hex="00AE"/>
  <outline>
    <contour>
      <point x="222" y="254" type="qcurve" smooth="yes"/>
      <point x="181" y="254"/>
      <point x="106" y="287"/>
      <point x="50" y="342"/>
      <point x="17" y="416"/>
      <point x="17" y="458" type="qcurve" smooth="yes"/>
      <point x="17" y="499"/>
      <point x="50" y="572"/>
      <point x="106" y="626"/>
      <point x="181" y="657"/>
      <point x="222" y="657" type="qcurve" smooth="yes"/>
      <point x="264" y="657"/>
      <point x="337" y="626"/>
      <point x="390" y="572"/>
      <point x="420" y="499"/>
      <point x="420" y="458" type="qcurve" smooth="yes"/>
      <point x="420" y="416"/>
      <point x="390" y="342"/>
      <point x="337" y="287"/>
      <point x="264" y="254"/>
    </contour>
    <contour>
      <point x="219" y="629" type="qcurve" smooth="yes"/>
      <point x="183" y="629"/>
      <point x="121" y="600"/>
      <point x="74" y="552"/>
      <point x="47" y="489"/>
      <point x="47" y="455" type="qcurve" smooth="yes"/>
      <point x="47" y="419"/>
      <point x="74" y="357"/>
      <point x="121" y="310"/>
      <point x="183" y="284"/>
      <point x="219" y="284" type="qcurve" smooth="yes"/>
      <point x="254" y="284"/>
      <point x="317" y="310"/>
      <point x="365" y="357"/>
      <point x="394" y="419"/>
      <point x="394" y="455" type="qcurve" smooth="yes"/>
      <point x="394" y="489"/>
      <point x="365" y="552"/>
      <point x="317" y="600"/>
      <point x="254" y="629"/>
    </contour>
    <contour>
      <point x="194" y="352" type="line"/>
      <point x="212" y="352" type="line"/>
      <point x="212" y="347" type="line"/>
      <point x="135" y="347" type="line"/>
      <point x="135" y="352" type="line"/>
      <point x="154" y="352" type="line"/>
      <point x="154" y="574" type="line"/>
      <point x="135" y="574" type="line"/>
      <point x="135" y="581" type="line"/>
      <point x="236" y="581" type="line" smooth="yes"/>
      <point x="247" y="581"/>
      <point x="270" y="574"/>
      <point x="287" y="561"/>
      <point x="297" y="540"/>
      <point x="297" y="524" type="qcurve" smooth="yes"/>
      <point x="297" y="512"/>
      <point x="290" y="492"/>
      <point x="278" y="482"/>
      <point x="262" y="471"/>
      <point x="251" y="470" type="qcurve"/>
      <point x="251" y="468" type="line"/>
      <point x="266" y="462"/>
      <point x="281" y="445"/>
      <point x="292" y="424"/>
      <point x="293" y="400"/>
      <point x="293" y="389" type="qcurve"/>
      <point x="294" y="381"/>
      <point x="294" y="368"/>
      <point x="297" y="357"/>
      <point x="304" y="352"/>
      <point x="308" y="352" type="qcurve" smooth="yes"/>
      <point x="311" y="352"/>
      <point x="318" y="354"/>
      <point x="320" y="354" type="qcurve"/>
      <point x="320" y="354"/>
      <point x="320" y="354" type="qcurve"/>
      <point x="320" y="354"/>
      <point x="320" y="354" type="qcurve"/>
      <point x="320" y="354"/>
      <point x="320" y="354" type="qcurve"/>
      <point x="320" y="354"/>
      <point x="320" y="354" type="qcurve"/>
      <point x="320" y="355" type="line"/>
      <point x="322" y="348" type="line"/>
      <point x="318" y="346"/>
      <point x="305" y="345"/>
      <point x="298" y="345" type="qcurve" smooth="yes"/>
      <point x="283" y="345"/>
      <point x="266" y="354"/>
      <point x="258" y="369"/>
      <point x="253" y="391"/>
      <point x="253" y="405" type="qcurve" smooth="yes"/>
      <point x="253" y="411"/>
      <point x="251" y="420"/>
      <point x="251" y="424" type="qcurve"/>
      <point x="250" y="439"/>
      <point x="238" y="457"/>
      <point x="223" y="463"/>
      <point x="203" y="465"/>
      <point x="194" y="465" type="qcurve"/>
    </contour>
    <contour>
      <point x="194" y="574" type="line"/>
      <point x="194" y="471" type="line"/>
      <point x="204" y="471" type="line" smooth="yes"/>
      <point x="212" y="471"/>
      <point x="233" y="476"/>
      <point x="247" y="489"/>
      <point x="256" y="507"/>
      <point x="256" y="522" type="qcurve" smooth="yes"/>
      <point x="256" y="538"/>
      <point x="249" y="558"/>
      <point x="233" y="570"/>
      <point x="212" y="574"/>
      <point x="203" y="574" type="qcurve" smooth="yes"/>
    </contour>
  </outline>
</glyph>
<glyph name="degree" format="2">
  <advance width="234"/>
  <unicode hex="00B0"/>
  <outline>
    <contour>
      <point x="122" y="487" type="qcurve" smooth="yes"/>
      <point x="101" y="487"/>
      <point x="64" y="503"/>
      <point x="36" y="531"/>
      <point x="20" y="568"/>
      <point x="20" y="589" type="qcurve" smooth="yes"/>
      <point x="20" y="610"/>
      <point x="36" y="646"/>
      <point x="64" y="673"/>
      <point x="101" y="689"/>
      <point x="122" y="689" type="qcurve" smooth="yes"/>
      <point x="143" y="689"/>
      <point x="179" y="673"/>
      <point x="206" y="646"/>
      <point x="221" y="610"/>
      <point x="221" y="589" type="qcurve" smooth="yes"/>
      <point x="221" y="568"/>
      <point x="206" y="531"/>
      <point x="179" y="503"/>
      <point x="143" y="487"/>
    </contour>
    <contour>
      <point x="122" y="651" type="qcurve" smooth="yes"/>
      <point x="96" y="651"/>
      <point x="60" y="614"/>
      <point x="60" y="589" type="qcurve" smooth="yes"/>
      <point x="60" y="563"/>
      <point x="96" y="527"/>
      <point x="122" y="527" type="qcurve" smooth="yes"/>
      <point x="148" y="527"/>
      <point x="185" y="563"/>
      <point x="185" y="589" type="qcurve" smooth="yes"/>
      <point x="185" y="614"/>
      <point x="148" y="651"/>
    </contour>
  </outline>
</glyph>
<glyph name="plusminus" format="2">
  <advance width="431"/>
  <unicode hex="00B1"/>
  <outline>
    <contour>
      <point x="21" y="121" type="line"/>
      <point x="407" y="121" type="line"/>
      <point x="407" y="84" type="line"/>
      <point x="21" y="84" type="line"/>
    </contour>
    <contour>
      <point x="234" y="606" type="line"/>
      <point x="234" y="436" type="line"/>
      <point x="407" y="436" type="line"/>
      <point x="407" y="399" type="line"/>
      <point x="234" y="399" type="line"/>
      <point x="234" y="220" type="line"/>
      <point x="197" y="220" type="line"/>
      <point x="197" y="399" type="line"/>
      <point x="21" y="399" type="line"/>
      <point x="21" y="436" type="line"/>
      <point x="197" y="436" type="line"/>
      <point x="197" y="606" type="line"/>
    </contour>
  </outline>
</glyph>
<glyph name="acute" format="2">
  <advance width="206"/>
  <unicode hex="00B4"/>
  <outline>
    <contour>
      <point x="103" y="646" type="line"/>
      <point x="111" y="649"/>
      <point x="136" y="656"/>
      <point x="151" y="657"/>
      <point x="153" y="657" type="qcurve"/>
      <point x="162" y="657"/>
      <point x="182" y="651"/>
      <point x="187" y="640" type="qcurve"/>
      <point x="192" y="625"/>
      <point x="192" y="606"/>
      <point x="184" y="592"/>
      <point x="168" y="582"/>
      <point x="158" y="576" type="qcurve" smooth="yes"/>
      <point x="144" y="568"/>
      <point x="100" y="547"/>
      <point x="77" y="537" type="qcurve" smooth="yes"/>
      <point x="51" y="526"/>
      <point x="22" y="513" type="qcurve"/>
      <point x="16" y="522" type="line"/>
    </contour>
  </outline>
</glyph>
<glyph name="periodcentered" format="2">
  <advance width="189"/>
  <unicode hex="00B7"/>
  <outline>
    <contour>
      <point x="23" y="337" type="qcurve" smooth="yes"/>
      <point x="23" y="370"/>
      <point x="67" y="416"/>
      <point x="98" y="416" type="qcurve" smooth="yes"/>
      <point x="129" y="416"/>
      <point x="173" y="370"/>
      <point x="173" y="337" type="qcurve" smooth="yes"/>
      <point x="173" y="304"/>
      <point x="129" y="257"/>
      <point x="98" y="257" type="qcurve" smooth="yes"/>
      <point x="67" y="257"/>
      <point x="23" y="304"/>
    </contour>
  </outline>
</glyph>
<glyph name="cedilla" format="2">
  <advance width="345"/>
  <unicode hex="00B8"/>
  <outline>
    <contour>
      <point x="90" y="-65" type="line"/>
      <point x="152" y="7" type="line"/>
      <point x="175" y="7" type="line"/>
      <point x="134" y="-38" type="line"/>
      <point x="156" y="-31"/>
      <point x="176" y="-31" type="qcurve" smooth="yes"/>
      <point x="197" y="-31"/>
      <point x="241" y="-43"/>
      <point x="277" y="-68"/>
      <point x="299" y="-106"/>
      <point x="299" y="-132" type="qcurve" smooth="yes"/>
      <point x="299" y="-161"/>
      <point x="276" y="-201"/>
      <point x="239" y="-225"/>
      <point x="192" y="-236"/>
      <point x="169" y="-236" type="qcurve" smooth="yes"/>
      <point x="154" y="-236"/>
      <point x="122" y="-229"/>
      <point x="96" y="-213"/>
      <point x="79" y="-188"/>
      <point x="79" y="-170" type="qcurve" smooth="yes"/>
      <point x="79" y="-156"/>
      <point x="99" y="-133"/>
      <point x="116" y="-133" type="qcurve" smooth="yes"/>
      <point x="130" y="-133"/>
      <point x="149" y="-148"/>
      <point x="149" y="-161" type="qcurve" smooth="yes"/>
      <point x="149" y="-175"/>
      <point x="131" y="-184"/>
      <point x="117" y="-186" type="qcurve"/>
      <point x="118" y="-195"/>
      <point x="130" y="-206"/>
      <point x="146" y="-214"/>
      <point x="161" y="-217"/>
      <point x="166" y="-217" type="qcurve" smooth="yes"/>
      <point x="193" y="-217"/>
      <point x="220" y="-168"/>
      <point x="220" y="-136" type="qcurve" smooth="yes"/>
      <point x="220" y="-120"/>
      <point x="215" y="-90"/>
      <point x="203" y="-66"/>
      <point x="183" y="-52"/>
      <point x="168" y="-52" type="qcurve" smooth="yes"/>
      <point x="157" y="-52"/>
      <point x="132" y="-62"/>
      <point x="116" y="-76" type="qcurve"/>
    </contour>
  </outline>
</glyph>
<glyph name="onesuperior" format="2">
  <advance width="222"/>
  <unicode hex="00B9"/>
  <outline>
    <contour>
      <point x="155" y="654" type="line"/>
      <point x="155" y="344" type="line"/>
      <point x="188" y="344" type="line"/>
      <point x="188" y="328" type="line"/>
      <point x="46" y="328" type="line"/>
      <point x="46" y="329" type="line"/>
      <point x="46" y="329"/>
      <point x="46" y="330" type="qcurve"/>
      <point x="46" y="330"/>
      <point x="46" y="330" type="qcurve"/>
      <point x="46" y="330"/>
      <point x="46" y="330" type="qcurve"/>
      <point x="46" y="331" type="line"/>
      <point x="46" y="331"/>
      <point x="46" y="332" type="qcurve"/>
      <point x="46" y="332"/>
      <point x="46" y="332" type="qcurve"/>
      <point x="46" y="335" type="line"/>
      <point x="46" y="335"/>
      <point x="46" y="335" type="qcurve"/>
      <point x="46" y="336" type="line"/>
      <point x="46" y="337"/>
      <point x="46" y="337" type="qcurve"/>
      <point x="46" y="337"/>
      <point x="46" y="338" type="qcurve"/>
      <point x="46" y="338"/>
      <point x="46" y="338" type="qcurve"/>
      <point x="46" y="339" type="line"/>
      <point x="46" y="339"/>
      <point x="46" y="339" type="qcurve"/>
      <point x="46" y="339"/>
      <point x="46" y="339" type="qcurve"/>
      <point x="46" y="344" type="line"/>
      <point x="46" y="344"/>
      <point x="46" y="344" type="qcurve"/>
      <point x="76" y="344" type="line"/>
      <point x="76" y="580" type="line"/>
      <point x="36" y="552" type="line"/>
      <point x="22" y="562" type="line"/>
      <point x="120" y="654" type="line"/>
    </contour>
  </outline>
</glyph>
<glyph name="ordmasculine" format="2">
  <advance width="343"/>
  <unicode hex="00BA"/>
  <outline>
    <contour>
      <point x="166" y="655" type="qcurve" smooth="yes"/>
      <point x="199" y="655"/>
      <point x="255" y="626"/>
      <point x="295" y="580"/>
      <point x="318" y="522"/>
      <point x="318" y="493" type="qcurve" smooth="yes"/>
      <point x="318" y="457"/>
      <point x="296" y="397"/>
      <point x="255" y="353"/>
      <point x="199" y="327"/>
      <point x="166" y="326" type="qcurve"/>
      <point x="131" y="327"/>
      <point x="75" y="353"/>
      <point x="35" y="398"/>
      <point x="13" y="460"/>
      <point x="13" y="497" type="qcurve" smooth="yes"/>
      <point x="13" y="525"/>
      <point x="37" y="582"/>
      <point x="78" y="627"/>
      <point x="134" y="655"/>
    </contour>
    <contour>
      <point x="167" y="639" type="qcurve" smooth="yes"/>
      <point x="140" y="639"/>
      <point x="109" y="608"/>
      <point x="92" y="563"/>
      <point x="87" y="513"/>
      <point x="87" y="495" type="qcurve" smooth="yes"/>
      <point x="87" y="472"/>
      <point x="91" y="418"/>
      <point x="106" y="372"/>
      <point x="138" y="341"/>
      <point x="165" y="341" type="qcurve" smooth="yes"/>
      <point x="192" y="341"/>
      <point x="223" y="372"/>
      <point x="237" y="419"/>
      <point x="240" y="472"/>
      <point x="240" y="495" type="qcurve" smooth="yes"/>
      <point x="240" y="511"/>
      <point x="235" y="561"/>
      <point x="220" y="606"/>
      <point x="191" y="639"/>
    </contour>
  </outline>
</glyph>
<glyph name="guillemotright" format="2">
  <advance width="365"/>
  <unicode hex="00BB"/>
  <outline>
    <contour>
      <point x="170" y="142" type="line"/>
      <point x="161" y="148" type="line"/>
      <point x="182" y="185"/>
      <point x="200" y="218" type="qcurve" smooth="yes"/>
      <point x="216" y="246"/>
      <point x="248" y="302"/>
      <point x="256" y="318" type="qcurve"/>
      <point x="248" y="333"/>
      <point x="216" y="390"/>
      <point x="200" y="418" type="qcurve" smooth="yes"/>
      <point x="182" y="451"/>
      <point x="161" y="488" type="qcurve"/>
      <point x="170" y="494" type="line"/>
      <point x="332" y="362" type="line"/>
      <point x="343" y="340"/>
      <point x="343" y="294"/>
      <point x="332" y="274" type="qcurve"/>
    </contour>
    <contour>
      <point x="25" y="142" type="line"/>
      <point x="16" y="148" type="line"/>
      <point x="37" y="185"/>
      <point x="55" y="218" type="qcurve" smooth="yes"/>
      <point x="71" y="246"/>
      <point x="103" y="302"/>
      <point x="111" y="318" type="qcurve"/>
      <point x="103" y="333"/>
      <point x="71" y="390"/>
      <point x="55" y="418" type="qcurve" smooth="yes"/>
      <point x="37" y="451"/>
      <point x="16" y="488" type="qcurve"/>
      <point x="25" y="494" type="line"/>
      <point x="187" y="362" type="line"/>
      <point x="198" y="340"/>
      <point x="198" y="294"/>
      <point x="187" y="274" type="qcurve"/>
    </contour>
  </outline>
</glyph>
<glyph name="questiondown" format="2">
  <advance width="330"/>
  <unicode hex="00BF"/>
  <outline>
    <contour>
      <point x="226" y="581" type="qcurve" smooth="yes"/>
      <point x="209" y="581"/>
      <point x="184" y="611"/>
      <point x="184" y="632" type="qcurve" smooth="yes"/>
      <point x="184" y="655"/>
      <point x="210" y="684"/>
      <point x="227" y="684" type="qcurve" smooth="yes"/>
      <point x="245" y="684"/>
      <point x="269" y="654"/>
      <point x="269" y="632" type="qcurve" smooth="yes"/>
      <point x="269" y="611"/>
      <point x="244" y="581"/>
    </contour>
    <contour>
      <point x="216" y="514" type="line"/>
      <point x="224" y="524" type="line"/>
      <point x="227" y="517" type="line"/>
    </contour>
    <contour>
      <point x="231" y="479" type="qcurve" smooth="yes"/>
      <point x="231" y="489"/>
      <point x="229" y="507"/>
      <point x="227" y="517" type="qcurve"/>
      <point x="242" y="520" type="line"/>
      <point x="254" y="489"/>
      <point x="268" y="428"/>
      <point x="268" y="405" type="qcurve" smooth="yes"/>
      <point x="268" y="373"/>
      <point x="247" y="320"/>
      <point x="215" y="276"/>
      <point x="175" y="240"/>
      <point x="155" y="223" type="qcurve" smooth="yes"/>
      <point x="139" y="210"/>
      <point x="110" y="184"/>
      <point x="87" y="156"/>
      <point x="73" y="126"/>
      <point x="73" y="109" type="qcurve" smooth="yes"/>
      <point x="73" y="83"/>
      <point x="93" y="44"/>
      <point x="125" y="19"/>
      <point x="164" y="6"/>
      <point x="182" y="6" type="qcurve" smooth="yes"/>
      <point x="191" y="6"/>
      <point x="219" y="13"/>
      <point x="247" y="26"/>
      <point x="267" y="48"/>
      <point x="267" y="63" type="qcurve" smooth="yes"/>
      <point x="267" y="70"/>
      <point x="253" y="76"/>
      <point x="249" y="76" type="qcurve"/>
      <point x="214" y="83"/>
      <point x="214" y="123" type="qcurve" smooth="yes"/>
      <point x="214" y="143"/>
      <point x="236" y="168"/>
      <point x="253" y="168" type="qcurve" smooth="yes"/>
      <point x="264" y="168"/>
      <point x="280" y="156"/>
      <point x="291" y="136"/>
      <point x="297" y="113"/>
      <point x="297" y="101" type="qcurve" smooth="yes"/>
      <point x="297" y="75"/>
      <point x="276" y="33"/>
      <point x="243" y="4"/>
      <point x="202" y="-11"/>
      <point x="182" y="-11" type="qcurve" smooth="yes"/>
      <point x="121" y="-11"/>
      <point x="46" y="79"/>
      <point x="46" y="153" type="qcurve" smooth="yes"/>
      <point x="46" y="171"/>
      <point x="49" y="209"/>
      <point x="55" y="227" type="qcurve" smooth="yes"/>
      <point x="70" y="273"/>
      <point x="130" y="337"/>
      <point x="157" y="360" type="qcurve" smooth="yes"/>
      <point x="172" y="372"/>
      <point x="198" y="397"/>
      <point x="219" y="425"/>
      <point x="231" y="458"/>
    </contour>
  </outline>
</glyph>
<glyph name="Adieresis" format="2">
  <advance width="536"/>
  <unicode hex="00C4"/>
  <outline>
    <contour>
      <point x="147" y="766" type="qcurve" smooth="yes"/>
      <point x="147" y="790"/>
      <point x="181" y="824"/>
      <point x="205" y="824" type="qcurve" smooth="yes"/>
      <point x="229" y="824"/>
      <point x="263" y="790"/>
      <point x="263" y="766" type="qcurve" smooth="yes"/>
      <point x="263" y="742"/>
      <point x="229" y="708"/>
      <point x="205" y="708" type="qcurve" smooth="yes"/>
      <point x="181" y="708"/>
      <point x="147" y="742"/>
    </contour>
    <contour>
      <point x="302" y="766" type="qcurve" smooth="yes"/>
      <point x="302" y="790"/>
      <point x="336" y="824"/>
      <point x="360" y="824" type="qcurve" smooth="yes"/>
      <point x="384" y="824"/>
      <point x="418" y="790"/>
      <point x="418" y="766" type="qcurve" smooth="yes"/>
      <point x="418" y="742"/>
      <point x="384" y="708"/>
      <point x="360" y="708" type="qcurve" smooth="yes"/>
      <point x="336" y="708"/>
      <point x="302" y="742"/>
    </contour>
    <contour>
      <point x="-5" y="17" type="line"/>
      <point x="17" y="17"/>
      <point x="45" y="23"/>
      <point x="63" y="39"/>
      <point x="75" y="70"/>
      <point x="83" y="94" type="qcurve"/>
      <point x="126" y="240"/>
      <point x="214" y="531"/>
      <point x="258" y="677" type="qcurve"/>
      <point x="292" y="677" type="line"/>
      <point x="505" y="17" type="line"/>
      <point x="549" y="17" type="line"/>
      <point x="549" y="0" type="line"/>
      <point x="310" y="0" type="line"/>
      <point x="310" y="17" type="line"/>
      <point x="377" y="17" type="line"/>
      <point x="313" y="218" type="line"/>
      <point x="139" y="218" type="line"/>
      <point x="132" y="198" type="line" smooth="yes"/>
      <point x="127" y="183"/>
      <point x="113" y="137"/>
      <point x="100" y="91"/>
      <point x="90" y="53"/>
      <point x="90" y="46" type="qcurve" smooth="yes"/>
      <point x="90" y="34"/>
      <point x="109" y="22"/>
      <point x="135" y="17"/>
      <point x="149" y="17" type="qcurve" smooth="yes"/>
      <point x="154" y="17" type="line"/>
      <point x="155" y="17"/>
      <point x="156" y="17" type="qcurve"/>
      <point x="157" y="17" type="line"/>
      <point x="157" y="17"/>
      <point x="158" y="17" type="qcurve"/>
      <point x="159" y="17"/>
      <point x="159" y="17" type="qcurve"/>
      <point x="160" y="17" type="line"/>
      <point x="160" y="17"/>
      <point x="160" y="17" type="qcurve"/>
      <point x="172" y="17" type="line"/>
      <point x="172" y="0" type="line"/>
      <point x="-5" y="0" type="line"/>
    </contour>
    <contour>
      <point x="144" y="235" type="line"/>
      <point x="308" y="235" type="line"/>
      <point x="224" y="497" type="line"/>
    </contour>
  </outline>
</glyph>
<glyph name="AE" format="2">
  <advance width="930"/>
  <unicode hex="00C6"/>
  <outline>
    <contour>
      <point x="568" y="20" type="line"/>
      <point x="665" y="20" type="line" smooth="yes"/>
      <point x="711" y="20"/>
      <point x="790" y="25"/>
      <point x="848" y="58"/>
      <point x="882" y="130"/>
      <point x="882" y="197" type="qcurve"/>
      <point x="899" y="197" type="line"/>
      <point x="899" y="0" type="line"/>
      <point x="397" y="0" type="line"/>
      <point x="397" y="17" type="line"/>
      <point x="447" y="17" type="line"/>
      <point x="447" y="218" type="line"/>
      <point x="216" y="218" type="line"/>
      <point x="144" y="91"/>
      <point x="123" y="53"/>
      <point x="123" y="46" type="qcurve" smooth="yes"/>
      <point x="123" y="34"/>
      <point x="142" y="22"/>
      <point x="168" y="17"/>
      <point x="181" y="17" type="qcurve" smooth="yes"/>
      <point x="205" y="17" type="line"/>
      <point x="205" y="0" type="line"/>
      <point x="28" y="0" type="line"/>
      <point x="28" y="17" type="line"/>
      <point x="50" y="17"/>
      <point x="78" y="23"/>
      <point x="96" y="39"/>
      <point x="114" y="70"/>
      <point x="438" y="650" type="qcurve"/>
      <point x="396" y="650" type="line"/>
      <point x="396" y="667" type="line"/>
      <point x="898" y="667" type="line"/>
      <point x="899" y="503" type="line"/>
      <point x="882" y="503" type="line"/>
      <point x="874" y="558"/>
      <point x="833" y="617"/>
      <point x="774" y="644"/>
      <point x="699" y="647"/>
      <point x="656" y="647" type="qcurve" smooth="yes"/>
      <point x="568" y="647" type="line"/>
      <point x="568" y="352" type="line"/>
      <point x="594" y="352" type="line" smooth="yes"/>
      <point x="625" y="352"/>
      <point x="672" y="356"/>
      <point x="704" y="378"/>
      <point x="720" y="425"/>
      <point x="721" y="467" type="qcurve"/>
      <point x="737" y="467" type="line"/>
      <point x="737" y="215" type="line"/>
      <point x="721" y="215" type="line"/>
      <point x="720" y="253"/>
      <point x="707" y="298"/>
      <point x="683" y="321"/>
      <point x="649" y="328"/>
      <point x="627" y="328" type="qcurve" smooth="yes"/>
      <point x="568" y="328" type="line"/>
    </contour>
    <contour>
      <point x="228" y="235" type="line"/>
      <point x="447" y="235" type="line"/>
      <point x="447" y="628" type="line"/>
    </contour>
  </outline>
</glyph>
<glyph name="Eacute" format="2">
  <advance width="558"/>
  <unicode hex="00C9"/>
  <outline>
    <contour>
      <point x="292" y="833" type="line"/>
      <point x="300" y="836"/>
      <point x="325" y="843"/>
      <point x="340" y="844"/>
      <point x="342" y="844" type="qcurve"/>
      <point x="351" y="844"/>
      <point x="371" y="838"/>
      <point x="376" y="827" type="qcurve"/>
      <point x="381" y="812"/>
      <point x="381" y="793"/>
      <point x="373" y="779"/>
      <point x="357" y="769"/>
      <point x="347" y="763" type="qcurve" smooth="yes"/>
      <point x="333" y="755"/>
      <point x="289" y="734"/>
      <point x="266" y="724" type="qcurve" smooth="yes"/>
      <point x="240" y="713"/>
      <point x="211" y="700" type="qcurve"/>
      <point x="205" y="709" type="line"/>
    </contour>
    <contour>
      <point x="198" y="20" type="line"/>
      <point x="295" y="20" type="line" smooth="yes"/>
      <point x="341" y="20"/>
      <point x="420" y="25"/>
      <point x="478" y="58"/>
      <point x="512" y="130"/>
      <point x="512" y="197" type="qcurve"/>
      <point x="529" y="197" type="line"/>
      <point x="529" y="0" type="line"/>
      <point x="27" y="0" type="line"/>
      <point x="27" y="17" type="line"/>
      <point x="77" y="17" type="line"/>
      <point x="77" y="650" type="line"/>
      <point x="27" y="650" type="line"/>
      <point x="27" y="667" type="line"/>
      <point x="528" y="667" type="line"/>
      <point x="529" y="503" type="line"/>
      <point x="512" y="503" type="line"/>
      <point x="504" y="558"/>
      <point x="463" y="617"/>
      <point x="404" y="644"/>
      <point x="329" y="647"/>
      <point x="286" y="647" type="qcurve" smooth="yes"/>
      <point x="198" y="647" type="line"/>
      <point x="198" y="352" type="line"/>
      <point x="224" y="352" type="line" smooth="yes"/>
      <point x="255" y="352"/>
      <point x="302" y="356"/>
      <point x="334" y="378"/>
      <point x="350" y="425"/>
      <point x="351" y="467" type="qcurve"/>
      <point x="367" y="467" type="line"/>
      <point x="367" y="215" type="line"/>
      <point x="351" y="215" type="line"/>
      <point x="350" y="253"/>
      <point x="337" y="298"/>
      <point x="313" y="321"/>
      <point x="279" y="328"/>
      <point x="257" y="328" type="qcurve" smooth="yes"/>
      <point x="198" y="328" type="line"/>
    </contour>
  </outline>
</glyph>
<glyph name="Ecircumflex" format="2">
  <advance width="558"/>
  <unicode hex="00CA"/>
  <outline>
    <contour>
      <point x="412" y="717" type="line"/>
      <point x="406" y="708" type="line"/>
      <point x="382" y="717"/>
      <point x="359" y="728" type="qcurve"/>
      <point x="339" y="736"/>
      <point x="296" y="757"/>
      <point x="281" y="765" type="qcurve"/>
      <point x="279" y="764" type="line" smooth="yes"/>
      <point x="271" y="760"/>
      <point x="262" y="755" type="qcurve"/>
      <point x="261" y="755" type="line"/>
      <point x="256" y="753"/>
      <point x="252" y="750" type="qcurve"/>
      <point x="250" y="750" type="line"/>
      <point x="247" y="748"/>
      <point x="244" y="747" type="qcurve" smooth="yes"/>
      <point x="223" y="736"/>
      <point x="203" y="728" type="qcurve"/>
      <point x="180" y="717"/>
      <point x="156" y="708" type="qcurve"/>
      <point x="150" y="717" type="line"/>
      <point x="237" y="841" type="line"/>
      <point x="250" y="848"/>
      <point x="266" y="852"/>
      <point x="274" y="852" type="qcurve" smooth="yes"/>
      <point x="291" y="852"/>
      <point x="314" y="844"/>
      <point x="325" y="841" type="qcurve"/>
    </contour>
    <contour>
      <point x="198" y="20" type="line"/>
      <point x="295" y="20" type="line" smooth="yes"/>
      <point x="341" y="20"/>
      <point x="420" y="25"/>
      <point x="478" y="58"/>
      <point x="512" y="130"/>
      <point x="512" y="197" type="qcurve"/>
      <point x="529" y="197" type="line"/>
      <point x="529" y="0" type="line"/>
      <point x="27" y="0" type="line"/>
      <point x="27" y="17" type="line"/>
      <point x="77" y="17" type="line"/>
      <point x="77" y="650" type="line"/>
      <point x="27" y="650" type="line"/>
      <point x="27" y="667" type="line"/>
      <point x="528" y="667" type="line"/>
      <point x="529" y="503" type="line"/>
      <point x="512" y="503" type="line"/>
      <point x="504" y="558"/>
      <point x="463" y="617"/>
      <point x="404" y="644"/>
      <point x="329" y="647"/>
      <point x="286" y="647" type="qcurve" smooth="yes"/>
      <point x="198" y="647" type="line"/>
      <point x="198" y="352" type="line"/>
      <point x="224" y="352" type="line" smooth="yes"/>
      <point x="255" y="352"/>
      <point x="302" y="356"/>
      <point x="334" y="378"/>
      <point x="350" y="425"/>
      <point x="351" y="467" type="qcurve"/>
      <point x="367" y="467" type="line"/>
      <point x="367" y="215" type="line"/>
      <point x="351" y="215" type="line"/>
      <point x="350" y="253"/>
      <point x="337" y="298"/>
      <point x="313" y="321"/>
      <point x="279" y="328"/>
      <point x="257" y="328" type="qcurve" smooth="yes"/>
      <point x="198" y="328" type="line"/>
    </contour>
  </outline>
</glyph>
<glyph name="Igrave" format="2">
  <advance width="308"/>
  <unicode hex="00CC"/>
  <outline>
    <contour>
      <point x="218" y="709" type="line"/>
      <point x="212" y="700" type="line"/>
      <point x="183" y="713"/>
      <point x="157" y="724" type="qcurve" smooth="yes"/>
      <point x="134" y="734"/>
      <point x="89" y="755"/>
      <point x="76" y="763" type="qcurve" smooth="yes"/>
      <point x="65" y="769"/>
      <point x="50" y="779"/>
      <point x="42" y="793"/>
      <point x="42" y="812"/>
      <point x="47" y="827" type="qcurve"/>
      <point x="52" y="838"/>
      <point x="72" y="844"/>
      <point x="81" y="844" type="qcurve"/>
      <point x="83" y="844"/>
      <point x="98" y="843"/>
      <point x="123" y="836"/>
      <point x="131" y="833" type="qcurve"/>
    </contour>
    <contour>
      <point x="31" y="667" type="line"/>
      <point x="280" y="667" type="line"/>
      <point x="280" y="650" type="line"/>
      <point x="208" y="650" type="line"/>
      <point x="208" y="17" type="line"/>
      <point x="280" y="17" type="line"/>
      <point x="280" y="0" type="line"/>
      <point x="31" y="0" type="line"/>
      <point x="31" y="17" type="line"/>
      <point x="94" y="17" type="line"/>
      <point x="94" y="650" type="line"/>
      <point x="31" y="650" type="line"/>
    </contour>
  </outline>
</glyph>
<glyph name="Iacute" format="2">
  <advance width="308"/>
  <unicode hex="00CD"/>
  <outline>
    <contour>
      <point x="164" y="833" type="line"/>
      <point x="172" y="836"/>
      <point x="197" y="843"/>
      <point x="212" y="844"/>
      <point x="214" y="844" type="qcurve"/>
      <point x="223" y="844"/>
      <point x="243" y="838"/>
      <point x="248" y="827" type="qcurve"/>
      <point x="253" y="812"/>
      <point x="253" y="793"/>
      <point x="245" y="779"/>
      <point x="229" y="769"/>
      <point x="219" y="763" type="qcurve" smooth="yes"/>
      <point x="205" y="755"/>
      <point x="161" y="734"/>
      <point x="138" y="724" type="qcurve" smooth="yes"/>
      <point x="112" y="713"/>
      <point x="83" y="700" type="qcurve"/>
      <point x="77" y="709" type="line"/>
    </contour>
    <contour>
      <point x="31" y="667" type="line"/>
      <point x="280" y="667" type="line"/>
      <point x="280" y="650" type="line"/>
      <point x="208" y="650" type="line"/>
      <point x="208" y="17" type="line"/>
      <point x="280" y="17" type="line"/>
      <point x="280" y="0" type="line"/>
      <point x="31" y="0" type="line"/>
      <point x="31" y="17" type="line"/>
      <point x="94" y="17" type="line"/>
      <point x="94" y="650" type="line"/>
      <point x="31" y="650" type="line"/>
    </contour>
  </outline>
</glyph>
<glyph name="Ntilde" format="2">
  <advance width="626"/>
  <unicode hex="00D1"/>
  <outline>
    <contour>
      <point x="399" y="771" type="qcurve"/>
      <point x="412" y="773"/>
      <point x="431" y="796"/>
      <point x="436" y="808" type="qcurve"/>
      <point x="436" y="805" type="line"/>
      <point x="447" y="804" type="line"/>
      <point x="444" y="790"/>
      <point x="432" y="757"/>
      <point x="414" y="726"/>
      <point x="387" y="703"/>
      <point x="369" y="701" type="qcurve"/>
      <point x="367" y="701"/>
      <point x="364" y="701" type="qcurve" smooth="yes"/>
      <point x="354" y="701"/>
      <point x="310" y="714"/>
      <point x="281" y="722" type="qcurve" smooth="yes"/>
      <point x="272" y="724"/>
      <point x="240" y="732"/>
      <point x="233" y="732" type="qcurve"/>
      <point x="231" y="732"/>
      <point x="230" y="732" type="qcurve"/>
      <point x="218" y="730"/>
      <point x="200" y="708"/>
      <point x="195" y="697" type="qcurve"/>
      <point x="183" y="699" type="line"/>
      <point x="186" y="712"/>
      <point x="198" y="745"/>
      <point x="217" y="776"/>
      <point x="244" y="798"/>
      <point x="262" y="801" type="qcurve" smooth="yes"/>
      <point x="265" y="802"/>
      <point x="269" y="802" type="qcurve" smooth="yes"/>
      <point x="279" y="802"/>
      <point x="312" y="792"/>
      <point x="332" y="786" type="qcurve" smooth="yes"/>
      <point x="352" y="780"/>
      <point x="386" y="770"/>
      <point x="394" y="770" type="qcurve" smooth="yes"/>
      <point x="397" y="770"/>
    </contour>
    <contour>
      <point x="21" y="17" type="line"/>
      <point x="51" y="17"/>
      <point x="85" y="20"/>
      <point x="100" y="37"/>
      <point x="103" y="72"/>
      <point x="103" y="105" type="qcurve" smooth="yes"/>
      <point x="103" y="637" type="line"/>
      <point x="90" y="650" type="line"/>
      <point x="21" y="650" type="line"/>
      <point x="21" y="667" type="line"/>
      <point x="222" y="667" type="line"/>
      <point x="512" y="191" type="line"/>
      <point x="512" y="567" type="line" smooth="yes"/>
      <point x="512" y="599"/>
      <point x="509" y="633"/>
      <point x="497" y="648"/>
      <point x="474" y="650"/>
      <point x="454" y="650" type="qcurve" smooth="yes"/>
      <point x="432" y="650" type="line"/>
      <point x="432" y="667" type="line"/>
      <point x="613" y="667" type="line"/>
      <point x="613" y="650" type="line"/>
      <point x="590" y="650" type="line" smooth="yes"/>
      <point x="570" y="650"/>
      <point x="546" y="648"/>
      <point x="534" y="633"/>
      <point x="531" y="599"/>
      <point x="531" y="567" type="qcurve" smooth="yes"/>
      <point x="531" y="-5" type="line"/>
      <point x="481" y="-5" type="line"/>
      <point x="122" y="589" type="line"/>
      <point x="122" y="122" type="line" smooth="yes"/>
      <point x="122" y="82"/>
      <point x="124" y="39"/>
      <point x="139" y="20"/>
      <point x="173" y="17"/>
      <point x="205" y="17" type="qcurve"/>
      <point x="205" y="0" type="line"/>
      <point x="21" y="0" type="line"/>
    </contour>
  </outline>
</glyph>
<glyph name="Otilde" format="2">
  <advance width="595"/>
  <unicode hex="00D5"/>
  <outline>
    <contour>
      <point x="399" y="771" type="qcurve"/>
      <point x="412" y="773"/>
      <point x="431" y="796"/>
      <point x="436" y="808" type="qcurve"/>
      <point x="436" y="805" type="line"/>
      <point x="447" y="804" type="line"/>
      <point x="444" y="790"/>
      <point x="432" y="757"/>
      <point x="414" y="726"/>
      <point x="387" y="703"/>
      <point x="369" y="701" type="qcurve"/>
      <point x="367" y="701"/>
      <point x="364" y="701" type="qcurve" smooth="yes"/>
      <point x="354" y="701"/>
      <point x="310" y="714"/>
      <point x="281" y="722" type="qcurve" smooth="yes"/>
      <point x="272" y="724"/>
      <point x="240" y="732"/>
      <point x="233" y="732" type="qcurve"/>
      <point x="231" y="732"/>
      <point x="230" y="732" type="qcurve"/>
      <point x="218" y="730"/>
      <point x="200" y="708"/>
      <point x="195" y="697" type="qcurve"/>
      <point x="183" y="699" type="line"/>
      <point x="186" y="712"/>
      <point x="198" y="745"/>
      <point x="217" y="776"/>
      <point x="244" y="798"/>
      <point x="262" y="801" type="qcurve" smooth="yes"/>
      <point x="265" y="802"/>
      <point x="269" y="802" type="qcurve" smooth="yes"/>
      <point x="279" y="802"/>
      <point x="312" y="792"/>
      <point x="332" y="786" type="qcurve" smooth="yes"/>
      <point x="352" y="780"/>
      <point x="386" y="770"/>
      <point x="394" y="770" type="qcurve" smooth="yes"/>
      <point x="397" y="770"/>
    </contour>
    <contour>
      <point x="301" y="680" type="qcurve" smooth="yes"/>
      <point x="358" y="680"/>
      <point x="453" y="619"/>
      <point x="522" y="520"/>
      <point x="560" y="395"/>
      <point x="560" y="332" type="qcurve" smooth="yes"/>
      <point x="560" y="268"/>
      <point x="522" y="145"/>
      <point x="453" y="48"/>
      <point x="358" y="-12"/>
      <point x="301" y="-12" type="qcurve" smooth="yes"/>
      <point x="243" y="-12"/>
      <point x="147" y="49"/>
      <point x="79" y="149"/>
      <point x="41" y="275"/>
      <point x="41" y="340" type="qcurve" smooth="yes"/>
      <point x="41" y="402"/>
      <point x="82" y="524"/>
      <point x="153" y="620"/>
      <point x="247" y="680"/>
    </contour>
    <contour>
      <point x="303" y="664" type="qcurve" smooth="yes"/>
      <point x="271" y="664"/>
      <point x="225" y="631"/>
      <point x="193" y="576"/>
      <point x="174" y="507"/>
      <point x="163" y="434"/>
      <point x="159" y="363"/>
      <point x="159" y="335" type="qcurve" smooth="yes"/>
      <point x="159" y="306"/>
      <point x="162" y="235"/>
      <point x="172" y="162"/>
      <point x="190" y="92"/>
      <point x="221" y="37"/>
      <point x="267" y="4"/>
      <point x="300" y="4" type="qcurve" smooth="yes"/>
      <point x="333" y="4"/>
      <point x="379" y="38"/>
      <point x="409" y="93"/>
      <point x="425" y="164"/>
      <point x="433" y="237"/>
      <point x="435" y="308"/>
      <point x="435" y="336" type="qcurve" smooth="yes"/>
      <point x="435" y="361"/>
      <point x="432" y="429"/>
      <point x="422" y="501"/>
      <point x="405" y="573"/>
      <point x="375" y="629"/>
      <point x="333" y="664"/>
    </contour>
  </outline>
</glyph>
<glyph name="Uacute" format="2">
  <advance width="623"/>
  <unicode hex="00DA"/>
  <outline>
    <contour>
      <point x="329" y="833" type="line"/>
      <point x="337" y="836"/>
      <point x="362" y="843"/>
      <point x="377" y="844"/>
      <point x="379" y="844" type="qcurve"/>
      <point x="388" y="844"/>
      <point x="408" y="838"/>
      <point x="413" y="827" type="qcurve"/>
      <point x="418" y="812"/>
      <point x="418" y="793"/>
      <point x="410" y="779"/>
      <point x="394" y="769"/>
      <point x="384" y="763" type="qcurve" smooth="yes"/>
      <point x="370" y="755"/>
      <point x="326" y="734"/>
      <point x="303" y="724" type="qcurve" smooth="yes"/>
      <point x="277" y="713"/>
      <point x="248" y="700" type="qcurve"/>
      <point x="242" y="709" type="line"/>
    </contour>
    <contour>
      <point x="616" y="650" type="line"/>
      <point x="600" y="650" type="line" smooth="yes"/>
      <point x="580" y="650"/>
      <point x="555" y="648"/>
      <point x="540" y="633"/>
      <point x="535" y="599"/>
      <point x="535" y="568" type="qcurve" smooth="yes"/>
      <point x="535" y="227" type="line" smooth="yes"/>
      <point x="535" y="97"/>
      <point x="430" y="-14"/>
      <point x="325" y="-14" type="qcurve" smooth="yes"/>
      <point x="292" y="-14"/>
      <point x="213" y="-4"/>
      <point x="142" y="27"/>
      <point x="89" y="83"/>
      <point x="83" y="129" type="qcurve" smooth="yes"/>
      <point x="81" y="140"/>
      <point x="81" y="157" type="qcurve" smooth="yes"/>
      <point x="81" y="160" type="line"/>
      <point x="81" y="160"/>
      <point x="81" y="161" type="qcurve"/>
      <point x="81" y="164" type="line"/>
      <point x="81" y="166"/>
      <point x="81" y="167" type="qcurve"/>
      <point x="81" y="168" type="line"/>
      <point x="81" y="168"/>
      <point x="81" y="168" type="qcurve"/>
      <point x="81" y="169" type="line"/>
      <point x="81" y="171"/>
      <point x="81" y="172" type="qcurve"/>
      <point x="81" y="650" type="line"/>
      <point x="18" y="650" type="line"/>
      <point x="18" y="667" type="line"/>
      <point x="271" y="667" type="line"/>
      <point x="271" y="650" type="line"/>
      <point x="207" y="650" type="line"/>
      <point x="207" y="219" type="line" smooth="yes"/>
      <point x="207" y="173"/>
      <point x="218" y="96"/>
      <point x="249" y="40"/>
      <point x="303" y="8"/>
      <point x="345" y="8" type="qcurve" smooth="yes"/>
      <point x="391" y="8"/>
      <point x="456" y="41"/>
      <point x="495" y="102"/>
      <point x="513" y="189"/>
      <point x="513" y="242" type="qcurve" smooth="yes"/>
      <point x="513" y="568" type="line" smooth="yes"/>
      <point x="513" y="600"/>
      <point x="506" y="634"/>
      <point x="490" y="650"/>
      <point x="471" y="652"/>
      <point x="463" y="652" type="qcurve" smooth="yes"/>
      <point x="455" y="652"/>
      <point x="445" y="651" type="qcurve"/>
      <point x="440" y="651"/>
      <point x="429" y="650"/>
      <point x="422" y="650" type="qcurve"/>
      <point x="422" y="667" type="line"/>
      <point x="616" y="667" type="line"/>
    </contour>
  </outline>
</glyph>
<glyph name="Ucircumflex" format="2">
  <advance width="623"/>
  <unicode hex="00DB"/>
  <outline>
    <contour>
      <point x="440" y="717" type="line"/>
      <point x="434" y="708" type="line"/>
      <point x="410" y="717"/>
      <point x="387" y="728" type="qcurve"/>
      <point x="367" y="736"/>
      <point x="324" y="757"/>
      <point x="309" y="765" type="qcurve"/>
      <point x="307" y="764" type="line" smooth="yes"/>
      <point x="302" y="761"/>
      <point x="297" y="759" type="qcurve" smooth="yes"/>
      <point x="295" y="758" type="line" smooth="yes"/>
      <point x="292" y="757"/>
      <point x="290" y="755" type="qcurve"/>
      <point x="289" y="755" type="line"/>
      <point x="284" y="753"/>
      <point x="280" y="750" type="qcurve"/>
      <point x="278" y="750" type="line"/>
      <point x="275" y="748"/>
      <point x="272" y="747" type="qcurve" smooth="yes"/>
      <point x="251" y="736"/>
      <point x="231" y="728" type="qcurve"/>
      <point x="208" y="717"/>
      <point x="184" y="708" type="qcurve"/>
      <point x="178" y="717" type="line"/>
      <point x="265" y="841" type="line"/>
      <point x="278" y="848"/>
      <point x="294" y="852"/>
      <point x="302" y="852" type="qcurve" smooth="yes"/>
      <point x="319" y="852"/>
      <point x="342" y="844"/>
      <point x="353" y="841" type="qcurve"/>
    </contour>
    <contour>
      <point x="616" y="650" type="line"/>
      <point x="600" y="650" type="line" smooth="yes"/>
      <point x="580" y="650"/>
      <point x="555" y="648"/>
      <point x="540" y="633"/>
      <point x="535" y="599"/>
      <point x="535" y="568" type="qcurve" smooth="yes"/>
      <point x="535" y="227" type="line" smooth="yes"/>
      <point x="535" y="97"/>
      <point x="430" y="-14"/>
      <point x="325" y="-14" type="qcurve" smooth="yes"/>
      <point x="292" y="-14"/>
      <point x="213" y="-4"/>
      <point x="142" y="27"/>
      <point x="89" y="83"/>
      <point x="83" y="129" type="qcurve" smooth="yes"/>
      <point x="81" y="140"/>
      <point x="81" y="157" type="qcurve" smooth="yes"/>
      <point x="81" y="160" type="line"/>
      <point x="81" y="160"/>
      <point x="81" y="161" type="qcurve"/>
      <point x="81" y="164" type="line"/>
      <point x="81" y="166"/>
      <point x="81" y="167" type="qcurve"/>
      <point x="81" y="168" type="line"/>
      <point x="81" y="168"/>
      <point x="81" y="168" type="qcurve"/>
      <point x="81" y="169" type="line"/>
      <point x="81" y="171"/>
      <point x="81" y="172" type="qcurve"/>
      <point x="81" y="650" type="line"/>
      <point x="18" y="650" type="line"/>
      <point x="18" y="667" type="line"/>
      <point x="271" y="667" type="line"/>
      <point x="271" y="650" type="line"/>
      <point x="207" y="650" type="line"/>
      <point x="207" y="219" type="line" smooth="yes"/>
      <point x="207" y="173"/>
      <point x="218" y="96"/>
      <point x="249" y="40"/>
      <point x="303" y="8"/>
      <point x="345" y="8" type="qcurve" smooth="yes"/>
      <point x="391" y="8"/>
      <point x="456" y="41"/>
      <point x="495" y="102"/>
      <point x="513" y="189"/>
      <point x="513" y="242" type="qcurve" smooth="yes"/>
      <point x="513" y="568" type="line" smooth="yes"/>
      <point x="513" y="600"/>
      <point x="506" y="634"/>
      <point x="490" y="650"/>
      <point x="471" y="652"/>
      <point x="463" y="652" type="qcurve" smooth="yes"/>
      <point x="455" y="652"/>
      <point x="445" y="651" type="qcurve"/>
      <point x="440" y="651"/>
      <point x="429" y="650"/>
      <point x="422" y="650" type="qcurve"/>
      <point x="422" y="667" type="line"/>
      <point x="616" y="667" type="line"/>
    </contour>
  </outline>
</glyph>
<glyph name="agrave" format="2">
  <advance width="536"/>
  <unicode hex="00E0"/>
  <outline>
    <contour>
      <point x="386" y="709" type="line"/>
      <point x="380" y="700" type="line"/>
      <point x="351" y="713"/>
      <point x="325" y="724" type="qcurve" smooth="yes"/>
      <point x="302" y="734"/>
      <point x="257" y="755"/>
      <point x="244" y="763" type="qcurve" smooth="yes"/>
      <point x="233" y="769"/>
      <point x="218" y="779"/>
      <point x="210" y="793"/>
      <point x="210" y="812"/>
      <point x="215" y="827" type="qcurve"/>
      <point x="220" y="838"/>
      <point x="240" y="844"/>
      <point x="249" y="844" type="qcurve"/>
      <point x="251" y="844"/>
      <point x="266" y="843"/>
      <point x="291" y="836"/>
      <point x="299" y="833" type="qcurve"/>
    </contour>
    <contour>
      <point x="-5" y="17" type="line"/>
      <point x="17" y="17"/>
      <point x="45" y="23"/>
      <point x="63" y="39"/>
      <point x="75" y="70"/>
      <point x="83" y="94" type="qcurve"/>
      <point x="126" y="240"/>
      <point x="214" y="531"/>
      <point x="258" y="677" type="qcurve"/>
      <point x="292" y="677" type="line"/>
      <point x="505" y="17" type="line"/>
      <point x="549" y="17" type="line"/>
      <point x="549" y="0" type="line"/>
      <point x="310" y="0" type="line"/>
      <point x="310" y="17" type="line"/>
      <point x="377" y="17" type="line"/>
      <point x="313" y="218" type="line"/>
      <point x="139" y="218" type="line"/>
      <point x="132" y="198" type="line" smooth="yes"/>
      <point x="127" y="183"/>
      <point x="113" y="137"/>
      <point x="100" y="91"/>
      <point x="90" y="53"/>
      <point x="90" y="46" type="qcurve" smooth="yes"/>
      <point x="90" y="34"/>
      <point x="109" y="22"/>
      <point x="135" y="17"/>
      <point x="149" y="17" type="qcurve" smooth="yes"/>
      <point x="154" y="17" type="line"/>
      <point x="155" y="17"/>
      <point x="156" y="17" type="qcurve"/>
      <point x="157" y="17" type="line"/>
      <point x="157" y="17"/>
      <point x="158" y="17" type="qcurve"/>
      <point x="159" y="17"/>
      <point x="159" y="17" type="qcurve"/>
      <point x="160" y="17" type="line"/>
      <point x="160" y="17"/>
      <point x="160" y="17" type="qcurve"/>
      <point x="172" y="17" type="line"/>
      <point x="172" y="0" type="line"/>
      <point x="-5" y="0" type="line"/>
    </contour>
    <contour>
      <point x="144" y="235" type="line"/>
      <point x="308" y="235" type="line"/>
      <point x="224" y="497" type="line"/>
    </contour>
  </outline>
</glyph>
<glyph name="aacute" format="2">
  <advance width="536"/>
  <unicode hex="00E1"/>
  <outline>
    <contour>
      <point x="289" y="833" type="line"/>
      <point x="297" y="836"/>
      <point x="322" y="843"/>
      <point x="337" y="844"/>
      <point x="339" y="844" type="qcurve"/>
      <point x="348" y="844"/>
      <point x="368" y="838"/>
      <point x="373" y="827" type="qcurve"/>
      <point x="378" y="812"/>
      <point x="378" y="793"/>
      <point x="370" y="779"/>
      <point x="354" y="769"/>
      <point x="344" y="763" type="qcurve" smooth="yes"/>
      <point x="330" y="755"/>
      <point x="286" y="734"/>
      <point x="263" y="724" type="qcurve" smooth="yes"/>
      <point x="237" y="713"/>
      <point x="208" y="700" type="qcurve"/>
      <point x="202" y="709" type="line"/>
    </contour>
    <contour>
      <point x="-5" y="17" type="line"/>
      <point x="17" y="17"/>
      <point x="45" y="23"/>
      <point x="63" y="39"/>
      <point x="75" y="70"/>
      <point x="83" y="94" type="qcurve"/>
      <point x="126" y="240"/>
      <point x="214" y="531"/>
      <point x="258" y="677" type="qcurve"/>
      <point x="292" y="677" type="line"/>
      <point x="505" y="17" type="line"/>
      <point x="549" y="17" type="line"/>
      <point x="549" y="0" type="line"/>
      <point x="310" y="0" type="line"/>
      <point x="310" y="17" type="line"/>
      <point x="377" y="17" type="line"/>
      <point x="313" y="218" type="line"/>
      <point x="139" y="218" type="line"/>
      <point x="132" y="198" type="line" smooth="yes"/>
      <point x="127" y="183"/>
      <point x="113" y="137"/>
      <point x="100" y="91"/>
      <point x="90" y="53"/>
      <point x="90" y="46" type="qcurve" smooth="yes"/>
      <point x="90" y="34"/>
      <point x="109" y="22"/>
      <point x="135" y="17"/>
      <point x="149" y="17" type="qcurve" smooth="yes"/>
      <point x="154" y="17" type="line"/>
      <point x="155" y="17"/>
      <point x="156" y="17" type="qcurve"/>
      <point x="157" y="17" type="line"/>
      <point x="157" y="17"/>
      <point x="158" y="17" type="qcurve"/>
      <point x="159" y="17"/>
      <point x="159" y="17" type="qcurve"/>
      <point x="160" y="17" type="line"/>
      <point x="160" y="17"/>
      <point x="160" y="17" type="qcurve"/>
      <point x="172" y="17" type="line"/>
      <point x="172" y="0" type="line"/>
      <point x="-5" y="0" type="line"/>
    </contour>
    <contour>
      <point x="144" y="235" type="line"/>
      <point x="308" y="235" type="line"/>
      <point x="224" y="497" type="line"/>
    </contour>
  </outline>
</glyph>
<glyph name="acircumflex" format="2">
  <advance width="536"/>
  <unicode hex="00E2"/>
  <outline>
    <contour>
      <point x="412" y="717" type="line"/>
      <point x="406" y="708" type="line"/>
      <point x="382" y="717"/>
      <point x="359" y="728" type="qcurve"/>
      <point x="339" y="736"/>
      <point x="296" y="757"/>
      <point x="281" y="765" type="qcurve"/>
      <point x="279" y="764" type="line" smooth="yes"/>
      <point x="271" y="760"/>
      <point x="262" y="755" type="qcurve"/>
      <point x="261" y="755" type="line"/>
      <point x="256" y="753"/>
      <point x="252" y="750" type="qcurve"/>
      <point x="250" y="750" type="line"/>
      <point x="247" y="748"/>
      <point x="244" y="747" type="qcurve" smooth="yes"/>
      <point x="223" y="736"/>
      <point x="203" y="728" type="qcurve"/>
      <point x="180" y="717"/>
      <point x="156" y="708" type="qcurve"/>
      <point x="150" y="717" type="line"/>
      <point x="237" y="841" type="line"/>
      <point x="250" y="848"/>
      <point x="266" y="852"/>
      <point x="274" y="852" type="qcurve" smooth="yes"/>
      <point x="291" y="852"/>
      <point x="314" y="844"/>
      <point x="325" y="841" type="qcurve"/>
    </contour>
    <contour>
      <point x="-5" y="17" type="line"/>
      <point x="17" y="17"/>
      <point x="45" y="23"/>
      <point x="63" y="39"/>
      <point x="75" y="70"/>
      <point x="83" y="94" type="qcurve"/>
      <point x="126" y="240"/>
      <point x="214" y="531"/>
      <point x="258" y="677" type="qcurve"/>
      <point x="292" y="677" type="line"/>
      <point x="505" y="17" type="line"/>
      <point x="549" y="17" type="line"/>
      <point x="549" y="0" type="line"/>
      <point x="310" y="0" type="line"/>
      <point x="310" y="17" type="line"/>
      <point x="377" y="17" type="line"/>
      <point x="313" y="218" type="line"/>
      <point x="139" y="218" type="line"/>
      <point x="132" y="198" type="line" smooth="yes"/>
      <point x="127" y="183"/>
      <point x="113" y="137"/>
      <point x="100" y="91"/>
      <point x="90" y="53"/>
      <point x="90" y="46" type="qcurve" smooth="yes"/>
      <point x="90" y="34"/>
      <point x="109" y="22"/>
      <point x="135" y="17"/>
      <point x="149" y="17" type="qcurve" smooth="yes"/>
      <point x="154" y="17" type="line"/>
      <point x="155" y="17"/>
      <point x="156" y="17" type="qcurve"/>
      <point x="157" y="17" type="line"/>
      <point x="157" y="17"/>
      <point x="158" y="17" type="qcurve"/>
      <point x="159" y="17"/>
      <point x="159" y="17" type="qcurve"/>
      <point x="160" y="17" type="line"/>
      <point x="160" y="17"/>
      <point x="160" y="17" type="qcurve"/>
      <point x="172" y="17" type="line"/>
      <point x="172" y="0" type="line"/>
      <point x="-5" y="0" type="line"/>
    </contour>
    <contour>
      <point x="144" y="235" type="line"/>
      <point x="308" y="235" type="line"/>
      <point x="224" y="497" type="line"/>
    </contour>
  </outline>
</glyph>
<glyph name="atilde" format="2">
  <advance width="536"/>
  <unicode hex="00E3"/>
  <outline>
    <contour>
      <point x="371" y="771" type="qcurve"/>
      <point x="384" y="773"/>
      <point x="403" y="796"/>
      <point x="408" y="808" type="qcurve"/>
      <point x="408" y="805" type="line"/>
      <point x="419" y="804" type="line"/>
      <point x="416" y="790"/>
      <point x="404" y="757"/>
      <point x="386" y="726"/>
      <point x="359" y="703"/>
      <point x="341" y="701" type="qcurve"/>
      <point x="339" y="701"/>
      <point x="336" y="701" type="qcurve" smooth="yes"/>
      <point x="326" y="701"/>
      <point x="282" y="714"/>
      <point x="253" y="722" type="qcurve" smooth="yes"/>
      <point x="244" y="724"/>
      <point x="212" y="732"/>
      <point x="205" y="732" type="qcurve"/>
      <point x="203" y="732"/>
      <point x="202" y="732" type="qcurve"/>
      <point x="190" y="730"/>
      <point x="172" y="708"/>
      <point x="167" y="697" type="qcurve"/>
      <point x="155" y="699" type="line"/>
      <point x="158" y="712"/>
      <point x="170" y="745"/>
      <point x="189" y="776"/>
      <point x="216" y="798"/>
      <point x="234" y="801" type="qcurve" smooth="yes"/>
      <point x="237" y="802"/>
      <point x="241" y="802" type="qcurve" smooth="yes"/>
      <point x="251" y="802"/>
      <point x="284" y="792"/>
      <point x="304" y="786" type="qcurve" smooth="yes"/>
      <point x="324" y="780"/>
      <point x="358" y="770"/>
      <point x="366" y="770" type="qcurve" smooth="yes"/>
      <point x="369" y="770"/>
    </contour>
    <contour>
      <point x="-5" y="17" type="line"/>
      <point x="17" y="17"/>
      <point x="45" y="23"/>
      <point x="63" y="39"/>
      <point x="75" y="70"/>
      <point x="83" y="94" type="qcurve"/>
      <point x="126" y="240"/>
      <point x="214" y="531"/>
      <point x="258" y="677" type="qcurve"/>
      <point x="292" y="677" type="line"/>
      <point x="505" y="17" type="line"/>
      <point x="549" y="17" type="line"/>
      <point x="549" y="0" type="line"/>
      <point x="310" y="0" type="line"/>
      <point x="310" y="17" type="line"/>
      <point x="377" y="17" type="line"/>
      <point x="313" y="218" type="line"/>
      <point x="139" y="218" type="line"/>
      <point x="132" y="198" type="line" smooth="yes"/>
      <point x="127" y="183"/>
      <point x="113" y="137"/>
      <point x="100" y="91"/>
      <point x="90" y="53"/>
      <point x="90" y="46" type="qcurve" smooth="yes"/>
      <point x="90" y="34"/>
      <point x="109" y="22"/>
      <point x="135" y="17"/>
      <point x="149" y="17" type="qcurve" smooth="yes"/>
      <point x="154" y="17" type="line"/>
      <point x="155" y="17"/>
      <point x="156" y="17" type="qcurve"/>
      <point x="157" y="17" type="line"/>
      <point x="157" y="17"/>
      <point x="158" y="17" type="qcurve"/>
      <point x="159" y="17"/>
      <point x="159" y="17" type="qcurve"/>
      <point x="160" y="17" type="line"/>
      <point x="160" y="17"/>
      <point x="160" y="17" type="qcurve"/>
      <point x="172" y="17" type="line"/>
      <point x="172" y="0" type="line"/>
      <point x="-5" y="0" type="line"/>
    </contour>
    <contour>
      <point x="144" y="235" type="line"/>
      <point x="308" y="235" type="line"/>
      <point x="224" y="497" type="line"/>
    </contour>
  </outline>
</glyph>
<glyph name="aring" format="2">
  <advance width="536"/>
  <unicode hex="00E5"/>
  <outline>
    <contour>
      <point x="271" y="701" type="qcurve" smooth="yes"/>
      <point x="242" y="701"/>
      <point x="204" y="740"/>
      <point x="204" y="769" type="qcurve" smooth="yes"/>
      <point x="204" y="797"/>
      <point x="242" y="835"/>
      <point x="271" y="835" type="qcurve" smooth="yes"/>
      <point x="300" y="835"/>
      <point x="338" y="798"/>
      <point x="338" y="769" type="qcurve" smooth="yes"/>
      <point x="338" y="741"/>
      <point x="299" y="701"/>
    </contour>
    <contour>
      <point x="270" y="805" type="qcurve" smooth="yes"/>
      <point x="254" y="805"/>
      <point x="232" y="784"/>
      <point x="232" y="769" type="qcurve" smooth="yes"/>
      <point x="232" y="754"/>
      <point x="254" y="732"/>
      <point x="270" y="732" type="qcurve" smooth="yes"/>
      <point x="286" y="732"/>
      <point x="308" y="753"/>
      <point x="308" y="769" type="qcurve" smooth="yes"/>
      <point x="308" y="784"/>
      <point x="286" y="805"/>
    </contour>
    <contour>
      <point x="-5" y="17" type="line"/>
      <point x="17" y="17"/>
      <point x="45" y="23"/>
      <point x="63" y="39"/>
      <point x="75" y="70"/>
      <point x="83" y="94" type="qcurve"/>
      <point x="126" y="240"/>
      <point x="214" y="531"/>
      <point x="258" y="677" type="qcurve"/>
      <point x="292" y="677" type="line"/>
      <point x="505" y="17" type="line"/>
      <point x="549" y="17" type="line"/>
      <point x="549" y="0" type="line"/>
      <point x="310" y="0" type="line"/>
      <point x="310" y="17" type="line"/>
      <point x="377" y="17" type="line"/>
      <point x="313" y="218" type="line"/>
      <point x="139" y="218" type="line"/>
      <point x="132" y="198" type="line" smooth="yes"/>
      <point x="127" y="183"/>
      <point x="113" y="137"/>
      <point x="100" y="91"/>
      <point x="90" y="53"/>
      <point x="90" y="46" type="qcurve" smooth="yes"/>
      <point x="90" y="34"/>
      <point x="109" y="22"/>
      <point x="135" y="17"/>
      <point x="149" y="17" type="qcurve" smooth="yes"/>
      <point x="154" y="17" type="line"/>
      <point x="155" y="17"/>
      <point x="156" y="17" type="qcurve"/>
      <point x="157" y="17" type="line"/>
      <point x="157" y="17"/>
      <point x="158" y="17" type="qcurve"/>
      <point x="159" y="17"/>
      <point x="159" y="17" type="qcurve"/>
      <point x="160" y="17" type="line"/>
      <point x="160" y="17"/>
      <point x="160" y="17" type="qcurve"/>
      <point x="172" y="17" type="line"/>
      <point x="172" y="0" type="line"/>
      <point x="-5" y="0" type="line"/>
    </contour>
    <contour>
      <point x="144" y="235" type="line"/>
      <point x="308" y="235" type="line"/>
      <point x="224" y="497" type="line"/>
    </contour>
  </outline>
</glyph>
<glyph name="ccedilla" format="2">
  <advance width="551"/>
  <unicode hex="00E7"/>
  <outline>
    <contour>
      <point x="484" y="0" type="line"/>
      <point x="484" y="9"/>
      <point x="482" y="29"/>
      <point x="476" y="46"/>
      <point x="465" y="58"/>
      <point x="456" y="58" type="qcurve" smooth="yes"/>
      <point x="451" y="58"/>
      <point x="434" y="48"/>
      <point x="423" y="40" type="qcurve" smooth="yes"/>
      <point x="403" y="24"/>
      <point x="340" y="-11"/>
      <point x="297" y="-11" type="qcurve" smooth="yes"/>
      <point x="289" y="-11"/>
      <point x="281" y="-11" type="qcurve"/>
      <point x="256" y="-38" type="line"/>
      <point x="278" y="-31"/>
      <point x="298" y="-31" type="qcurve" smooth="yes"/>
      <point x="319" y="-31"/>
      <point x="363" y="-43"/>
      <point x="399" y="-68"/>
      <point x="421" y="-106"/>
      <point x="421" y="-132" type="qcurve" smooth="yes"/>
      <point x="421" y="-161"/>
      <point x="398" y="-201"/>
      <point x="361" y="-225"/>
      <point x="314" y="-236"/>
      <point x="291" y="-236" type="qcurve" smooth="yes"/>
      <point x="276" y="-236"/>
      <point x="244" y="-229"/>
      <point x="218" y="-213"/>
      <point x="201" y="-188"/>
      <point x="201" y="-170" type="qcurve" smooth="yes"/>
      <point x="201" y="-156"/>
      <point x="221" y="-133"/>
      <point x="238" y="-133" type="qcurve" smooth="yes"/>
      <point x="252" y="-133"/>
      <point x="271" y="-148"/>
      <point x="271" y="-161" type="qcurve" smooth="yes"/>
      <point x="271" y="-175"/>
      <point x="253" y="-184"/>
      <point x="239" y="-186" type="qcurve"/>
      <point x="240" y="-195"/>
      <point x="252" y="-206"/>
      <point x="268" y="-214"/>
      <point x="283" y="-217"/>
      <point x="288" y="-217" type="qcurve" smooth="yes"/>
      <point x="315" y="-217"/>
      <point x="342" y="-168"/>
      <point x="342" y="-136" type="qcurve" smooth="yes"/>
      <point x="342" y="-120"/>
      <point x="337" y="-90"/>
      <point x="325" y="-66"/>
      <point x="305" y="-52"/>
      <point x="290" y="-52" type="qcurve" smooth="yes"/>
      <point x="279" y="-52"/>
      <point x="254" y="-62"/>
      <point x="238" y="-76" type="qcurve"/>
      <point x="212" y="-65" type="line"/>
      <point x="261" y="-8" type="line"/>
      <point x="223" y="-3"/>
      <point x="191" y="16" type="qcurve"/>
      <point x="143" y="42"/>
      <point x="77" y="132"/>
      <point x="41" y="253"/>
      <point x="41" y="321" type="qcurve" smooth="yes"/>
      <point x="41" y="389"/>
      <point x="76" y="518"/>
      <point x="142" y="617"/>
      <point x="238" y="677"/>
      <point x="300" y="677" type="qcurve" smooth="yes"/>
      <point x="327" y="677"/>
      <point x="369" y="660"/>
      <point x="405" y="640"/>
      <point x="437" y="623"/>
      <point x="455" y="623" type="qcurve" smooth="yes"/>
      <point x="467" y="623"/>
      <point x="479" y="636"/>
      <point x="481" y="650" type="qcurve"/>
      <point x="499" y="650" type="line"/>
      <point x="499" y="448" type="line"/>
      <point x="479" y="448" type="line"/>
      <point x="477" y="484"/>
      <point x="450" y="557"/>
      <point x="408" y="616"/>
      <point x="351" y="653"/>
      <point x="319" y="653" type="qcurve" smooth="yes"/>
      <point x="287" y="653"/>
      <point x="241" y="619"/>
      <point x="209" y="563"/>
      <point x="190" y="492"/>
      <point x="179" y="419"/>
      <point x="176" y="348"/>
      <point x="176" y="321" type="qcurve" smooth="yes"/>
      <point x="176" y="270"/>
      <point x="188" y="165"/>
      <point x="224" y="78"/>
      <point x="290" y="23"/>
      <point x="344" y="23" type="qcurve" smooth="yes"/>
      <point x="373" y="23"/>
      <point x="421" y="66"/>
      <point x="457" y="131"/>
      <point x="480" y="206"/>
      <point x="484" y="238" type="qcurve"/>
      <point x="499" y="238" type="line"/>
      <point x="499" y="0" type="line"/>
    </contour>
  </outline>
</glyph>
<glyph name="edieresis" format="2">
  <advance width="558"/>
  <unicode hex="00EB"/>
  <outline>
    <contour>
      <point x="155" y="766" type="qcurve" smooth="yes"/>
      <point x="155" y="790"/>
      <point x="189" y="824"/>
      <point x="213" y="824" type="qcurve" smooth="yes"/>
      <point x="237" y="824"/>
      <point x="271" y="790"/>
      <point x="271" y="766" type="qcurve" smooth="yes"/>
      <point x="271" y="742"/>
      <point x="237" y="708"/>
      <point x="213" y="708" type="qcurve" smooth="yes"/>
      <point x="189" y="708"/>
      <point x="155" y="742"/>
    </contour>
    <contour>
      <point x="310" y="766" type="qcurve" smooth="yes"/>
      <point x="310" y="790"/>
      <point x="344" y="824"/>
      <point x="368" y="824" type="qcurve" smooth="yes"/>
      <point x="392" y="824"/>
      <point x="426" y="790"/>
      <point x="426" y="766" type="qcurve" smooth="yes"/>
      <point x="426" y="742"/>
      <point x="392" y="708"/>
      <point x="368" y="708" type="qcurve" smooth="yes"/>
      <point x="344" y="708"/>
      <point x="310" y="742"/>
    </contour>
    <contour>
      <point x="198" y="20" type="line"/>
      <point x="295" y="20" type="line" smooth="yes"/>
      <point x="341" y="20"/>
      <point x="420" y="25"/>
      <point x="478" y="58"/>
      <point x="512" y="130"/>
      <point x="512" y="197" type="qcurve"/>
      <point x="529" y="197" type="line"/>
      <point x="529" y="0" type="line"/>
      <point x="27" y="0" type="line"/>
      <point x="27" y="17" type="line"/>
      <point x="77" y="17" type="line"/>
      <point x="77" y="650" type="line"/>
      <point x="27" y="650" type="line"/>
      <point x="27" y="667" type="line"/>
      <point x="528" y="667" type="line"/>
      <point x="529" y="503" type="line"/>
      <point x="512" y="503" type="line"/>
      <point x="504" y="558"/>
      <point x="463" y="617"/>
      <point x="404" y="644"/>
      <point x="329" y="647"/>
      <point x="286" y="647" type="qcurve" smooth="yes"/>
      <point x="198" y="647" type="line"/>
      <point x="198" y="352" type="line"/>
      <point x="224" y="352" type="line" smooth="yes"/>
      <point x="255" y="352"/>
      <point x="302" y="356"/>
      <point x="334" y="378"/>
      <point x="350" y="425"/>
      <point x="351" y="467" type="qcurve"/>
      <point x="367" y="467" type="line"/>
      <point x="367" y="215" type="line"/>
      <point x="351" y="215" type="line"/>
      <point x="350" y="253"/>
      <point x="337" y="298"/>
      <point x="313" y="321"/>
      <point x="279" y="328"/>
      <point x="257" y="328" type="qcurve" smooth="yes"/>
      <point x="198" y="328" type="line"/>
    </contour>
  </outline>
</glyph>
<glyph name="icircumflex" format="2">
  <advance width="308"/>
  <unicode hex="00EE"/>
  <outline>
    <contour>
      <point x="202" y="719" type="line"/>
      <point x="191" y="716"/>
      <point x="168" y="708"/>
      <point x="151" y="708" type="qcurve" smooth="yes"/>
      <point x="143" y="708"/>
      <point x="127" y="712"/>
      <point x="114" y="719" type="qcurve"/>
      <point x="27" y="843" type="line"/>
      <point x="33" y="852" type="line"/>
      <point x="57" y="842"/>
      <point x="80" y="832" type="qcurve" smooth="yes"/>
      <point x="100" y="823"/>
      <point x="142" y="803"/>
      <point x="158" y="795" type="qcurve"/>
      <point x="173" y="803"/>
      <point x="216" y="823"/>
      <point x="236" y="832" type="qcurve" smooth="yes"/>
      <point x="259" y="842"/>
      <point x="283" y="852" type="qcurve"/>
      <point x="289" y="843" type="line"/>
    </contour>
    <contour>
      <point x="31" y="667" type="line"/>
      <point x="280" y="667" type="line"/>
      <point x="280" y="650" type="line"/>
      <point x="208" y="650" type="line"/>
      <point x="208" y="17" type="line"/>
      <point x="280" y="17" type="line"/>
      <point x="280" y="0" type="line"/>
      <point x="31" y="0" type="line"/>
      <point x="31" y="17" type="line"/>
      <point x="94" y="17" type="line"/>
      <point x="94" y="650" type="line"/>
      <point x="31" y="650" type="line"/>
    </contour>
  </outline>
</glyph>
<glyph name="idieresis" format="2">
  <advance width="308"/>
  <unicode hex="00EF"/>
  <outline>
    <contour>
      <point x="18" y="766" type="qcurve" smooth="yes"/>
      <point x="18" y="790"/>
      <point x="52" y="824"/>
      <point x="76" y="824" type="qcurve" smooth="yes"/>
      <point x="100" y="824"/>
      <point x="134" y="790"/>
      <point x="134" y="766" type="qcurve" smooth="yes"/>
      <point x="134" y="742"/>
      <point x="100" y="708"/>
      <point x="76" y="708" type="qcurve" smooth="yes"/>
      <point x="52" y="708"/>
      <point x="18" y="742"/>
    </contour>
    <contour>
      <point x="173" y="766" type="qcurve" smooth="yes"/>
      <point x="173" y="790"/>
      <point x="207" y="824"/>
      <point x="231" y="824" type="qcurve" smooth="yes"/>
      <point x="255" y="824"/>
      <point x="289" y="790"/>
      <point x="289" y="766" type="qcurve" smooth="yes"/>
      <point x="289" y="742"/>
      <point x="255" y="708"/>
      <point x="231" y="708" type="qcurve" smooth="yes"/>
      <point x="207" y="708"/>
      <point x="173" y="742"/>
    </contour>
    <contour>
      <point x="31" y="667" type="line"/>
      <point x="280" y="667" type="line"/>
      <point x="280" y="650" type="line"/>
      <point x="208" y="650" type="line"/>
      <point x="208" y="17" type="line"/>
      <point x="280" y="17" type="line"/>
      <point x="280" y="0" type="line"/>
      <point x="31" y="0" type="line"/>
      <point x="31" y="17" type="line"/>
      <point x="94" y="17" type="line"/>
      <point x="94" y="650" type="line"/>
      <point x="31" y="650" type="line"/>
    </contour>
  </outline>
</glyph>
<glyph name="ograve" format="2">
  <advance width="595"/>
  <unicode hex="00F2"/>
  <outline>
    <contour>
      <point x="386" y="709" type="line"/>
      <point x="380" y="700" type="line"/>
      <point x="351" y="713"/>
      <point x="325" y="724" type="qcurve" smooth="yes"/>
      <point x="302" y="734"/>
      <point x="257" y="755"/>
      <point x="244" y="763" type="qcurve" smooth="yes"/>
      <point x="233" y="769"/>
      <point x="218" y="779"/>
      <point x="210" y="793"/>
      <point x="210" y="812"/>
      <point x="215" y="827" type="qcurve"/>
      <point x="220" y="838"/>
      <point x="240" y="844"/>
      <point x="249" y="844" type="qcurve" smooth="yes"/>
      <point x="251" y="844"/>
      <point x="266" y="843"/>
      <point x="291" y="836"/>
      <point x="299" y="833" type="qcurve"/>
    </contour>
    <contour>
      <point x="301" y="680" type="qcurve" smooth="yes"/>
      <point x="358" y="680"/>
      <point x="453" y="619"/>
      <point x="522" y="520"/>
      <point x="560" y="395"/>
      <point x="560" y="332" type="qcurve" smooth="yes"/>
      <point x="560" y="268"/>
      <point x="522" y="145"/>
      <point x="453" y="48"/>
      <point x="358" y="-12"/>
      <point x="301" y="-12" type="qcurve" smooth="yes"/>
      <point x="243" y="-12"/>
      <point x="147" y="49"/>
      <point x="79" y="149"/>
      <point x="41" y="275"/>
      <point x="41" y="340" type="qcurve" smooth="yes"/>
      <point x="41" y="402"/>
      <point x="82" y="524"/>
      <point x="153" y="620"/>
      <point x="247" y="680"/>
    </contour>
    <contour>
      <point x="303" y="664" type="qcurve" smooth="yes"/>
      <point x="271" y="664"/>
      <point x="225" y="631"/>
      <point x="193" y="576"/>
      <point x="174" y="507"/>
      <point x="163" y="434"/>
      <point x="159" y="363"/>
      <point x="159" y="335" type="qcurve" smooth="yes"/>
      <point x="159" y="306"/>
      <point x="162" y="235"/>
      <point x="172" y="162"/>
      <point x="190" y="92"/>
      <point x="221" y="37"/>
      <point x="267" y="4"/>
      <point x="300" y="4" type="qcurve" smooth="yes"/>
      <point x="333" y="4"/>
      <point x="379" y="38"/>
      <point x="409" y="93"/>
      <point x="425" y="164"/>
      <point x="433" y="237"/>
      <point x="435" y="308"/>
      <point x="435" y="336" type="qcurve" smooth="yes"/>
      <point x="435" y="361"/>
      <point x="432" y="429"/>
      <point x="422" y="501"/>
      <point x="405" y="573"/>
      <point x="375" y="629"/>
      <point x="333" y="664"/>
    </contour>
  </outline>
</glyph>
<glyph name="ocircumflex" format="2">
  <advance width="595"/>
  <unicode hex="00F4"/>
  <outline>
    <contour>
      <point x="431" y="717" type="line"/>
      <point x="425" y="708" type="line"/>
      <point x="401" y="717"/>
      <point x="378" y="728" type="qcurve"/>
      <point x="358" y="736"/>
      <point x="315" y="757"/>
      <point x="300" y="765" type="qcurve"/>
      <point x="298" y="764" type="line" smooth="yes"/>
      <point x="293" y="761"/>
      <point x="288" y="759" type="qcurve" smooth="yes"/>
      <point x="286" y="758" type="line" smooth="yes"/>
      <point x="283" y="757"/>
      <point x="281" y="755" type="qcurve"/>
      <point x="280" y="755" type="line"/>
      <point x="275" y="753"/>
      <point x="271" y="750" type="qcurve"/>
      <point x="269" y="750" type="line"/>
      <point x="266" y="748"/>
      <point x="263" y="747" type="qcurve" smooth="yes"/>
      <point x="242" y="736"/>
      <point x="222" y="728" type="qcurve"/>
      <point x="199" y="717"/>
      <point x="175" y="708" type="qcurve"/>
      <point x="169" y="717" type="line"/>
      <point x="256" y="841" type="line"/>
      <point x="269" y="848"/>
      <point x="285" y="852"/>
      <point x="293" y="852" type="qcurve" smooth="yes"/>
      <point x="310" y="852"/>
      <point x="333" y="844"/>
      <point x="344" y="841" type="qcurve"/>
    </contour>
    <contour>
      <point x="301" y="680" type="qcurve" smooth="yes"/>
      <point x="358" y="680"/>
      <point x="453" y="619"/>
      <point x="522" y="520"/>
      <point x="560" y="395"/>
      <point x="560" y="332" type="qcurve" smooth="yes"/>
      <point x="560" y="268"/>
      <point x="522" y="145"/>
      <point x="453" y="48"/>
      <point x="358" y="-12"/>
      <point x="301" y="-12" type="qcurve" smooth="yes"/>
      <point x="243" y="-12"/>
      <point x="147" y="49"/>
      <point x="79" y="149"/>
      <point x="41" y="275"/>
      <point x="41" y="340" type="qcurve" smooth="yes"/>
      <point x="41" y="402"/>
      <point x="82" y="524"/>
      <point x="153" y="620"/>
      <point x="247" y="680"/>
    </contour>
    <contour>
      <point x="303" y="664" type="qcurve" smooth="yes"/>
      <point x="271" y="664"/>
      <point x="225" y="631"/>
      <point x="193" y="576"/>
      <point x="174" y="507"/>
      <point x="163" y="434"/>
      <point x="159" y="363"/>
      <point x="159" y="335" type="qcurve" smooth="yes"/>
      <point x="159" y="306"/>
      <point x="162" y="235"/>
      <point x="172" y="162"/>
      <point x="190" y="92"/>
      <point x="221" y="37"/>
      <point x="267" y="4"/>
      <point x="300" y="4" type="qcurve" smooth="yes"/>
      <point x="333" y="4"/>
      <point x="379" y="38"/>
      <point x="409" y="93"/>
      <point x="425" y="164"/>
      <point x="433" y="237"/>
      <point x="435" y="308"/>
      <point x="435" y="336" type="qcurve" smooth="yes"/>
      <point x="435" y="361"/>
      <point x="432" y="429"/>
      <point x="422" y="501"/>
      <point x="405" y="573"/>
      <point x="375" y="629"/>
      <point x="333" y="664"/>
    </contour>
  </outline>
</glyph>
